<svg xmlns="http://www.w3.org/2000/svg" viewBox="0 0 841.89 595.28">
                <defs>
                  <style>
                    .cls-1,
                    .cls-3 {
                      fill: #fff;
                    }
                    .cls-2 {
                      fill: #009eff;
                      opacity: 0.75;
                    }
                    .cls-3 {
                      font-size: 30px;
                      font-family: FuturaLT-Heavy, Futura LT;
                    }
                    .cls-4 {
                      letter-spacing: 0.04em;
                    }
                    .cls-5 {
                      fill: #fff;
                    }
                    .cls-6,
                    .cls-9 {
                      font-size: 27px;
                    }
                    .cls-6,
                    .cls-7,
                    .cls-8 {
                      fill: #000060;
                    }
                    .cls-11,
                    .cls-6,
                    .cls-7,
                    .cls-9 {
                      font-family: FuturaLT, Futura LT;
                    }
                    .cls-7 {
                      font-size: 26px;
                    }
                    .cls-10 {
                      letter-spacing: -0.1em;
                    }
                    .cls-11 {
                      font-size: 21px;
                    }
                    .cls-12 {
                      letter-spacing: -0.08em;
                    }
                    .cls-13 {
                      letter-spacing: 0em;
                    }
                  </style>
                </defs>
                <title>adiv</title>
                <g id="bg">
                  <rect class="cls-1" width="841.89" height="595.28"></rect>
                </g>
                <g id="header">
                  <rect class="cls-2" width="841.89" height="83.6"></rect>
                  <text class="cls-3" transform="translate(123.63 58.52)">
                    2018–19 Ma
                    <tspan class="cls-4" x="169.74" y="0">r</tspan>
                    <tspan x="181.95" y="0">
                      tyr's Memorial A-Division League
                    </tspan>
                  </text>
                </g>
                1,18.9,18.9,0,0,1-8.41-4.55,1.93,1.93,0,0,0-
                <g id="edition">
                  <rect class="cls-5" y="83.6" width="422.59" height="164.99"></rect>
                  <text class="cls-6" transform="translate(160 145.46)">
                    42nd Edition
                  </text>
                  <text class="cls-7" transform="translate(160 181.18)">
                    Manang Marshyangdi
                    <tspan x="0" y="31.2">Club (Winners)</tspan>
                  </text>
                  <path class="cls-8" d="M54.92,167l1.92,6.75,1.23-.25v-.14l-1-.08-1.48-5.22c.72.45,1.14.25,2.3-1l1.89,6.24.19,0v-.66c.69,1.18,1.69.41,2.53.42s1.85-.17,2.77-.24c4.81-.38,9.62-.89,14.45-1.08,7.28-.29,14.57-.35,21.86-.49.65,0,1.31.09,2,.07a7.28,7.28,0,0,0,2.53-.3,9.82,9.82,0,0,1,2.81-.11c1.52-.09,3-.23,4.56-.35a.84.84,0,0,0,.47-.13c1.09-1,2.47-.76,3.71-.77,3.27,0,6.54.12,9.81.2,1,0,2,0,2.94.09a8,8,0,0,1,1.45.19c1,.25,1.3.12,1.61-.92.26-.85.47-1.71.8-2.55l-.1.85.12,0,.4-.9c-.18.85.22,1.12,1,1.3,1,.23,1.12.56.87,1.55s-.57,2.11-.88,3.15c-.14.45-.18,1.09-1.17.58l.2.33,1,.17,1.76-6.14.2.05-1.6,6.22,5.33.75-2.78,7.83a56.59,56.59,0,0,0,15.25.76l-11.3,8.91L153,199.73c-.61.06-1,.14-1.39.14a91,91,0,0,1-21.72-1.94c-2-.45-3.87-1.13-5.78-1.75a1,1,0,0,0-1.19.3,69,69,0,0,1-21,15.7c-1.64.8-3.34,1.49-5,2.15a2,2,0,0,1-1.39,0,76.61,76.61,0,0,1-25.23-17.41,1.91,1.91,0,0,0-2.21-.57,54.73,54.73,0,0,1-14,3.08,96.82,96.82,0,0,1-14.31.49.45.45,0,0,1-.36-.16l10.37-7.57-11.49-9.07a51.68,51.68,0,0,0,16-.74l-3.05-7.73,5.36-.73-1.8-6.82Zm27.6,29.63c.33.75.87.78,1.51.43.27,0,.55.06.82.12s.71.2,1.06.3l.05-.23c-.9-.07-1.51-.52-1.31-1a1.32,1.32,0,0,1,.7-.69c.27-.09.63.06,1,.12-.86-1.15-.75-1.51.58-2-.19-.85-.16-.89.68-1.43.18-.12.25-.41.36-.63-1.44.77-1.44.77-2.38,0-.81.69-.81.69-1.94.18a.57.57,0,0,0-.44,0c-1,.53-1,.53-1.81-.14l3.47-.32c-3.65-1-11.32-.49-12.78.57H77V192l-1.68.34c.41.07.75.25.91.15a1.44,1.44,0,0,1,1.79.21,1.22,1.22,0,0,0,.86,1.46.93.93,0,0,0,1.25-.68,3.52,3.52,0,0,1,.58.56c.18.26.43.62.36.87a1.2,1.2,0,0,1-.73.64c-.22.07-.53-.13-.8-.21l-.06.19c.35.09.73.33,1,.25C81.72,195.41,81.86,195.44,82.53,196.65Zm31.76,0,.55.16c.41.73.92.57,1.47.18a10.11,10.11,0,0,0,.56-.89.93.93,0,0,1,1.41-.47c.13.06.28.1.42.16a.35.35,0,0,0-.18-.29c-.49-.25-.86-.63-.53-1.16a.87.87,0,0,1,1.38-.29.84.84,0,0,0,1.33-.4c-.39.06-1,.33-1.24.13s-.35-.88-.51-1.34l.23-.11-.92-.22h5.55c-1.11-.25-2.34-.6-3.59-.81a29.88,29.88,0,0,0-4.53-.54c-2,0-3.91.2-5.86.31-.56,0-1.13,0-1.7,0v.14l5.61.57c-.28,0-.48,0-.58.1a1.05,1.05,0,0,1-1.58,0c-.11-.1-.52,0-.69.13a.86.86,0,0,1-1.3,0c-.33-.35-.58-.28-.88,0a.76.76,0,0,1-1.21,0,3.74,3.74,0,0,1-.39-.7c-.82,1.34-1.55,1.14-2.3.21a8.68,8.68,0,0,0,1.45,2.36c.6.56.71,1,.41,1.4.44.36,1,.61,1.14,1s-.39.8-.62,1.22a3.85,3.85,0,0,1,.76-.37c.69-.18,1.38.89.85,1.32a3.75,3.75,0,0,1-1.27.42,4.23,4.23,0,0,1,.26.43c.12.24.2.5.33.74.38.74.9.9,1.3.62a5.76,5.76,0,0,1-1.15-.87c-.09-.1.22-.75.48-.89.83-.45,1.12.35,1.5.89.63-1.25.83-1.28,2.23-.46.68-.68.67-.65,1.71-.37a2.83,2.83,0,0,0,1-.14c-.35-.12-.73.06-.94-.06a1.31,1.31,0,0,0-1.65,0,.64.64,0,0,1-.53,0c-.52-.21-.85-.63-.54-1.14s.66-.78,1.29-.32,1.27.18,1.45-.66ZM98.34,189.1l-1,0,1.17-1a9.35,9.35,0,0,0-5.32.25l1.22.81a6.84,6.84,0,0,0-1.82.39,15.6,15.6,0,0,0-1.88,1.42,1.28,1.28,0,0,1-.6.31c-1.72.11-2.51,1.37-2.76,2.87a2.65,2.65,0,0,0,1,2.84l2-5,.28,0-.43,3,.69-1,3.7.71c.15,1.56,0,3.05.65,4.21A20.59,20.59,0,0,0,91.73,201l-2.53-2,.28-.26,2.18,3.88c0-.24,0-.5,0-.76s0-.56.07-.84c.22.65.25,1.53.7,1.9A5.86,5.86,0,0,0,97,204.17c2.28-.27,2.3-.29,1.95-2.57-.06-.38-.13-.76-.16-.93l3.47-2.52a5.94,5.94,0,0,0,.87.63c1.32.66,1.63,1.34,1.07,2.68-.36.85-.8,1.67-1.21,2.5,0,.07-.08.16-.14.19-.69.31-1.39.61-2.08.93a8.74,8.74,0,0,0-.84.52c2.57,1.14,5.94-2.77,6.23-6.18-.18,0-.41.09-.52,0-.51-.36-1-.81-1.48-1.15-.72-.47-.73-.63,0-1.08a2.4,2.4,0,0,0,1.15-2.41c0-.21,0-.43-.05-.65a4.46,4.46,0,0,0-.3-1.5,8,8,0,0,0-4.38-3.61Zm3.37-5,.31-7h-1.61v2.17a3.47,3.47,0,0,1-.47-1.22c-.27-1.19-.41-1.27-1.76-.93v7h1.3v-2.27a3.65,3.65,0,0,1,.44,1.23C100.19,184.35,100.23,184.37,101.7,184.14Zm-4.18-3.64h.1c0-.79,0-1.58,0-2.37S97.36,177,96.52,177c-.57,0-1.15,0-1.72,0-.84,0-1.11.29-1.12,1.15,0,1.15,0,2.29,0,3.44,0,2.78,0,2.55,2.7,2.58A1,1,0,0,0,97.52,183C97.53,182.19,97.52,181.34,97.52,180.5Zm-23.21-2.62L75,185l2.69-.25a1,1,0,0,0,1-1.16c-.14-1.71-.27-3.42-.41-5.12,0-.53-.32-.89-.88-.86C76.39,177.68,75.39,177.79,74.31,177.88Zm45.5.78c-.27,2.13-.55,4.18-.8,6.23a.83.83,0,0,0,.78,1c.59.11,1.18.19,1.78.28a1,1,0,0,0,1.25-1c0-.27.08-.54.12-.81l.78-5.15-1.55-.23-.86,5.75c-.64.08-.74-.13-.66-.64.27-1.72.49-3.45.74-5.23Zm-1.45,7,.53-4.11-1.46-.17-.37,2.73-.23.12c-.15-.18-.45-.37-.44-.54.12-1.32.29-2.64.46-4l1.91.14c-.22-.55-.28-1.23-.57-1.34a4.59,4.59,0,0,0-2-.23,1.12,1.12,0,0,0-.79.72c-.26,1.78-.43,3.57-.61,5.37a.84.84,0,0,0,.79,1C116.46,185.47,117.35,185.57,118.35,185.7Zm5.51,7.1-.15-.13a8,8,0,0,0-.57.56,68,68,0,0,1-24.36,18.26,5.17,5.17,0,0,1-4.91-.1C84.59,206.79,76.23,201,69.52,193a3.79,3.79,0,0,0-.51-.41c0,.19,0,.26,0,.28.27.34.55.68.83,1,7.1,8.16,15.83,14.06,25.61,18.52a2,2,0,0,0,1.7,0,66.88,66.88,0,0,0,26.47-19.29A3.28,3.28,0,0,0,123.86,192.8Zm-51.3-7.51-2.17-7a5.1,5.1,0,0,1-.63.07c-.76,0-1.09.23-1.09,1.08,0,1.58-.16,3.16-.24,4.74,0,.51,0,1,0,1.56.76-.08,1.62.12,1.51-1.08l.84,0,.37.79Zm41.84-.06-.58-7.26a6.21,6.21,0,0,0-1.17-.12.78.78,0,0,0-.59.36c-.65,2.16-1.25,4.33-1.89,6.6l1.46.11.32-.82.84.08.15.87Zm-33.71-7.84c.58,2.25,1.15,4.38,1.66,6.52.16.67.62.45,1,.48s.72-.08.77-.6c.07-.76.21-1.51.31-2.27l.6-4.34c-1.54-.11-1.54-.11-1.67,1.26-.09.94-.15,1.88-.23,2.81a24.94,24.94,0,0,1-.74-3.26c-.09-.59-.32-.82-.91-.7C81.27,177.35,81,177.35,80.69,177.38Zm7.26,5.46c.06,1.34.06,1.34,1.27,1.31h.25c1.45,0,1.61-.19,1.6-1.6q0-.41,0-.82c0-1.69,0-1.69-1.69-1.82a.82.82,0,0,1-.2-.09v-1.44l1.8-.11L90.67,177H90c-2.47,0-2.46,0-2.4,2.49,0,1.93.23,1.75,1.74,1.75,0,0,.09,0,.16.09v1.43Zm36.34-3.52-1.12,7.06,1.67.28c1.24.2,1.24.19,1.5-1.1l-1.41-.31.24-1.4,1.21.08.18-1.15-1.18-.31.27-1.54,1.54.2c.1-1.35.1-1.35-1.08-1.54Zm-13.95-1.7-3-.22-.49,7.13c.68.06,1.22.12,1.76.15,1.21.07,1.21.07,1.29-1.24l-1.38-.17.07-1.43h1.22l.07-1.19-1.18-.17.16-1.55h1.58Zm-6.48-.43-.37,7.15,2.73.16.33-1.28-1.44-.21.32-5.71ZM91.67,177V184h1.41V177ZM80.8,184.51l-.49-7.12-1.55.12.56,7.14Zm4.63-7.4.31,7.15,1.5-.1L87,177Zm5.48,27.55a7.85,7.85,0,0,1-1.11-1.59,37.92,37.92,0,0,1-1.2-3.89c-.19-.72-.45-.91-1-.43a1.36,1.36,0,0,0-.46.87,6,6,0,0,0,2.21,4.82A1.36,1.36,0,0,0,90.92,204.67Zm44-21.15c-.67-.21-1.42-.22-1.73-.6s-.24-1.15-.33-1.75c-.62,1.43-1.62,1.69-3,1.17l1.06,1.42-.89,1.55c1.37-.76,2.38-.39,3.18,1.14,0-.88-.2-1.58.05-2S134.27,183.88,134.92,183.52ZM65.35,182c-.72.13-1.41.46-1.9.27s-.73-.9-1.09-1.38c.12,1.56-.62,2.24-2.21,2.32,1.59.34,2,1.29,1.7,2.74.55-.46.9-1.14,1.38-1.26s1.14.29,1.86.51l-.92-1.68Zm30.3,25H92.79a7.46,7.46,0,0,0,5,.5l-1.68-1.21-.18,1.32ZM72.53,178.08l-1.27.16c.15.7.24,1.31.42,1.9.06.19.32.31.49.46.12-.17.33-.34.34-.52C72.55,179.47,72.53,178.85,72.53,178.08Zm-5.88.73c.17.73.3,1.37.49,2a.58.58,0,0,0,.41.35.54.54,0,0,0,.39-.36c0-.69,0-1.39,0-2.17Zm7.24,20.83-.08,0-3.54-3.53.09-.09Zm45.22.07-.14-.15,2.53-2.56.16.16Z"></path>
                  <path class="cls-8" d="M57,149.67a13.61,13.61,0,0,1,.13-4.65,3.08,3.08,0,0,0-.41.8c-.19,1.06-.15,2.2-1.29,2.93.12-1.14.22-2.29.35-3.43a1.29,1.29,0,0,1,1.12-1.14,19.19,19.19,0,0,0,6.33-2.79,3.75,3.75,0,0,0,1-.93,1.52,1.52,0,0,0-.44.16,16.43,16.43,0,0,1-7.34,3.24,1.06,1.06,0,0,0-1,1.14c-.1,1.14-.27,2.27-.41,3.4l-1.09.06.36-5.5a12.42,12.42,0,0,0,5.83-1.82l-2.2.76c-.16-1.23-.33-2.35-.44-3.48-.25-2.49-.48-5-.71-7.48,0-.21-.08-.56,0-.62.7-.43.31-.95.16-1.43-.47-1.62-1-3.23-1.47-5,27.23-8.76,54.33-7.77,81.52.54l-2.41,6.89a3.41,3.41,0,0,1,.3-.35l.59-.43a1.9,1.9,0,0,1,.18.66c-.12,1-.28,2.05-.45,3.07-.36,2.2-.74,4.41-1.13,6.6a4.07,4.07,0,0,1-.42.9c1.59.5,3.2,1.37,5,1.06a9.47,9.47,0,0,0-.14,1.34c0,1.53.13,3.05.2,4.69-.75-1-.72-.1-.94.31-.12-1.52-.21-3-.37-4.39a1,1,0,0,0-.53-.72,20.34,20.34,0,0,1-7-2.61c-.1-.06-.24-.07-.44.06a10.16,10.16,0,0,0,1.42.83c1.64.65,3.29,1.31,5,1.83a1.64,1.64,0,0,1,1.36,1.59c.06.9,0,1.8.07,2.7,0,.68-.3.8-.94.58l-.33-3.78-.22,0v5.58h-.09c-.08-1.24-.18-2.47-.23-3.71a.93.93,0,0,0-.8-1.21-.32q-11.3-.21-22.6-.38c-11.33-.16-22.66-.3-34-.48a2.59,2.59,0,0,0-2.14.89A16.92,16.92,0,0,1,58.42,146a1.32,1.32,0,0,0-1.12,1.3C57.24,148.06,57.13,148.87,57,149.67ZM107,127.21a9.78,9.78,0,0,0-1.12-.15c-1.47,0-2.95,0-4.42,0a4.2,4.2,0,0,0-2.83,1,40,40,0,0,1-3.42,2.18l-.15-.21,6.6-7.12-2.16-2.38c-1.74,2.12-3.42,4.2-5.12,6.26a4.69,4.69,0,0,1-1,1.06c-1.85,1.15-3.73,2.25-5.61,3.37,0,0-.08,0-.13-.07,1.06-1.34,2.46-2.4,3.47-4.11-1.4.12-2.5-.12-3.57.7a52,52,0,0,1-4.4,2.82,5.83,5.83,0,0,1-.86.36l-.11-.17,3.13-3.43c-1.06.14-2.3-.31-3.35.65a1.12,1.12,0,0,1-.88.12c-.43-.89-1.2-.58-1.85-.57-1.52,0-3,.16-4.51.24,0-.29,0-.63-.08-.76-.52-.51-1.1-.95-1.84-1.57a7.67,7.67,0,0,0-.44.7c-.95,1.93-2.6,2.28-4.55,2.15-1.49-.1-3,0-4.48,0v.29c1.87.68,3.64,1.8,5.84,1.22a3.18,3.18,0,0,1-.59.77c-1.64,1.64-3.28,3.28-4.94,4.9a1.37,1.37,0,0,0-.35,1.57,14.06,14.06,0,0,0,.77,1.51,2.68,2.68,0,0,0,.34-.28c1.39-1.54,2.76-3.1,4.19-4.6a4.05,4.05,0,0,1,1.53-1c3.42-1.2,7-2,10.13-3.91a2.74,2.74,0,0,1,.92-.14L77.78,132c1.4,1.29,2.08,1.39,3.51.6s2.64-1.49,4-2.24l.1.1L84,132c1.4,1.21,1.88,1.26,3.33.41l1.47-.89,2.13-1.27a3.16,3.16,0,0,1-.5.9c-.2.29-.38.58-.55.86,1.25,1.09,2.11,1.13,3.38.33,1.57-1,3.17-1.93,4.77-2.86.24-.14.65-.28.83-.17.8.5,1.55,1.09,2.49,1.78-2.43.6-4.92-.43-6.7,1.62a11.39,11.39,0,0,0,3.75.19,6.26,6.26,0,0,0,3.62-.78c1.06-.69,2.19-1.28,3.28-1.92l.11.17-1.14.92a2.74,2.74,0,0,0,3.58,1c.53-.22,1.05-.45,1.58-.69l2.8-1.25c-.11.32-.34.5-.43.74a.94.94,0,0,0,0,.73,1.69,1.69,0,0,0,2.4.45c1.36-.91,2.72-1.82,4.1-2.7a13.23,13.23,0,0,1,1.51-.7c-.64.78-1.11,1.37-1.6,2a.86.86,0,0,0,.09,1.3,1.57,1.57,0,0,0,2.2.38,43.54,43.54,0,0,1,8.73-3.23,4,4,0,0,0,.63-.25,31.16,31.16,0,0,0-7.49,1,8.61,8.61,0,0,1,1.17-1.31l1.26-1.2-.12-.27h-5.24c-.07.44,0,1-.22,1.15-1.23.66-2.53,1.2-3.8,1.78a10.79,10.79,0,0,1,1.31-1.63,9.53,9.53,0,0,0,.66-1,7.65,7.65,0,0,0-1.2-.6,2.92,2.92,0,0,0-1.21-.11,27.92,27.92,0,0,0-4.58.75c-2,.62-3.89,1.56-5.84,2.33a3.67,3.67,0,0,1-3.81-1.25C102.73,128.16,105.06,129,107,127.21Z"></path>
                  <path class="cls-8" d="M77.81,164.54l-2.57,1.17c1.25,1.51,2.21,2.14,4,1.15l.29,1.49a3.61,3.61,0,0,1-3.53,0,9.67,9.67,0,0,1-4.52-4.94l1.69-.94c.12.21.28.48.43.76a1.24,1.24,0,0,0,2.07.35,2.29,2.29,0,0,0,.62-2.39,2.07,2.07,0,0,0-2.09-1.15c-1.33.12-2.65.28-4,.43l-.14-.76a212.53,212.53,0,0,1,53.15,0l-.07.76-6.84-.73-.2,2.05c1,.13,1.91.21,2.81.36a2.67,2.67,0,0,1,2.11,2.63,3.11,3.11,0,0,1-3,3.25c-.5,0-.83,0-1-.6a7.93,7.93,0,0,0-.43-1.08c1.4.26,2.24-.48,2.16-1.82,0-.7-.52-1.1-1.41-1.19-1.26-.13-1.41,0-1.52,1.23s-.25,2.71-.39,4.2l-2.08-.21v-1.15c-.62,0-1.21,0-1.79,0-2.4-.22-3.85-2-3.34-4.18a2.26,2.26,0,0,1,1.59-1.79,4.49,4.49,0,0,1,4.06.25l.14-2.17-9.35-.57c1.1,1.29,1.4,2.55.51,3.86a3.51,3.51,0,0,1-3.57,1.63c1.44,2,2.17,2.57,4,1.88.2,1.68-.18,2.05-1.85,1.65a5.1,5.1,0,0,1-1.84-.83A9.42,9.42,0,0,1,98.38,162l1.76-.75.32.81a1.31,1.31,0,0,0,2.11.59,2.46,2.46,0,0,0,.88-2.17,2,2,0,0,0-1.69-1.47c-1.77-.06-3.54,0-5.39,0v8.94H94.15V159H91.66v9H89.51v-5.38H87.67c0,.8,0,1.52,0,2.25,0,1.86-.86,2.91-2.56,3.1a2.71,2.71,0,0,1-2.88-1.44c-.63-1.19-.62-3,.21-3.7a6.06,6.06,0,0,1,2-.86,3.85,3.85,0,0,1,.92-.07l-.18-2.7-7.85.56a3.19,3.19,0,0,1,1.27,3.42,3.49,3.49,0,0,0,2.77-.27c.47,1.36.27,1.75-1.18,1.86A14.33,14.33,0,0,1,77.81,164.54Zm35.83-.53c.09-1.18.09-1.19-1.1-1.36a3,3,0,0,0-.73,0,1.56,1.56,0,0,0-1.45,2,2,2,0,0,0,2.19,1.4c1.08,0,1-.76,1-1.45C113.61,164.39,113.62,164.2,113.63,164ZM87.43,159.1l.12,2.56h1.86L89.29,159Zm-2,3.63c-1,0-1.19.11-1.33.69a3.52,3.52,0,0,0,.34,2.9,2.58,2.58,0,0,0,.57.47c.14-.23.39-.45.4-.68C85.48,165,85.46,163.9,85.46,162.73Z"></path>
                  <path class="cls-8" d="M89.84,146.08v6.13H88.32v-6.15H86.77l-.08-.81H95c.41-1.68,3.42-3.15,5.43-2.58.71.2.82.89.75,1.56a9,9,0,0,1-.22,1h9.19V146l-1.66.11V148c-.91,0-1.76,0-2.59,0s-1.44.48-1.5,1.2.45,2.16,1.4,2.17c.06-.82-.91-2,.41-2.39,1.67-.5,2.48-.33,2.77.45.38,1,0,1.86-1.16,2.65l.36,1.43-.92.08a1.48,1.48,0,0,1-.15-.3,1.21,1.21,0,0,0-1.37-1,2.79,2.79,0,0,1-2.86-3.49,1.34,1.34,0,0,1,1.15-1.29c.85-.13,1.7-.32,2.64-.5l0-.9h-5.71v6.17H99.44V146.1H97l-.09,1.83c-.92,0-1.82,0-2.71,0-.4,0-1-.09-1,.54s.55.71,1.16.65a13.28,13.28,0,0,1,2.51.07c.59.06.93.78.78,1.48a2,2,0,0,1-1.81,1.3c-.62.07-.67,0-1.15-.88.55.08,1.14.33,1.35-.51.14-.54-.13-.79-.56-.71a6.76,6.76,0,0,0-2,.67,1.1,1.1,0,0,0-.3,1c.25.49.67,1.11,1.13,1.22a3.08,3.08,0,0,0,3.18-.75c.19,1.39.16,1.55-1.08,1.7a8.9,8.9,0,0,1-3.06-.13,2.3,2.3,0,0,1-.76-4.12c-.13-.1-.29-.17-.35-.29a4.09,4.09,0,0,1-.58-1.32c-.06-.58.52-.62.94-.66.91-.1,1.83-.15,2.75-.23v-.95Zm9.7-.82c.09-.6.56-1.22-.17-1.64-1-.56-2.63.42-2.76,1.64Zm7.48,6.09c.84-.32.74-.91.72-1.4,0-.16-.28-.32-.43-.48-.14.15-.38.29-.39.45A11.14,11.14,0,0,0,107,151.35Z"></path>
                  <path class="cls-8" d="M83.7,150.47c1.12,1.68,2,2,3.19,1.34C87,153,86.95,153,85.82,153a4.63,4.63,0,0,1-3.7-2.38c-.26-.38-.46-.8-.71-1.22l1.24-.49c.42.61,1,.94,1.72.36s1.22-2.17.75-2.8c-.17-.23-.75-.42-.93-.3a1.08,1.08,0,0,0-.36,1c.06.24.53.38.9.61a1.08,1.08,0,0,1-1.79.36,2.82,2.82,0,0,1-.56-1.67.84.84,0,0,1,.93-.92,15.43,15.43,0,0,1,2.25,0c.69.09.92.71,1,1.31A3.08,3.08,0,0,1,83.7,150.47Z"></path>
                  <path class="cls-8" d="M100.58,189c.89.91,1.79,1.8,2.64,2.74a.8.8,0,0,1-.07.75c-.46.6-1,1.14-1.4,1.59l-4-1.8c-.3-1.17-.44-1.33-1.77-1a33.8,33.8,0,0,0-4,1.39,5.15,5.15,0,0,0-1.13.87,1.76,1.76,0,0,1,.7-2.39,6.56,6.56,0,0,1,4.95-1.47,5.58,5.58,0,0,1,.78.21c-.11-.78.51-.76,1-.84Z"></path>
                  <path class="cls-8" d="M82.53,196.65a.78.78,0,0,1,.55-1.07,1.11,1.11,0,0,1,.92.22.82.82,0,0,1,0,1.28C83.39,197.43,82.86,197.4,82.53,196.65Z"></path>
                  <path class="cls-8" d="M114.83,196.82c-.41-.46-.12-.87.21-1.11a1.08,1.08,0,0,1,1-.06.92.92,0,0,1,.29,1.35C115.75,197.39,115.24,197.54,114.83,196.82Z"></path>
                  <path class="cls-8" d="M102.76,194.9l-.46-1,.31-.15.51,1Z"></path>
                  <path class="cls-8" d="M116.68,193.5c.39.54.86.9.83,1.22a.85.85,0,0,1-1.69,0C115.81,194.37,116.28,194,116.68,193.5Z"></path>
                  <path class="cls-8" d="M111.07,197.65c.08.91-.42,1.15-.84,1.15s-1-.26-.85-.84a1.35,1.35,0,0,1,.86-.84C110.53,197.08,110.9,197.53,111.07,197.65Z"></path>
                  <path class="cls-8" d="M111.06,197.35c-.23-.34-.64-.67-.65-1a.71.71,0,0,1,.92-.75c.34.11.81.52.81.78s-.45.66-.7,1Z"></path>
                  <path class="cls-8" d="M114.31,196.63c-.38.47-.82.9-1.41.4a1.19,1.19,0,0,1-.25-1,.68.68,0,0,1,1-.47c.31.18.42.7.61,1.06Z"></path>
                  <path class="cls-8" d="M111.38,194.54c.33-.24.69-.7,1-.66a1.23,1.23,0,0,1,.81.85c0,.24-.47.78-.76.8s-.68-.38-1-.6Z"></path>
                  <path class="cls-8" d="M115.49,194.94c-.35.21-.71.61-1,.58s-.8-.57-.75-.81a1.24,1.24,0,0,1,.83-.84c.29,0,.65.42,1,.66Z"></path>
                  <path class="cls-8" d="M108.92,197.35c-.24-.33-.65-.66-.66-1a.69.69,0,0,1,.9-.74c.34.12.82.51.82.76s-.44.65-.68,1Z"></path>
                  <path class="cls-8" d="M108.23,193.72c.23.34.66.69.65,1a.79.79,0,0,1-1.58,0c0-.33.38-.69.59-1Z"></path>
                  <path class="cls-8" d="M109.24,194.5c.35-.22.71-.64,1-.61a.83.83,0,0,1,0,1.65c-.33,0-.67-.4-1-.63Z"></path>
                  <path class="cls-8" d="M107,194.28c-.42-.51-.84-.8-.86-1.12s.27-1,.85-.81c.34.1.79.48.82.77S107.41,193.75,107,194.28Z"></path>
                  <path class="cls-8" d="M109.12,194.28c-.41-.52-.83-.82-.84-1.14s.29-1,.87-.79c.34.11.78.5.81.8S109.53,193.76,109.12,194.28Z"></path>
                  <path class="cls-8" d="M111.27,194.3c-.41-.54-.85-.87-.84-1.19s.49-.65.83-.75c.57-.17.89.35.87.78S111.7,193.75,111.27,194.3Z"></path>
                  <path class="cls-8" d="M113.41,194.26c-.41-.5-.83-.79-.85-1.11a.85.85,0,0,1,1.71,0C114.24,193.48,113.82,193.77,113.41,194.26Z"></path>
                  <path class="cls-8" d="M115.59,194.3c-.43-.54-.84-.84-.89-1.19s.45-.63.77-.73a.72.72,0,0,1,.94.73C116.42,193.42,116,193.74,115.59,194.3Z"></path>
                  <path class="cls-8" d="M117.77,192c.39.56.83.92.77,1.18a1.14,1.14,0,0,1-.86.71c-.31,0-.84-.47-.83-.73S117.32,192.51,117.77,192Z"></path>
                  <path class="cls-8" d="M80.08,193.46a3.34,3.34,0,0,1-.88.45c-.65.11-1-.36-1-1.2C79.22,191.91,79.83,192.16,80.08,193.46Z"></path>
                  <path class="cls-8" d="M85.53,194.28c-.42-.53-.86-.84-.86-1.14,0-.46.3-1,.93-.8.34.11.8.52.8.79S85.94,193.76,85.53,194.28Z"></path>
                  <path class="cls-8" d="M81.33,194.55c.33-.25.67-.71,1-.68a1.35,1.35,0,0,1,.9.81c.19.58-.41.87-.81.87s-.7-.39-1-.61Z"></path>
                  <path class="cls-8" d="M83.18,194.07c-.23-.33-.64-.66-.65-1a.69.69,0,0,1,.9-.75c.34.12.81.5.81.78s-.43.65-.67,1Z"></path>
                  <path class="cls-8" d="M85.71,194.72c-.57.41-.93.86-1.19.81s-.83-.53-.83-.83.5-.79.82-.83S85.16,194.31,85.71,194.72Z"></path>
                  <path class="cls-8" d="M81.21,192.3a.77.77,0,0,1,.91.85,1.12,1.12,0,0,1-.86.72,1.21,1.21,0,0,1-.88-.78A.69.69,0,0,1,81.21,192.3Z"></path>
                  <path class="cls-8" d="M95.47,178.1c.19.18.54.35.55.54,0,1.36,0,2.71,0,4.07l-.28.18c-.19-.18-.53-.35-.54-.54,0-1.36,0-2.71,0-4.07Z"></path>
                  <path class="cls-8" d="M76.76,179c.13,1.46.25,2.79.36,4.12,0,.11,0,.21,0,.39l-.73.08L76,179Z"></path>
                  <path class="cls-8" d="M70,181.6c.57,1.62.57,1.69,0,1.92Z"></path>
                  <path class="cls-8" d="M112.75,181.18v1.73C112.14,182.85,112.14,182.85,112.75,181.18Z"></path>
                  <path class="cls-8" d="M76.64,129.44a21.24,21.24,0,0,1-5.76,2.23C72,129.78,74.79,128.67,76.64,129.44Z"></path>
                  <path class="cls-8" d="M113.67,128.07c-.61,1.1-3.76,2.26-5,1.83C109.36,128.85,112.63,127.64,113.67,128.07Z"></path>
                </g>
                <g id="goal">
                  <path d="M478.78,134.4a31.7,31.7,0,1,0,31.7,31.7A31.72,31.72,0,0,0,478.78,134.4ZM503,148.1l-.22,9.77L490.15,162l-11-8V140.66l8.6-3.43A30.35,30.35,0,0,1,503,148.1Zm-33.23-10.93,8.6,3.43v13.34l-11,8-12.68-4.15-.73-9A30.32,30.32,0,0,1,469.81,137.17Zm-21.28,28.64,5.9-7.21,12.68,4.15,4.23,13-7.87,10.79L454.29,184a30.2,30.2,0,0,1-5.83-17.78A.79.79,0,0,0,448.53,165.81Zm21,29.08-5.39-8L472,176.08h13.63l7.8,10.79L487.59,195a29.34,29.34,0,0,1-8.82,1.31A29.66,29.66,0,0,1,469.52,194.88Zm33.67-11L494,186.5l-7.87-10.86,4.23-13L503,158.52l5.9,7.21V166A29.7,29.7,0,0,1,503.19,183.88Z"></path>
                  <text class="cls-9" transform="translate(529 176.1)">
                    Goals: 226
                  </text>
                  <text class="cls-9" transform="translate(529 139.76)">
                    Matches Played: 91
                  </text>
                  <text class="cls-9" transform="translate(529 210.96)">
                    <tspan class="cls-10">T</tspan>
                    <tspan x="9.61" y="0">op Scorer: Ranjit Dhimal</tspan>
                  </text>
                </g>
                <g id="best">
                  <path d="M80,311.53a9.86,9.86,0,0,0-2.83-1,12.82,12.82,0,0,0-3.56,1,3,3,0,0,1-1.66.32l-1.07,0a4.23,4.23,0,0,1-2.34-.45,11.44,11.44,0,0,0,1.05-2.34c.21-.57.41-1.11.61-1.5a5.18,5.18,0,0,0,.35-2.39,5.87,5.87,0,0,0,1,.35c1.39.35,1.84-.85,2.05-1.47a1.11,1.11,0,0,1,.47-.65,2.87,2.87,0,0,0,.74-.81,7.71,7.71,0,0,0,.48-.87,1.1,1.1,0,0,0,1.23-.66,5.57,5.57,0,0,0-.08-2.91,5,5,0,0,1,.13-.71,9.93,9.93,0,0,0,.3-2.1c0-1.41-.14-3-1.21-3.92a9.4,9.4,0,0,0-3.21-2.09,8.07,8.07,0,0,0-2.21-.27,8.26,8.26,0,0,0-1.69.16,5.14,5.14,0,0,0-2.62,1.58,3.93,3.93,0,0,0-1.42,3.74,7.25,7.25,0,0,1-.41,3.52,3.11,3.11,0,0,1-1.45.41c-.3,0-.61.09-.88.15a7.67,7.67,0,0,1-2.44-.21c-.41-.07-.83-.15-1.24-.21a6.91,6.91,0,0,0-3.44.47l-.23.08a22.48,22.48,0,0,1-3.13.5c-.59.07-1.15.14-1.59.21l-2.72.42a.49.49,0,0,0-.37.27l-.29.59a6.94,6.94,0,0,0-1.3.31c-.66.22-1.7.44-2.4.59l-.6.13c-.5.13-.83.42-1.91,1.41l-.29.27a19.33,19.33,0,0,0-3.23,4.73c-.6,1.12-2.43,3.63-3,4.34a4.72,4.72,0,0,0-1.39.24,3.45,3.45,0,0,0-.88.65,6.17,6.17,0,0,1-1.83,1.23,3.46,3.46,0,0,1-1.39.23,1.61,1.61,0,0,0-1.29.41,1.9,1.9,0,0,0-.45,1.56,2.15,2.15,0,0,0,1,1.61,6.41,6.41,0,0,0,2.39.53l.36,0a1.92,1.92,0,0,0-.18,1,1.38,1.38,0,0,0,.67,1l.1.06c.42.26.56.35.76.35a.58.58,0,0,0,.4-.17.71.71,0,0,0,.14-.59c0-.07,0-.16,0-.26a5.13,5.13,0,0,1,1-1.12,7.71,7.71,0,0,0,1.27-1.48,24.44,24.44,0,0,1,3.45-3.73,19,19,0,0,0,1.62-1.84,17.57,17.57,0,0,1,2.61-2.82,21.15,21.15,0,0,0,2.85-2.52l2.1.08.29.57a.5.5,0,0,0,.49.27l2.18-.23c-.17.56-.4,1.32-.52,1.82-.19.77-1,3.57-1.55,5a29.29,29.29,0,0,1-2.55,5A25.21,25.21,0,0,1,40.68,323l-.42.29c-1.25.86-2.54,1.76-2.4,3.37,0,.41.29,1.35,1.86,1.42a20.37,20.37,0,0,1-1,2.26c-.65,1.18-.69,5.28-.69,6.09,0,0,0,2.2-.1,3.94a30.87,30.87,0,0,1-.82,4.5.49.49,0,0,0,.3.58l1,.4c0,.28,0,.71-.09,1.17a13.3,13.3,0,0,1-1.53,4.1,3.91,3.91,0,0,1-1.74.69,9.27,9.27,0,0,0-1.91.44,10.93,10.93,0,0,0-2.46,1.14,10.3,10.3,0,0,1-1.24.65,16.79,16.79,0,0,0-3.9,2.49A10.08,10.08,0,0,0,24,358.4c-.25.35-.5.72-.79,1.08a8.92,8.92,0,0,1-1.49,1.38,18.11,18.11,0,0,0-1.61,1.4,9.69,9.69,0,0,1-1.29,1.14.94.94,0,0,0-.42-.1,1,1,0,0,0-.9.69.7.7,0,0,1,0,.09,1.24,1.24,0,0,1-.24,0,3,3,0,0,0-1.5.49,4.1,4.1,0,0,0-1.77,1.9l-.27.47a2,2,0,0,0-.31,1.59,1.31,1.31,0,0,0,.37.59c0,.39.08,1,.08,1.2a.61.61,0,0,0,.37.56.79.79,0,0,0,.26.07.49.49,0,0,0,.15.35l.73.73a.49.49,0,0,0,.6.07.31.31,0,0,1,.19,0,7.93,7.93,0,0,0,1.05,1c.44.38,1,.85,1.5,1.36a3.6,3.6,0,0,1,.9,2.26.49.49,0,0,0,.08.27l.42.63a.49.49,0,0,0,.54.2l.45-.12,0,.22a.5.5,0,0,0,.31.51l1,.42a.49.49,0,0,0,.58-.17l.14-.19.32.42a.48.48,0,0,0,.39.19.49.49,0,0,0,.18,0l1.26-.52a1.77,1.77,0,0,0,1.24-1.92,2.56,2.56,0,0,0-1.09-1.81,5.46,5.46,0,0,1-.49-.49,5.49,5.49,0,0,1-.59-2.1c0-.29-.09-.56-.14-.81a5,5,0,0,1,.1-2,.49.49,0,0,0,0-.29,3.8,3.8,0,0,1-.19-1.44c.07-.49.79-.94,1.92-1.51a10.94,10.94,0,0,1,1.81-.63,9.77,9.77,0,0,0,2.73-1.08l.48-.32c1.17-.78,2.62-1.75,4-2.48a14.68,14.68,0,0,1,2.37-1,7.69,7.69,0,0,0,1-.36.94.94,0,0,0,.53-.64,1.34,1.34,0,0,0-.11-.83,20.64,20.64,0,0,0,2.36-2.31,1.39,1.39,0,0,1,1.39-.4l.45,0a1.39,1.39,0,0,0,.92-.29,3.12,3.12,0,0,0,1.1-1.72,1.38,1.38,0,0,1,.28-.23,3.63,3.63,0,0,0,.9-.86c.22-.3.45-.69.69-1.1a12.46,12.46,0,0,1,1.05-1.58c.29-.34.85-1.12,1.49-2,.75-1.06,1.61-2.27,2.06-2.77a45.57,45.57,0,0,0,3-4.7l3.76,1.79a.49.49,0,0,0,.53-.07L60.64,341l1.24.13a28.34,28.34,0,0,0-2.75,1.68,17.05,17.05,0,0,0-2.9,2.7c-.5.64-1,1.38-1.54,2.05l-.65.88a13.18,13.18,0,0,1-1.17,1.27,16,16,0,0,0-1.33,1.44,10.48,10.48,0,0,1-2.37,1.94l-.23.15-.43.31c-.37.28-.52.4-.78.35-.1,0-.12,0-.15-.06a.62.62,0,0,0-.47-.23,1,1,0,0,0-.61.29,2.44,2.44,0,0,0-.56.64,1.92,1.92,0,0,1-.57.6l-.35.25a3.58,3.58,0,0,0-1.11,1.11,4.25,4.25,0,0,0-1,2.32,1.06,1.06,0,0,0,.22.87A1.19,1.19,0,0,0,44,360a1.52,1.52,0,0,0,.32,0c.25,0,.4,0,.78.29l.31.2a.91.91,0,0,0-.14.47.61.61,0,0,0,.34.55,1.88,1.88,0,0,0,1.12,0c.3.06,1.06.21,1.56.29.24,0,.79.49,1.46,1.38a5.69,5.69,0,0,1,.55,1.22.5.5,0,0,0,.56.33l.21,0c.07,0,.12,0,.14,0a1.11,1.11,0,0,0,.22.92,1.38,1.38,0,0,0,1.11.36,1,1,0,0,0,.42-.09,1.36,1.36,0,0,0,1.06.62h.17a5.6,5.6,0,0,1,1.84,0,1,1,0,0,0,.94-.28,2,2,0,0,0,.35-1.46v-.21a5.16,5.16,0,0,0-1.58-2.94,2.91,2.91,0,0,1-.56-1.93c0-.2,0-.4,0-.61a7.25,7.25,0,0,1,.18-2l.47-.65a10.66,10.66,0,0,1,1.73-1.75l.29-.25a14.58,14.58,0,0,1,3-1.69l.92-.44a29,29,0,0,0,2.69-1.75c.78-.55,1.53-1.06,1.92-1.28a22.18,22.18,0,0,0,3.79-3.35,8.52,8.52,0,0,1,1.72-1.19,9.23,9.23,0,0,0,1.59-1.08,3.3,3.3,0,0,0,.86-3A9.94,9.94,0,0,0,71.88,337c-.32-.28-.58-.54-.85-.79a18.15,18.15,0,0,0-1.47-1.31c-.62-.49-.74-.78-.76-.84a.49.49,0,0,0-.23-.45l-.83-.52a51,51,0,0,1-4.82-3.69,25.57,25.57,0,0,0-2.34-1.85c-.65-.48-1.46-1.08-1.58-1.23a2.11,2.11,0,0,1,.25-.74c.09-.2.18-.4.24-.58.17-.51.32-.66,1.13-1.48a4.6,4.6,0,0,0,.81-1.07,4.77,4.77,0,0,1,.87-1.13,14.2,14.2,0,0,0,1.58-2,17.75,17.75,0,0,1,1.47-1.94,6.75,6.75,0,0,0,.76-1.08h.36a7.84,7.84,0,0,0,1.53-.14,7.81,7.81,0,0,1,1.56-.12h1.89a35.47,35.47,0,0,1,3.55.3l1,.11c.23,0,.46,0,.66,0A1.6,1.6,0,0,0,78,316a.92.92,0,0,0,.08-.83c.38.56.92,1.16,1.55,1.16a1,1,0,0,0,.49-.13c.82-.46.88-1.72.87-2.24C81,313,80.73,311.88,80,311.53ZM64.84,298.7a2.92,2.92,0,0,0,.46-1.17c.56,0,.92.11,1.35-.4s.1-2.09,1.15-2.51,1.67-.21,2,.73.42.84,1.15.84.63-1.25,1.77-2.09,2.19-1.25,2.19-2v0l.1.08c.77.69.88,2,.88,3.18a9,9,0,0,1-.28,1.89,2.49,2.49,0,0,0-.11,1.19,4.92,4.92,0,0,1,.12,2.26c0,.07-.06.09-.06.09a.54.54,0,0,1-.24-.09.5.5,0,0,0-.45-.06.5.5,0,0,0-.31.34A5.11,5.11,0,0,1,74,302.1a2,2,0,0,1-.52.56,2.07,2.07,0,0,0-.79,1.11c-.29.86-.46.86-.61.86a1.14,1.14,0,0,1-.26,0,6.34,6.34,0,0,1-1.53-.67.49.49,0,0,0-.53,0,.51.51,0,0,0-.16.19.52.52,0,0,0-.51.22c-.42.52-3,3.24-3,3.24l-1.86-8.43A1.56,1.56,0,0,0,64.84,298.7Zm-20.31,7.24a.47.47,0,0,0-.38.16,22,22,0,0,1-2.84,2.54,17.37,17.37,0,0,0-2.83,3A19.38,19.38,0,0,1,37,313.38a24.29,24.29,0,0,0-3.65,4,7.31,7.31,0,0,1-1.11,1.26A4.63,4.63,0,0,0,31,320.16a.37.37,0,0,1-.13-.25,1.18,1.18,0,0,1,.3-.8.61.61,0,0,0,.14-.58c-.14-.4-.54-.44-1.5-.54a6.53,6.53,0,0,1-2-.38,1.19,1.19,0,0,1-.5-.89,1,1,0,0,1,.17-.75c.1-.1.21-.12.59-.12a4.42,4.42,0,0,0,1.74-.29A7,7,0,0,0,32,314.15a3.43,3.43,0,0,1,.6-.47,4.41,4.41,0,0,1,1.28-.17.49.49,0,0,0,.4-.2c.1-.13,2.43-3.28,3.17-4.65a18.65,18.65,0,0,1,3-4.47l.29-.27c1-.89,1.23-1.12,1.48-1.18l.56-.12c.71-.15,1.79-.38,2.5-.62a5,5,0,0,1,1.31-.29.49.49,0,0,0,.25-.07,11.81,11.81,0,0,0,.07,2.29c.1.66.25,1.48.38,2.17a.48.48,0,0,0-.15,0Zm-5.69,20.61s0-.09,0-.13l.17.44A.42.42,0,0,1,38.84,326.55Zm-1.75,33.22a15.59,15.59,0,0,0-2.52,1.05c-1.4.75-2.87,1.73-4.06,2.53l-.47.32a9.08,9.08,0,0,1-2.45.95,11.74,11.74,0,0,0-2,.69c-1.26.63-2.32,1.24-2.46,2.25a3.8,3.8,0,0,0,.06,1.21A8.62,8.62,0,0,1,20,367.52c-.87-.52-1-2.13-1.1-3.07h.07c.17,0,.68-.27,1.9-1.49a16.94,16.94,0,0,1,1.52-1.33A9.82,9.82,0,0,0,24,360.11c.31-.38.57-.77.83-1.14a9.3,9.3,0,0,1,1.41-1.72,15.72,15.72,0,0,1,3.61-2.31,11.15,11.15,0,0,0,1.37-.71,10.17,10.17,0,0,1,2.24-1.05l.67-.18c.62.44,2.15,3.35,2.82,4.63.31.59.57,1.08.75,1.39h0l0,.05a.86.86,0,0,1,.17.41A7.5,7.5,0,0,1,37.09,359.77Zm10.07-10A13.17,13.17,0,0,0,46,351.48c-.23.38-.45.75-.65,1a2.61,2.61,0,0,1-.68.64,1.4,1.4,0,0,0-.65.79,2.16,2.16,0,0,1-.78,1.2s-.09.06-.29.06l-.37,0-.51,0a2.08,2.08,0,0,0-1.72.79A19.15,19.15,0,0,1,38.28,358l-.44-.83a32.58,32.58,0,0,0-2.58-4.4,4.7,4.7,0,0,0,2.29-1c.77-.77,1.71-3.87,1.81-4.67a14.83,14.83,0,0,0,.11-1.63.49.49,0,0,0-.05-.17,6.51,6.51,0,0,0,1.44-.25,4.76,4.76,0,0,1,4.18.42c.52.42,1.67,1.25,2.51,1.88.38.28.67.52.87.7C47.88,348.82,47.39,349.49,47.16,349.76Zm9.13,15.7h0Zm9.6-17.17c-.44.25-1.2.78-2,1.34a30.18,30.18,0,0,1-2.57,1.68l-.89.42a15,15,0,0,0-3.29,1.84l-.28.25A11.53,11.53,0,0,0,55,355.75l-.52.73a.49.49,0,0,0-.08.16,8.17,8.17,0,0,0-2.13.44,5.75,5.75,0,0,1-3.55-.63,3.26,3.26,0,0,1-1.5-1.72,1.34,1.34,0,0,0,.38.12,1.9,1.9,0,0,0,1.54-.53l.38-.27.22-.14a11.19,11.19,0,0,0,2.61-2.16,16.19,16.19,0,0,1,1.25-1.35A13.91,13.91,0,0,0,54.82,349l.66-.88c.49-.66,1-1.4,1.53-2a16.45,16.45,0,0,1,2.73-2.52,18.12,18.12,0,0,1,1.66-1.06c.43.15,1.27.44,2.56.92.46.17,1,.34,1.5.52a14.5,14.5,0,0,1,3.63,1.54A20.57,20.57,0,0,1,65.88,348.3Zm3.06-12.65a17.13,17.13,0,0,1,1.4,1.25c.27.26.54.52.88.82a9.38,9.38,0,0,1,2.14,3.09,2.33,2.33,0,0,1-.6,2,9.21,9.21,0,0,1-1.4.93,14.67,14.67,0,0,0-1.58,1,13.48,13.48,0,0,0-4-1.77c-.51-.17-1-.34-1.47-.51l-1.76-.64,1.2-.65a.49.49,0,0,0-.18-.92l-2.7-.28a9.29,9.29,0,0,1,1.6-1.21c1.67-1,3.13-1.67,4-2.61.52-.58,1.11-1.28,1.49-1.73A3.37,3.37,0,0,0,68.94,335.64ZM79.66,315.3c-.23,0-.82-.71-1.18-1.54a1.23,1.23,0,0,0-1.16-.87l-.35,0-.2,0a7.52,7.52,0,0,0-2.1.78.5.5,0,0,0-.27.52.49.49,0,0,0,.43.41,4.71,4.71,0,0,1,2.31.77,3.73,3.73,0,0,1-1.05,0l-1-.11a36.21,36.21,0,0,0-3.66-.31H69.55a9.06,9.06,0,0,0-1.76.14,6.84,6.84,0,0,1-1.16.12l.27-.53,1.27-2.37a5.35,5.35,0,0,0,2.77.52l1.05,0a3.89,3.89,0,0,0,2.07-.42,12.46,12.46,0,0,1,3.12-.89,8.76,8.76,0,0,1,2.39.89,2.18,2.18,0,0,1,.45,1.52C80,314.68,79.86,315.19,79.66,315.3Zm-1.82-.61a3.21,3.21,0,0,0-1.33-.69,1.19,1.19,0,0,1,.27-.07l.33,0,.21,0c.06,0,.14,0,.25.27C77.6,314.21,77.69,314.42,77.84,314.69Zm8.34,47.39,3.06,1v3.25l-3.06,1L84.3,364.7Zm.6-5.52a7.82,7.82,0,1,0,7.82,7.82A7.83,7.83,0,0,0,86.78,356.55Zm3.7,10.6.19,2.62A6.6,6.6,0,0,1,87.05,371l-1.37-2.2-2.63,1.07a6.69,6.69,0,0,1-2.54-3.28l.33.36,1.91-2.27-1.91-2.27-.6.65a6.63,6.63,0,0,1,.92-2.28c.07-.11.14-.22.22-.32l0,0a7.11,7.11,0,0,1,2.27-1.93l-.53,1,2.74,1.11,1.57-2.51-.77-.35h.09a6.64,6.64,0,0,1,4.53,1.79l-.61-.12-.21,3,2.82.7a6.62,6.62,0,0,1-.22,3.47Z"></path>
                  <text class="cls-11" transform="translate(126.13 296.39)">
                    Best GK : Bishal Shrestha(MMC)
                  </text>
                  <text class="cls-11" transform="translate(126.13 325.72)">
                    Best DF : Ranjit Dhimal(TSC)
                  </text>
                  <text class="cls-11" transform="translate(126.13 350.76)">
                    Best MF : Heman Gurung(MMC)
                  </text>
                  <text class="cls-11" transform="translate(126.13 378.76)">
                    Best F
                    <tspan class="cls-12" x="50.61" y="0">W</tspan>
                    <tspan class="cls-13" x="70.5" y="0">
                      : Bharat Khawas (NA )
                    </tspan>
                  </text>
                </g>
              </svg>