<svg xmlns="http://www.w3.org/2000/svg" viewBox="0 0 774.44 683.6"><defs><style>.cls-1,.cls-7{fill:#008ca9;}.cls-1,.cls-15,.cls-16,.cls-17,.cls-18,.cls-2,.cls-3,.cls-4,.cls-5,.cls-6{fill-rule:evenodd;}.cls-2,.cls-8{fill:#fff;}.cls-10,.cls-3{fill:#00004c;}.cls-4,.cls-9{fill:#e03141;}.cls-11,.cls-12,.cls-13,.cls-14,.cls-15,.cls-16,.cls-17,.cls-18,.cls-19,.cls-20,.cls-5,.cls-6{fill:none;stroke-linecap:round;stroke-linejoin:round;}.cls-11,.cls-12,.cls-13,.cls-14,.cls-17,.cls-18,.cls-19,.cls-20,.cls-5,.cls-6{stroke:#fff;}.cls-11,.cls-13,.cls-14,.cls-5{stroke-width:1.89px;}.cls-6{stroke-width:1.88px;}.cls-12{stroke-width:1.95px;}.cls-13{stroke-dasharray:5.82 5.82 5.82 5.82;}.cls-14{stroke-dasharray:5.82 5.82 5.82 5.82 5.82 5.82;}.cls-15{stroke:#008ca9;}.cls-15,.cls-16{stroke-width:2.84px;}.cls-16{stroke:#e03141;}.cls-17{stroke-width:1.81px;}.cls-18{stroke-width:1.89px;}.cls-19{stroke-width:2px;}.cls-20{stroke-width:2.05px;}</style></defs><title>chart-bg</title><g id="Layer_2" data-name="Layer 2"><g id="Layer_1-2" data-name="Layer 1"><path class="cls-1" d="M467.32,205.14l-67.77-67.77L382.1,43.12a95.85,95.85,0,1,0,85.22,162Z"/><path class="cls-2" d="M399.54,137.37l67.77,67.77A95.43,95.43,0,0,0,495,145.57Z"/><path class="cls-3" d="M494,120.8a95.31,95.31,0,0,0-14.36-36.17l-80,52.75L495,145.57A96.24,96.24,0,0,0,494,120.8Z"/><path class="cls-4" d="M399.52,137.42l80-52.75a96,96,0,0,0-97.49-41.5Z"/><polyline class="cls-5" points="34.61 256.67 34.61 273.36 226.07 273.36 226.07 255.63"/><polyline class="cls-5" points="303.28 256.67 303.28 273.36 496.3 273.36 496.3 255.63"/><polyline class="cls-6" points="573.16 256.67 573.16 273.36 764.62 273.36 764.62 255.63"/><rect class="cls-7" x="571.9" y="142.48" width="29.58" height="91.62"/><rect class="cls-7" x="735.4" y="141.83" width="29.58" height="91.62"/><rect class="cls-8" x="615.41" y="127.63" width="29.58" height="106.47"/><rect class="cls-9" x="654.37" y="48.89" width="29.05" height="185.21"/><rect class="cls-10" x="697.1" y="162.8" width="29.58" height="71.3"/><polyline class="cls-5" points="418.57 85.03 418.57 22.95 457.7 22.95"/><line class="cls-11" x1="474.39" y1="117.9" x2="523.43" y2="117.9"/><polyline class="cls-5" points="460.83 174.24 495.26 174.24 495.26 196.16"/><line class="cls-11" x1="572.82" y1="133.03" x2="600.99" y2="133.03"/><line class="cls-11" x1="615.94" y1="119.12" x2="644.81" y2="119.12"/><line class="cls-11" x1="654.55" y1="42" x2="682.37" y2="42"/><line class="cls-11" x1="697.37" y1="157.33" x2="725.54" y2="157.33"/><line class="cls-12" x1="703.37" y1="154.39" x2="729.7" y2="154.39"/><line class="cls-11" x1="560.64" y1="234.59" x2="773.49" y2="234.59"/><circle class="cls-8" cx="249.19" cy="80.17" r="3.13"/><circle class="cls-8" cx="457.7" cy="22.95" r="3.13"/><polyline class="cls-5" points="341.53 137.9 341.53 3.13 302.41 3.13"/><circle class="cls-8" cx="302.41" cy="3.13" r="3.13"/><circle class="cls-8" cx="523.43" cy="117.9" r="3.13"/><circle class="cls-8" cx="474.04" cy="117.9" r="3.13"/><circle class="cls-8" cx="495.26" cy="196.15" r="3.13"/><circle class="cls-8" cx="418.57" cy="85.04" r="3.13"/><circle class="cls-8" cx="341.53" cy="137.9" r="3.13"/><line class="cls-11" x1="37.51" y1="367.94" x2="40.64" y2="367.94"/><line class="cls-13" x1="47.06" y1="367.94" x2="69.54" y2="367.94"/><line class="cls-14" x1="72.75" y1="367.94" x2="763.21" y2="367.94"/><line class="cls-11" x1="766.43" y1="367.94" x2="769.56" y2="367.94"/><polyline class="cls-15" points="38.24 406.37 76.41 406.02 116.06 329.51 191.53 406.71 269.43 330.2 308.04 406.71 423.5 347.24 500.38 406.95 576.53 329.51 615.22 345.33 693.39 330.2"/><polyline class="cls-16" points="38.24 310.64 76.32 368.28 117.44 406.02 191.61 329.68 230.13 406.71 269.43 444.63 307.34 331.24 346.64 407.41 422.98 407.41 499.15 366.72 575.84 406.37 615.14 345.16 654.44 406.37 731.99 443.58"/><path class="cls-10" d="M75.88,446.36a1.57,1.57,0,0,1-1.09-2.69l38.6-37.22,40.76-76.23,77.23,37.28.18.18L268.88,404l75.84-35.32.65.29,77.41,34.86,37.86-75.71,38.78,38.52L538,328.78l.42-.1,77.77-19,37.55,58.17,38.55,37,75.62-58.13a1.56,1.56,0,1,1,1.91,2.48L692.06,409l-40.85-39.3-36.43-56.45-75.19,18.41L499.4,371l-37.9-37.65-37.27,74.53-79.49-35.8-76.49,35.63L229.57,370.1,155.5,334.35l-39.58,74L77,445.93A1.56,1.56,0,0,1,75.88,446.36Z"/><circle class="cls-10" cx="114.66" cy="407.41" r="5.04"/><circle class="cls-10" cx="154.66" cy="332.29" r="5.04"/><circle class="cls-10" cx="230.13" cy="367.76" r="5.04"/><circle class="cls-10" cx="268.04" cy="406.02" r="5.04"/><circle class="cls-10" cx="345.25" cy="369.85" r="5.04"/><circle class="cls-10" cx="499.67" cy="368.81" r="5.04"/><circle class="cls-10" cx="461.06" cy="330.46" r="5.04"/><circle class="cls-10" cx="538.01" cy="330.46" r="5.04"/><circle class="cls-10" cx="422.98" cy="407.41" r="5.04"/><circle class="cls-11" cx="422.98" cy="407.41" r="11.3"/><circle class="cls-11" cx="115.18" cy="407.41" r="11.3"/><circle class="cls-10" cx="653.31" cy="367.76" r="5.04"/><circle class="cls-10" cx="692.17" cy="406.89" r="5.04"/><polyline class="cls-5" points="37.45 291.6 37.45 445.32 770.6 445.32"/><circle class="cls-9" cx="57.52" cy="369.86" r="5.33"/><circle class="cls-9" cx="191.61" cy="329.68" r="5.04"/><circle class="cls-9" cx="230.74" cy="406.63" r="5.04"/><circle class="cls-9" cx="307.17" cy="329.94" r="5.04"/><circle class="cls-9" cx="346.03" cy="406.89" r="5.04"/><circle class="cls-9" cx="575.57" cy="406.37" r="5.04"/><circle class="cls-9" cx="615.22" cy="345.33" r="5.04"/><circle class="cls-9" cx="653.83" cy="407.15" r="5.04"/><circle class="cls-7" cx="115.53" cy="330.33" r="5.04"/><circle class="cls-7" cx="57.89" cy="409.97" r="5.33"/><circle class="cls-7" cx="191.94" cy="406.5" r="5.04"/><circle class="cls-7" cx="268.94" cy="330.42" r="5.04"/><circle class="cls-7" cx="307.2" cy="406.1" r="5.04"/><circle class="cls-7" cx="423.56" cy="347.18" r="5.04"/><circle class="cls-7" cx="500.11" cy="406.37" r="5.04"/><circle class="cls-7" cx="576.91" cy="330.65" r="5.04"/><circle class="cls-11" cx="229.96" cy="368.28" r="11.3"/><circle class="cls-11" cx="500.19" cy="368.81" r="11.3"/><circle class="cls-11" cx="615.48" cy="345.85" r="11.3"/><polyline class="cls-17" points="22.48 666 22.48 682.7 214.63 682.7 214.63 664.96"/><polyline class="cls-18" points="291.14 664.96 291.14 681.65 483.78 681.65 483.78 663.92"/><polyline class="cls-5" points="558.95 664.96 558.95 681.65 751.97 681.65 751.97 663.92"/><rect class="cls-7" x="184.19" y="566.48" width="30.36" height="39.75"/><rect class="cls-8" x="141.07" y="566.48" width="29.58" height="45.44"/><rect class="cls-9" x="103.16" y="566.48" width="29.58" height="96.48"/><rect class="cls-8" x="0.23" y="538.21" width="32.09" height="41.33"/><rect class="cls-9" x="65.14" y="521.57" width="29.58" height="45.44"/><rect class="cls-10" x="103.05" y="496.66" width="29.58" height="70.35"/><line class="cls-11" x1="16.04" y1="566.55" x2="217.97" y2="566.55"/><line class="cls-19" x1="1" y1="532.53" x2="32.25" y2="532.53"/><line class="cls-11" x1="65.43" y1="516.63" x2="94.99" y2="516.63"/><line class="cls-20" x1="103.68" y1="667.22" x2="132.9" y2="667.22"/><line class="cls-11" x1="141.25" y1="615.75" x2="170.81" y2="615.75"/><line class="cls-11" x1="184.37" y1="609.14" x2="213.93" y2="609.14"/><rect class="cls-9" x="291.64" y="511.49" width="133.58" height="10.1"/><rect class="cls-8" x="291.64" y="534.09" width="115.28" height="10.1"/><rect class="cls-7" x="291.64" y="549.05" width="56.92" height="10.1"/><rect class="cls-9" x="291.64" y="573.39" width="96.29" height="10.1"/><rect class="cls-10" x="291.64" y="588.35" width="167.04" height="10.1"/><rect class="cls-8" x="291.64" y="610.96" width="141.95" height="10.1"/><rect class="cls-7" x="291.64" y="625.91" width="184.83" height="10.1"/><polygon class="cls-4" points="559.29 644.61 577.38 529.32 599.98 644.61 559.29 644.61"/><polygon class="cls-4" points="674.85 644.61 692.41 566.88 714.36 644.61 674.85 644.61"/><polygon class="cls-2" points="712.54 644.61 730.86 605.23 753.75 644.61 712.54 644.61"/><polygon class="cls-3" points="636.5 644.61 656.39 490.19 676.28 644.61 636.5 644.61"/><polygon class="cls-1" points="599.46 644.61 618.24 567.67 637.02 644.61 599.46 644.61"/><line class="cls-11" x1="547.82" y1="644.09" x2="762.75" y2="644.09"/><line class="cls-11" x1="290.8" y1="489.5" x2="290.8" y2="643.92"/></g></g></svg>