<svg xmlns="http://www.w3.org/2000/svg" viewBox="0 0 841.89 599.4"><defs><style>.cls-1{isolation:isolate;}.cls-2,.cls-35,.cls-86{fill:#fff;}.cls-3{fill:#892929;}.cls-30,.cls-4{fill:#c7b8c1;}.cls-5{fill:#f74326;}.cls-13,.cls-14,.cls-15,.cls-6{fill:#414342;}.cls-10,.cls-18,.cls-44,.cls-7{fill:#28282b;}.cls-18,.cls-19,.cls-7{stroke:#28282b;}.cls-13,.cls-14,.cls-15,.cls-18,.cls-19,.cls-36,.cls-39,.cls-60,.cls-61,.cls-62,.cls-63,.cls-7,.cls-71,.cls-8,.cls-80,.cls-81,.cls-83{stroke-miterlimit:10;}.cls-14,.cls-19,.cls-7,.cls-8{stroke-width:3.26px;}.cls-8,.cls-9{fill:#1c1c1e;}.cls-8{stroke:#1c1c1e;}.cls-11{fill:#fffdf3;}.cls-12{fill:#42414c;}.cls-13,.cls-14,.cls-15,.cls-39{stroke:#414342;}.cls-13,.cls-39{stroke-width:1.63px;}.cls-15{stroke-width:3.35px;}.cls-16{fill:#313332;}.cls-17,.cls-18,.cls-30,.cls-75{mix-blend-mode:screen;}.cls-18{stroke-width:22.84px;}.cls-19{fill:#1f1f21;}.cls-20{fill:#8a88a0;}.cls-21{fill:#39393f;}.cls-22{fill:#ce2d28;}.cls-23,.cls-24,.cls-57{fill:#ef9149;}.cls-23{opacity:0.8;}.cls-25{fill:#332f2e;}.cls-26{fill:#9d96a3;}.cls-27{fill:#edefee;}.cls-28{fill:#f78f31;}.cls-29{fill:#575b59;}.cls-30,.cls-42{opacity:0.4;}.cls-31,.cls-41{mix-blend-mode:multiply;}.cls-32,.cls-41{fill:#777793;}.cls-33{fill:#3b4d85;}.cls-34{fill:#55a5dc;}.cls-35{opacity:0.6;mix-blend-mode:overlay;}.cls-36,.cls-39,.cls-43,.cls-60,.cls-61,.cls-62,.cls-63,.cls-71,.cls-80,.cls-81{fill:none;}.cls-36,.cls-81{stroke:#edc154;stroke-linecap:square;}.cls-36{stroke-width:4.89px;}.cls-37{fill:#3d3737;}.cls-38{fill:#3b3b3f;}.cls-40,.cls-79{fill:#ffb743;}.cls-43,.cls-83{stroke:#fff;}.cls-43{stroke-linejoin:round;stroke-width:12.06px;}.cls-43,.cls-44,.cls-45,.cls-46,.cls-47,.cls-48,.cls-49,.cls-50,.cls-51,.cls-52,.cls-53,.cls-54,.cls-55,.cls-56,.cls-57,.cls-58,.cls-60,.cls-61,.cls-63,.cls-65,.cls-66,.cls-67,.cls-68,.cls-69,.cls-70,.cls-72,.cls-73,.cls-74,.cls-75,.cls-77,.cls-78,.cls-79,.cls-80{fill-rule:evenodd;}.cls-45{fill:#1b1b1b;}.cls-46,.cls-64{fill:#587398;}.cls-47{fill:#f3ae6d;}.cls-48{fill:#3d3d42;}.cls-49{fill:#010101;}.cls-50{fill:#413f4a;}.cls-51,.cls-75{fill:#94add3;}.cls-52{fill:#587399;}.cls-53{fill:#251d1e;}.cls-54{fill:#333029;}.cls-55{fill:#0f0d11;}.cls-56,.cls-76{fill:#d6d4c5;}.cls-58{fill:#647ea4;}.cls-59{fill:#f5f5f5;}.cls-60{stroke:#1b1b1b;stroke-width:2.84px;}.cls-61{stroke:#f5f5f5;}.cls-61,.cls-62,.cls-63,.cls-80{stroke-linecap:round;}.cls-61,.cls-62,.cls-63{stroke-width:2.53px;}.cls-62,.cls-63{stroke:#eac6a0;}.cls-65{fill:#e89555;}.cls-66{fill:#ef9048;}.cls-67{fill:#ec7a2d;}.cls-68{fill:#ec7a2c;}.cls-69{fill:#894625;}.cls-70{fill:#80291e;}.cls-71{stroke:#6d93bf;stroke-width:1.21px;}.cls-72{fill:#e9e4e0;}.cls-73{fill:#cdc2b9;}.cls-74{fill:#36322b;}.cls-75{opacity:0.2;}.cls-77{fill:#c6c4b0;}.cls-78{fill:#636159;}.cls-80{stroke:#a4d3ed;stroke-width:2.01px;}.cls-81{stroke-width:4.27px;}.cls-82,.cls-85,.cls-90,.cls-91{font-size:52px;}.cls-82{fill:#ff0013;letter-spacing:0.05em;}.cls-82,.cls-90,.cls-91{font-family:FuturaLT-Heavy, Futura LT;}.cls-83{fill:#231f20;}.cls-84{fill:#7ca5d6;}.cls-85{fill:#29537c;}.cls-85,.cls-86{font-family:FuturaLT, Futura LT;}.cls-86{font-size:28px;}.cls-87{letter-spacing:0.02em;}.cls-88{letter-spacing:0em;}.cls-89,.cls-90{fill:#eacb49;}.cls-91,.cls-92{fill:#ce3d3a;}</style></defs><title>trafficFine</title><g class="cls-1"><g id="bg-fine"><rect class="cls-2" width="841.89" height="595.28"/></g><g id="policeman"><polygon class="cls-3" points="695.75 488.25 660.84 488.25 660.84 476.66 691.69 476.66 695.75 488.25"/><polygon class="cls-4" points="685.12 476.66 670.31 476.66 674.37 488.25 654.27 488.25 654.27 488.25 689.17 488.25 685.12 476.66"/><polygon class="cls-5" points="661.1 488.25 639.67 488.25 643.73 476.66 657.04 476.66 661.1 488.25"/><rect class="cls-6" x="645.61" y="488.11" width="50.13" height="4.04"/><path class="cls-7" d="M573.67,541.28c12.95,0,23.44,11.58,23.44,25.86S586.62,593,573.67,593h-8.9"/><path class="cls-7" d="M788.42,542.85c12.95,0,23.44,10.53,23.44,24.81s-10.49,25.86-23.44,25.86H778.8"/><ellipse class="cls-8" cx="564.77" cy="567.38" rx="23.44" ry="25.86"/><path class="cls-8" d="M756.08,567.66c0-14.28,10.5-25.86,23.44-25.86S803,556.17,803,567.66c0,14.28-10.5,25.86-23.44,25.86S756.08,581.94,756.08,567.66Z"/><path class="cls-7" d="M533.1,544.37c12.95,0,23.44,11.58,23.44,25.86S546,595.56,533.1,595.56h-8.9"/><path class="cls-7" d="M747.85,544.37c12.95,0,23.44,11.58,23.44,25.86s-10.49,25.34-23.44,25.34h-9.71"/><polygon class="cls-4" points="779.78 523.43 754.11 490.35 637.66 490.35 604.74 523.23 510.92 535.65 510.92 572.08 833.16 572.08 833.16 530.26 779.78 523.43"/><rect class="cls-9" x="544.64" y="575.07" width="211.74" height="8.45"/><polygon class="cls-10" points="779.78 523.43 833.16 529.74 833.16 572.08 774.78 572.08 743.11 522.91 779.78 523.43"/><polygon class="cls-11" points="743.11 523.43 719.01 490.35 609.88 490.35 570.16 523.23 481.58 536.17 476.34 572.08 793.35 572.08 793.35 530.26 743.11 523.43"/><rect class="cls-10" x="798.17" y="557.62" width="39.71" height="22.06"/><polygon class="cls-12" points="581.87 522.71 611.95 494.01 707.45 494.01 723.66 522.71 581.87 522.71"/><rect class="cls-11" x="650.9" y="491.37" width="5.23" height="33.32"/><rect class="cls-11" x="657.7" y="491.37" width="5.76" height="33.32"/><path class="cls-13" d="M568.06,572.08H476.34l2.44-33.48a3.82,3.82,0,0,1,3.45-2.9l87.93-12.48"/><polygon class="cls-14" points="743.11 523.43 793.35 530.43 793.35 572.08 711.7 572.08 729.29 536.79 743.11 523.43"/><polygon class="cls-15" points="745.65 549.99 551.18 549.99 544.63 536.13 742.5 536.13 745.65 549.99"/><polyline class="cls-15" points="622.81 549.99 553.19 549.99 530.59 536.13"/><polygon class="cls-16" points="798.16 579.68 471.52 579.68 471.52 558.14 568.84 558.14 570.88 572.08 711.27 572.08 714.06 557.62 798.16 557.62 798.16 579.68"/><g class="cls-17"><polygon class="cls-16" points="492.93 558.14 471.52 558.14 471.52 562.41 491.68 562.41 492.93 558.14"/><polygon class="cls-16" points="714.06 557.62 711.41 562.41 798.16 562.41 798.16 557.62 714.06 557.62"/></g><path class="cls-18" d="M547.43,568.65c0-16-11.74-28.93-26.22-28.93S495,552.68,495,568.65a31.43,31.43,0,0,0,2,11h48.49A31.43,31.43,0,0,0,547.43,568.65Z"/><path class="cls-18" d="M762.4,568.65c0-16-11.74-28.93-26.22-28.93S710,552.68,710,568.65a31.44,31.44,0,0,0,2,11h48.49A31.43,31.43,0,0,0,762.4,568.65Z"/><path class="cls-19" d="M547.43,568.65c0-16-11.74-28.93-26.22-28.93S495,552.68,495,568.65a28.58,28.58,0,0,0,2,10.51h48.49A28.58,28.58,0,0,0,547.43,568.65Z"/><path class="cls-19" d="M762.4,568.65c0-16-11.74-28.93-26.22-28.93S710,552.68,710,568.65a31.44,31.44,0,0,0,2,11h48.49A31.43,31.43,0,0,0,762.4,568.65Z"/><path class="cls-20" d="M524.2,592.42c10.91,0,19.78-10,19.78-22.19S535.11,548,524.2,548s-19.78,10-19.78,22.19S513.3,592.42,524.2,592.42Z"/><path class="cls-21" d="M524.2,551.7c8.88,0,16.11,8.31,16.11,18.53s-7.23,18.53-16.11,18.53-16.11-8.31-16.11-18.53,7.23-18.53,16.11-18.53m0-7.33c-12.95,0-23.44,11.58-23.44,25.86s10.5,25.86,23.44,25.86,23.44-11.58,23.44-25.86-10.5-25.86-23.44-25.86Z"/><path class="cls-20" d="M739,592.67c10.91,0,19.78-10,19.78-22.19s-8.87-22.19-19.78-22.19-19.78,10-19.78,22.19S728.05,592.67,739,592.67Z"/><path class="cls-21" d="M739,551.95c8.88,0,16.11,8.31,16.11,18.53S747.84,589,739,589s-16.11-8.31-16.11-18.53,7.23-18.53,16.11-18.53m0-7.33c-12.95,0-23.44,11.58-23.44,25.86S726,596.33,739,596.33s23.44-11.58,23.44-25.86S751.9,544.62,739,544.62Z"/><polygon class="cls-22" points="793.35 543.66 788.57 543.66 788.57 529.38 793.35 529.91 793.35 543.66"/><rect class="cls-3" x="793.35" y="529.92" width="4.78" height="13.74"/><rect class="cls-23" x="802.51" y="566.57" width="5.3" height="3.9"/><rect class="cls-23" x="828.87" y="566.57" width="5.3" height="3.9"/><rect class="cls-24" x="553.19" y="540.99" width="4.78" height="3.9"/><rect class="cls-3" x="828.42" y="529.92" width="4.78" height="13.74"/><polygon class="cls-25" points="746 518.72 726.15 492.44 750.69 492.44 772.12 518.72 746 518.72"/><rect class="cls-26" x="632.49" y="526.24" width="16.32" height="6.16"/><ellipse class="cls-2" cx="748.72" cy="532.21" rx="2.16" ry="1.98"/><rect class="cls-26" x="704.73" y="526.24" width="17.89" height="6.16"/><polygon class="cls-27" points="486 553.43 476.87 553.43 477.91 541.57 488.62 541.57 486 553.43"/><polygon class="cls-28" points="486.52 553.43 482.63 553.43 483.67 541.57 489.14 541.57 486.52 553.43"/><rect class="cls-4" x="806.24" y="542.12" width="16.6" height="12.32"/><polygon class="cls-4" points="648.28 530.31 631.97 530.31 632.49 526.24 648.8 526.24 648.28 530.31"/><polygon class="cls-4" points="722.09 530.31 704.21 530.31 704.73 526.24 722.62 526.24 722.09 530.31"/><path class="cls-21" d="M524.2,580.38c4.19,0,7.74-4.65,7.74-10.15s-3.54-10.15-7.74-10.15-7.74,4.65-7.74,10.15S520,580.38,524.2,580.38Z"/><path class="cls-21" d="M524.2,563.74c1.92,0,4.07,2.78,4.07,6.49s-2.15,6.49-4.07,6.49-4.07-2.78-4.07-6.49,2.15-6.49,4.07-6.49m0-7.33c-6.29,0-11.4,6.2-11.4,13.82S517.92,584,524.2,584s11.4-6.2,11.4-13.82-5.11-13.82-11.4-13.82Z"/><path class="cls-21" d="M739,580.38c4.19,0,7.74-4.65,7.74-10.15s-3.54-10.15-7.74-10.15-7.74,4.65-7.74,10.15S734.76,580.38,739,580.38Z"/><path class="cls-21" d="M739,563.74c1.92,0,4.07,2.78,4.07,6.49s-2.15,6.49-4.07,6.49-4.07-2.78-4.07-6.49,2.15-6.49,4.07-6.49m0-7.33c-6.29,0-11.4,6.2-11.4,13.82S732.67,584,739,584s11.4-6.2,11.4-13.82-5.12-13.82-11.4-13.82Z"/><path class="cls-4" d="M524.2,576.72c-1.92,0-4.07-2.78-4.07-6.49s2.15-6.49,4.07-6.49,4.07,2.77,4.07,6.49S526.13,576.72,524.2,576.72Z"/><path class="cls-4" d="M739,576.72c-1.92,0-4.07-2.78-4.07-6.49s2.15-6.49,4.07-6.49,4.07,2.77,4.07,6.49S740.88,576.72,739,576.72Z"/><rect class="cls-29" x="656.13" y="490.35" width="1.57" height="82.28"/><path class="cls-30" d="M707.45,494h-95.5L590.3,514.67s5.64-.73,17.16-3.46,16.93-2.93,33.68-1.19,16.72,8.5,51.72,5.76c17.09-1.34,19.7-3,26.54-4.25Z"/><g class="cls-31"><path class="cls-32" d="M589.48,521c-4.13-.1-6,1.94-4.1,4.51s6.43,4.69,10.12,4.69,5.54-2,4.1-4.51S593.61,521.07,589.48,521Z"/></g><circle class="cls-33" cx="595.53" cy="542.26" r="5.76"/><circle class="cls-34" cx="595.53" cy="543.05" r="4.44"/><circle class="cls-35" cx="595.53" cy="543.13" r="3.14"/><path class="cls-36" d="M600.76,542.26c0,3.18-2.05,5.76-5.23,5.76s-5.23-2.58-5.23-5.76"/><rect class="cls-6" x="651.98" y="488.11" width="9.65" height="4.04"/><path class="cls-37" d="M665.56,496.11h40.68l13.85,24.51H665.56V496.11M663.46,494v28.7h60.2L707.45,494Z"/><path class="cls-37" d="M612.79,496.11h36v24.51H587.1l25.69-24.51m-.84-2.09-30.08,28.7h69V494Z"/><path class="cls-38" d="M587.39,516.9c0,3.78-2.24,6.87-5,6.87s-5-3.09-5-6.87,2.24-6.87,5-6.87S587.39,513.12,587.39,516.9Z"/><rect class="cls-32" x="581.87" y="510.81" width="8.37" height="12.17" rx="2.36" ry="2.36"/><path class="cls-10" d="M584.23,511.6h3.66a1.57,1.57,0,0,1,1.57,1.57v7.46a1.57,1.57,0,0,1-1.57,1.57h-3.66a1.57,1.57,0,0,1-1.57-1.57v-7.46a1.57,1.57,0,0,1,1.57-1.57m0-1.57a3.15,3.15,0,0,0-3.14,3.14v7.46a3.15,3.15,0,0,0,3.14,3.14h3.66a3.15,3.15,0,0,0,3.14-3.14v-7.46a3.15,3.15,0,0,0-3.14-3.14Z"/><polyline class="cls-39" points="570.88 572.08 568.82 557.62 569.95 523.07"/><circle class="cls-33" cx="729.29" cy="515.33" r="3.43"/><path class="cls-36" d="M732.41,515.33a3.14,3.14,0,1,1-6.24,0"/><polygon class="cls-40" points="484.43 553.43 481.58 553.43 482.63 541.57 487.05 541.57 484.43 553.43"/><path class="cls-2" d="M626.47,545.31h-.89v-1.88h-.48a.86.86,0,0,1-.79-.43,2.34,2.34,0,0,1-.26-1.2,2.29,2.29,0,0,1,.24-1.15.78.78,0,0,1,.72-.4h1.47Zm-.89-4h-.25a.35.35,0,0,0-.34.17.84.84,0,0,0-.09.4.72.72,0,0,0,.1.4.4.4,0,0,0,.36.16h.22Z"/><path class="cls-2" d="M622.55,544.26a1.9,1.9,0,0,1-.51.86,1.18,1.18,0,0,1-.8.27,1.08,1.08,0,0,1-.79-.32,2,2,0,0,1-.49-.89,5.25,5.25,0,0,1-.17-1.46,3.9,3.9,0,0,1,.39-1.9,1.21,1.21,0,0,1,2.18,0,4,4,0,0,1,.39,1.93A4.74,4.74,0,0,1,622.55,544.26Zm-.85-2.58a.49.49,0,0,0-.43-.34.49.49,0,0,0-.44.33,2.51,2.51,0,0,0-.16,1,3.07,3.07,0,0,0,.16,1.18.48.48,0,0,0,.44.33.49.49,0,0,0,.44-.34,3.87,3.87,0,0,0,0-2.21Z"/><path class="cls-2" d="M618.35,545.31H616.1v-1.25h1.38v-3.82h.88Z"/><path class="cls-2" d="M614.7,545.31h-.88v-5.07h.88Z"/><path class="cls-2" d="M610.52,544a.41.41,0,0,0,.38.25.45.45,0,0,0,.4-.31,3.12,3.12,0,0,0,.14-1.15,3,3,0,0,0-.12-1q-.16-.43-.46-.43a.35.35,0,0,0-.24.1.75.75,0,0,0-.18.28,1.72,1.72,0,0,0-.09.34l-.78-.31a2.72,2.72,0,0,1,.46-1.19,1,1,0,0,1,.85-.39,1.17,1.17,0,0,1,1.07.68,4,4,0,0,1,.38,1.93,4.71,4.71,0,0,1-.21,1.55,1.89,1.89,0,0,1-.51.84,1.17,1.17,0,0,1-.76.24,1,1,0,0,1-.63-.2,1.47,1.47,0,0,1-.41-.58,3.67,3.67,0,0,1-.25-1l.77-.41A2.27,2.27,0,0,0,610.52,544Z"/><path class="cls-2" d="M608.18,545.31h-2.41v-1.15h1.52v-1h-1.37v-1h1.37v-.81h-1.48v-1.08h2.36Z"/><path class="cls-41" d="M655.76,572.08h8.41c0-.62,0-1.24.08-1.86.11-2.13.5-4.22.79-6.32.39-2.82.74-5.65,1.06-8.48.26-2.27.48-4.55.73-6.82.06-.53.12-1.07.18-1.6.11-.92.24-1.83.38-2.74.07-.49.2-.68.72-.5a14.23,14.23,0,0,0,1.62.41.35.35,0,0,1,.1.3,44.81,44.81,0,0,0,.6,6.38c.38,3.81.84,7.61,1.24,11.42.31,2.94.61,5.87.87,8.81,0,.34.05.67.08,1h9.56c.14-3.89.25-7,.25-7.79,0-6.62-.3-13.23-.38-19.85,0-3.66-.14-7.33,0-11,.07-2.06.15-4.12.07-6.18l0,0a2.8,2.8,0,0,0,.19-.79c.12-1.43.23-2.87.34-4.31h0c.73-.41,1.54-.67,2.31-1a93.51,93.51,0,0,0,9.43-4.51,15.42,15.42,0,0,0,4.39-3.85c2.17-3-2.9-12-7.17-18.57a.29.29,0,0,0,0-.27,12.18,12.18,0,0,0-1.83-3.57h-36.7c-2.21,3.74-5.46,9.28-6,10.76a49.57,49.57,0,0,0-9.93-9.64c-1.59-1.11-2.77-.79-3.13-.39-1.38,1.55-.91,7.28.56,7.83,2.16.81,2.32,2.43,7.09,7.68,2.08,2.29,4.55,3.61,6.19,3.43,5.13-.57,7.41-10.78,7.43-10.68s0,.28.07.56c.22,2.32.8,6.89,1.1,9.22a1.12,1.12,0,0,1,0,.15s0,0,.07,0c.09.68.14,1.14.15,1.22.18,1.85.47,3.7.46,5.56a2.53,2.53,0,0,1-.65,1.79,2,2,0,0,0,0,2.55c.14.17.35.34.5.5h0a1,1,0,0,1,.13.78l-.24,1.12-.06,0c-.75,0-.75.24-.72,1s.11,1.64.11,2.46a.68.68,0,0,0,.28.52V527s0,0,0,.07,0,.06,0,.08,0,.05,0,.08,0,0,0,.06,0,.17,0,.19c.14,3.36-.55,6.65-.83,10a122.31,122.31,0,0,0-.37,15.58c.18,4.34.29,8.67.48,13C655.79,568,655.8,570.07,655.76,572.08Zm37.54-61.48.06,0-.05,0A.53.53,0,0,0,693.31,510.6Zm-11.07,3.5c.06-.5.06-4.38,0-6.29a46,46,0,0,1,.4-5.09c.14-1.57,0-3.13.07-4.7,1.52,2.1,3.28,4.09,4.6,6.31.81,1.36,1.51,2.78,2.32,4.14.24.39.17.85.33,1.25h0a2.44,2.44,0,0,1-.29.7h0c-.57.44-1.27.66-1.85,1.09a46.55,46.55,0,0,1-5.58,2.6Zm-14.86-14.8.06,0,0,0Zm0-1.11s0,0,0,0h0v0h0Zm-3.26.82h0Zm-1,22.06.06,0,0,0Zm-.19,0v0l0,0Z"/><g class="cls-42"><path class="cls-2" d="M666.22,537.21h-.7v-1.48h-.38a.68.68,0,0,1-.62-.34,1.84,1.84,0,0,1-.2-.94,1.79,1.79,0,0,1,.19-.91.61.61,0,0,1,.56-.32h1.15Zm-.7-3.18h-.2a.27.27,0,0,0-.27.13.66.66,0,0,0-.07.32.57.57,0,0,0,.08.32.31.31,0,0,0,.28.12h.17Z"/><path class="cls-2" d="M663.13,536.38a1.49,1.49,0,0,1-.4.68.93.93,0,0,1-.63.21.85.85,0,0,1-.62-.25,1.6,1.6,0,0,1-.38-.7,4.1,4.1,0,0,1-.13-1.15,3.06,3.06,0,0,1,.3-1.5,1,1,0,0,1,1.72,0,3.13,3.13,0,0,1,.31,1.52A3.72,3.72,0,0,1,663.13,536.38Zm-.67-2c-.08-.18-.2-.26-.34-.26a.39.39,0,0,0-.35.26,2,2,0,0,0-.13.82,2.42,2.42,0,0,0,.12.93.38.38,0,0,0,.35.26.39.39,0,0,0,.34-.26,3.05,3.05,0,0,0,0-1.74Z"/><path class="cls-2" d="M659.84,537.21h-1.78v-1h1.08v-3h.69Z"/><path class="cls-2" d="M657,537.21h-.69v-4H657Z"/><path class="cls-2" d="M653.67,536.15a.32.32,0,0,0,.3.2.35.35,0,0,0,.32-.25,2.46,2.46,0,0,0,.11-.91,2.38,2.38,0,0,0-.09-.79q-.13-.34-.36-.34a.27.27,0,0,0-.19.08.58.58,0,0,0-.14.22,1.33,1.33,0,0,0-.07.27l-.61-.24a2.15,2.15,0,0,1,.36-.94.81.81,0,0,1,.67-.3.92.92,0,0,1,.84.53,3.17,3.17,0,0,1,.3,1.52,3.7,3.7,0,0,1-.17,1.22,1.49,1.49,0,0,1-.4.66.92.92,0,0,1-.6.19.77.77,0,0,1-.5-.16,1.16,1.16,0,0,1-.33-.46,2.91,2.91,0,0,1-.19-.76l.61-.33A1.79,1.79,0,0,0,653.67,536.15Z"/><path class="cls-2" d="M651.83,537.21h-1.89v-.9h1.2v-.79h-1.08v-.81h1.08v-.63H650v-.85h1.86Z"/></g><polygon class="cls-19" points="650.64 492.96 623.54 492.96 583.81 523.23 583.81 576.72 650.64 576.72 650.64 492.96"/><path class="cls-43" d="M648.49,488.31s0,.14,0,.11h0Zm15.57-17.61v0Zm-3.48,20.49h0v0Zm0-1.11v0l0,0Zm-1,23.4h0l0,0Zm-.95-36.62a.42.42,0,0,1,0-.09.23.23,0,0,1,0,.22A.4.4,0,0,1,658.56,476.85Zm-.5,38.44,0,0s0,0,0,0Z"/><g id="eUKhNy"><path class="cls-44" d="M654.82,593.32c0-.37.17-.47.49-.39.51.13.63-.09.63-.58a20,20,0,0,1,.55-4.56c.1-.41,0-.66-.35-.82s-.37-.34-.33-.68a107.31,107.31,0,0,0,.7-12.37,36.37,36.37,0,0,1,.47-5.63,52.32,52.32,0,0,0,.45-6.2c.11-2.13.5-4.22.79-6.32.39-2.82.73-5.65,1.06-8.48.42-3.72.73-7.45,1.29-11.16.07-.49.2-.68.72-.5a8.8,8.8,0,0,0,1.38.31c.25,0,.35.15.34.4a44.77,44.77,0,0,0,.6,6.38c.38,3.81.84,7.61,1.24,11.42.31,2.94.61,5.87.87,8.81.24,2.71.45,5.41.63,8.12.34,5,.47,9.95.61,14.92a1.1,1.1,0,0,1-.37,1,2.78,2.78,0,0,0-.8,2.07c-.06,1.45.16,2.9.18,4.35,0,.32.19.47.54.43.57-.05,1.15-.07,1.72-.09.16,0,.34-.06.47.1a18.66,18.66,0,0,1,2.07-.07,4.4,4.4,0,0,0,1.51-.11,1.12,1.12,0,0,0,.23-.85,27.88,27.88,0,0,0-.35-3.88c-.2-1.95-.36-3.9-.48-5.85s-.24-3.87-.36-5.81c-.09-1.38-.18-2.76-.24-4.14-.43-9.74-.06-19.48-.21-29.22,0-2.78,0-5.57-.19-8.35-.17-3.06-.25-6.14-.7-9.18a15.89,15.89,0,0,0-.48-2.12c-.1-.36,0-.51.36-.5a1.4,1.4,0,0,0,.84-.11c-.11-.27-.11-.28-.48-.29-.87,0-1.74,0-2.61,0h-.55c-.35,0-.52-.15-.52-.51s0-.54,0-.8a10.54,10.54,0,0,0-.2-2.19c-.16-.22-.27,0-.34.07a1.2,1.2,0,0,1-1.38.48,1.23,1.23,0,0,0-1.21.29,1.37,1.37,0,0,1-1.46.26,1.78,1.78,0,0,0-1.09-.06,1.11,1.11,0,0,1-1.3-.53c-.15-.22-.27-.47-.55-.58-.81-.05-1.61-.16-2.42-.15a1.74,1.74,0,0,1-1.34-.47,1.26,1.26,0,0,0-.73-.15,27.65,27.65,0,0,1-4.69-.48c-.32-.06-.24.76-.24.82.14,3.36-.55,6.65-.83,10a122.31,122.31,0,0,0-.37,15.58c.18,4.34.29,8.67.48,13a152.07,152.07,0,0,1-.47,17c-.19,2.89-.21,5.79-.49,8.68a4.72,4.72,0,0,0-.06.76c0,.68-.06,1.24-.85,1.45a.52.52,0,0,0-.36.63c.19,1.61.31,3.22.39,4.84,0,.9.07,1,1,1a.72.72,0,0,1,.78.55.1.1,0,0,0,.13-.07c0-.2.13-.26.34-.25.69,0,1.37.09,2.05.16.92.1,1.84.18,2.75.27a.69.69,0,0,1,.62.35A.11.11,0,0,0,654.82,593.32Z"/><path class="cls-45" d="M670.75,523.6c-.44,0-.88,0-1.32,0-.22,0-.26.08-.2.27a17.41,17.41,0,0,1,.77,3.74c.1.85.19,1.7.23,2.55.13,2.45.29,4.9.34,7.35,0,.87.05,1.75.07,2.62.21,9.85,0,19.7.12,29.55,0,2,.17,4,.3,6,.07,1.05.15,2.11.2,3.16.1,1.89.29,3.78.38,5.67.07,1.34.19,2.68.32,4,.1,1,.27,2,.36,3a5.82,5.82,0,0,1-.07,2.06c.19.19.43.14.66.15a8.6,8.6,0,0,1,1.68.08c.2.07.22-.12.3-.22.91,0,.9,0,.9-.92a46,46,0,0,1,.1-5.67c.06-.48-.3-.53-.58-.62s-.42-.3-.44-.65c-.23-4.66.73-27.13.74-29.61,0-6.62-.3-13.23-.38-19.85,0-3.66-.14-7.33,0-11,.07-2.06.15-4.12.07-6.18-.11-.24-.32-.2-.51-.17s-.43,0-.64,0c-.62,0-.66.11-.71.72-.08,1-.08,1.95-.2,2.92-.08.66-.22.8-.9.81h-1A.73.73,0,0,0,670.75,523.6Z"/><path class="cls-45" d="M671.64,525.53c-2.26.13-5.45.45-5.52-.61s-.19-5.43-.19-5.43l3.89.89,1.17,1.25Z"/><path class="cls-46" d="M680.38,479.66c-.49-.68-1-1.33-1.55-2a6.24,6.24,0,0,0-.69-.85,2,2,0,0,0-1-.48c-.36-.1-.55.21-.76.37a1.07,1.07,0,0,1-1.38.07,42.72,42.72,0,0,0-4.82-2.45,1.2,1.2,0,0,1-.8-.94c-.05-.28-.18-.54-.26-.86.15-.1.41,0,.52-.18-.86-.56-1.64-1.23-2.44-1.86a.36.36,0,0,0-.34,0c-.68.34-1.42.53-2.08.9a.29.29,0,0,0-.06.13,8.18,8.18,0,0,0,1.11,1.79c.22.34.48.65.72,1a.36.36,0,0,1-.1.59c-1,.73-2.11,1.45-3.17,2.16-.24.16-.35.08-.46-.14-.27-.58-.63-1.11-.9-1.69a1.33,1.33,0,0,0-.31-.46c-.16-.14-.49-.72-.54-.56a5.38,5.38,0,0,1-.38,1.63,3,3,0,0,0-.38.71c-.37,3.51.17,6.92.26,10.44,0,1-.2,2-.07,3a.4.4,0,0,0,.05.14c.46.64.46.64,0,1.21-.07.59-.13,1.17-.15,1.76a80.43,80.43,0,0,1-1.19,11.15,54,54,0,0,0-.9,5.74c0,.62-.47.94-.74,1.39a.42.42,0,0,0,.19.48l1.37,1.17a1,1,0,0,0,.82.29.76.76,0,0,0,.5-.51c.12-2.55.57-5.06.91-7.58.07-.53.08-1.08.11-1.61.19-3.15.2-6.31.09-9.46-.1-2.94-.09-5.87,0-8.81,0-2.38.19-4.75.18-7.13a2.17,2.17,0,0,0,0-.61c.14.14.23.31.35.45a.82.82,0,0,0,1.22.17c1-.76,2.2-1.32,3.27-2a1.77,1.77,0,0,0,.37-.26c.55-.64,1.15-.47,1.82-.18,1.38.6,2.77,1.17,4.14,1.79a24.1,24.1,0,0,1,4.34,2.77,1.7,1.7,0,0,1,.38.47q3.6,5.55,6.83,11.31c1.45,2.58,2.79,5.21,4.12,7.85.33.66.62,1.35,1,2a4.36,4.36,0,0,1,.26,1.84c0,.24-.19.39-.35.53a36.58,36.58,0,0,1-3.69,3,49.32,49.32,0,0,1-12.76,6.42,5.08,5.08,0,0,0-1.12.47,1,1,0,0,0,.29,1,6.46,6.46,0,0,0,1.73-.34,10.18,10.18,0,0,0,1.53-.49,1,1,0,0,0,.5-.32c.74-.41,1.54-.67,2.31-1a93.57,93.57,0,0,0,9.43-4.51,15.42,15.42,0,0,0,4.39-3.85C695,500.38,683.4,483.86,680.38,479.66Z"/><path class="cls-46" d="M650.4,501.27c0-.1-.84,0-.81-.14a3,3,0,0,0,0-1.5c-.17-1.7-.39-3.4-.57-5.1-.16-1.5.08-3.33-.06-4.84,0-.49-.44-.65-.48-1.13-.11-.07-.14,0-.19.1"/><path class="cls-45" d="M654.82,593.32h-.14a3.23,3.23,0,0,1-2.4,0c-2.32.7-4.62,1.81-6.95,2.48q-2.41.69-4.87,1.16a5.66,5.66,0,0,1-2.25-.16,1,1,0,0,0-.83,0,.86.86,0,0,0,.13,1.2,38.7,38.7,0,0,0,6.16.28c1.9-.07,3.8-.52,5.7-.68,1.43-.12,2.85-.26,4.28-.35a2.28,2.28,0,0,0,1.17-.25,1.15,1.15,0,0,0,.1-.69C654.91,595.36,654.86,594.34,654.82,593.32Z"/><path class="cls-45" d="M674.91,593.63c-.13,0-.12.15-.21.2a.85.85,0,0,0-.3.27c-.49.55-.49.55-1.18.22a7.52,7.52,0,0,0-.87-.4.58.58,0,0,0-.54,0,6.29,6.29,0,0,1-1.79,1.46c-1.18.65-2.36,1.61-3.61,2.14A9.11,9.11,0,0,1,664,598c-.26,0-.54,0-.8.07a1.66,1.66,0,0,1-1.6-.53,1.3,1.3,0,0,0,.19,1.31,2.77,2.77,0,0,0,.7.06c1.38,0,2.76,0,4.14,0,2.39-.07,4.77-.58,7.16-.52a2.59,2.59,0,0,1,1,.16,14.84,14.84,0,0,0,.12-4C674.94,594.2,674.92,593.92,674.91,593.63Z"/><path class="cls-47" d="M659.5,473.72c.14.2.34.15.53.13"/><path class="cls-48" d="M637.39,596.87c.73,0,1.41.32,2.13.32a17.14,17.14,0,0,0,4.14-.76c2.38-.59,4.71-1.67,7-2.46a7.77,7.77,0,0,0,1.61-.55,1.85,1.85,0,0,0-1.26-.79,3.3,3.3,0,0,0-2.17.17l-.09,0a1,1,0,0,1-.61.81,37,37,0,0,1-4.6,1.32,48.48,48.48,0,0,0-5.53,1.35C637.75,596.41,637.47,596.52,637.39,596.87Z"/><path class="cls-48" d="M661.64,597.49c.12.8.82.69,1.28.67a10.26,10.26,0,0,0,3.41-.49,26.25,26.25,0,0,0,4.67-2.79,1.9,1.9,0,0,0,.85-1c-.32-.35-.78-.12-1.15-.26a3.81,3.81,0,0,0-2,.26,11.86,11.86,0,0,1-2.88,1.72,33,33,0,0,0-3.66,1.25C661.92,597,661.67,597.16,661.64,597.49Z"/><path class="cls-49" d="M654.83,597.07l-4.47.38c-.9.08-2.1.31-3,.36-2.13.12-4,.43-6.12.38a22.31,22.31,0,0,1-3.21-.27c-.17,0-.42-.15-.51.15a1.34,1.34,0,0,0,1.15.62,36.25,36.25,0,0,0,6.46.05,8.67,8.67,0,0,1,1,0c1.82,0,3.64-.37,5.47-.25.87.06,1.75-.06,2.62-.06.3,0,.42-.1.44-.39A6.54,6.54,0,0,0,654.83,597.07Z"/><path class="cls-50" d="M650,518.9c.88.24,5,.24,5.21.35a4.64,4.64,0,0,0,0-1.69,11.94,11.94,0,0,1,.15-2.1c-.31-.35-.88-.28-1.26-.3-1.24-.06-2.48-.17-3.71-.29-.17,0-.34-.27-.48-.16-.75,0-.75.24-.72,1s.11,1.64.11,2.46A.86.86,0,0,0,650,518.9Z"/><path class="cls-51" d="M650,515c1.62.22,3.25.27,4.87.41a3.12,3.12,0,0,1,1,.2c.91-.1,1.3-.05,2.2-.19a4,4,0,0,1,1.11-1.4c.14-.11.27-.3,0-.42a2.47,2.47,0,0,0-.75,0c-2.43,0-4.87-.18-7.3-.11a1.18,1.18,0,0,0-.82.16Z"/><path class="cls-49" d="M674.82,598.5c0-.21-.1-.32-.35-.32-2.24,0-4.47.35-6.71.49-1.78.11-3.57,0-5.36,0-.19,0-.41-.08-.58.1.31.55.87.56,1.37.58a53.9,53.9,0,0,0,7.68-.46c.48,0,.94.25,1.45.18a13.92,13.92,0,0,1,2-.08C674.7,599,674.85,598.87,674.82,598.5Z"/><path class="cls-45" d="M675.8,514c-.68.23-1.35.39-2,.62a20.34,20.34,0,0,1-.21,2.65c-.05.43-.14,1.46-.21,1.89s1.63.47,1.85.1a2.47,2.47,0,0,0,.26-.94C675.58,516.87,675.69,515.43,675.8,514Z"/><path class="cls-52" d="M650.28,513.58l9,.11c.18,0,.28-.09.16-.28a2.67,2.67,0,0,0-1.31-.25,11.83,11.83,0,0,0-2.42-.18l-4.84-.38c-.27,0-.57-.12-.82.07A1.1,1.1,0,0,1,650.28,513.58Z"/><path class="cls-53" d="M668.72,593.93a5.59,5.59,0,0,1,2-.2s0,0,0-.07,0,0,0,0a4.51,4.51,0,0,0-2,.21Z"/><path class="cls-54" d="M673.68,517.22c-.16-.15-.35-.1-.53-.05a24.9,24.9,0,0,1-3.24.54,1.12,1.12,0,0,0-1,.68,12.71,12.71,0,0,1-2.18,3.09c-.13.14-.31.27-.27.51a6.83,6.83,0,0,0-.09,2c0,.31.28.38.49.38h5.66c.51,0,.77-.21.81-.7.09-1.05.18-2.88.19-3.93C673.57,519.25,673.66,517.74,673.68,517.22Z"/><path class="cls-45" d="M666.49,522a15,15,0,0,0,2.73-3.84.41.41,0,0,1,.36-.23c1.38-.18,2.74-.43,4.1-.7.15-.65.58-2.53.19-2.64-.57.13-1.24.37-1.81.5-.12.53-.51.68-1,.76a9.1,9.1,0,0,0-1.92.62c-.32.13-.53.14-.69-.21-.08-.17-.19-.38-.46-.25a3.86,3.86,0,0,0-.54,1.06c-.39.9-.78,1.8-1.17,2.71A19.9,19.9,0,0,0,666.49,522Z"/><path class="cls-55" d="M648.87,592.8a.26.26,0,0,0,.32.06,3,3,0,0,1,3.12.56,2.26,2.26,0,0,0,2.42-.11c.06-.38-.12-.48-.48-.51-1.3-.1-2.59-.25-3.89-.38-.47,0-.94-.05-1.4-.09S649,592.65,648.87,592.8Z"/><path class="cls-55" d="M670.75,593.62v.1l1.11.2a3.06,3.06,0,0,1,1.26.47c.94.47,1.13.41,1.58-.58,0-.28-.27-.2-.43-.2h-3.52Z"/><path class="cls-54" d="M649.13,486.48c-.27,0-.49.07-.5.37-.05,1.31-.27,1.25,1.26,1.18a.56.56,0,0,1,.62.28c.67,1.12,1.81,1.07,2.75.15a2.36,2.36,0,0,1,1.33-.35c1.25-.07,1.38-.14,1.15-1.41-.06-.31-.25-.26-.45-.26h-3.08S650.15,486.5,649.13,486.48Z"/><path class="cls-56" d="M659.1,519.86c.19-.39-.05-.81.09-1.2a3.65,3.65,0,0,0-1.66-.26c-1,0-1,0-1-1,0-.15,0-.3,0-.45a.45.45,0,0,1,.51-.49c.79,0,1.58,0,2.37,0a1.6,1.6,0,0,0,.7,0c.22-.05,1.67-.16,1.69-.41a1.62,1.62,0,0,0-1.27-.88,9.3,9.3,0,0,0-2.42.13c-.74,0-1.47,0-2.21,0a.81.81,0,0,0-.6.19,1.27,1.27,0,0,0-.21.86c.06,1,0,1.94.17,2.9a.92.92,0,0,0,.88.48Z"/><path class="cls-46" d="M658.39,477.2a.51.51,0,0,0,.13-.07c.13-.12.17-.49,0-.57a1.11,1.11,0,0,1-.4-.37,2.39,2.39,0,0,1,.24-2.23.37.37,0,0,0-.44.1c-.57.63-1.16,1.25-1.76,1.86a3.1,3.1,0,0,1-1.1.86.3.3,0,0,0-.23.35.35.35,0,0,0,.36.31l2.26-.16C657.78,477.25,658.09,477,658.39,477.2Z"/><path class="cls-51" d="M641,504.45c5.13-.57,7.41-13.35,7.43-13.24s0,.28.07.56c.29,3.1,1.24,10.26,1.27,10.63.18,1.85.47,3.7.46,5.56a2.53,2.53,0,0,1-.65,1.79,2,2,0,0,0,0,2.55c.14.17.35.34.5.5,1.1.19,7.14.5,7.81.6l1.58.21c.28.07.4,0,.38-.32-.54,0-.82-.4-1.18-.69a10.27,10.27,0,0,1-1.16-1,8,8,0,0,0-1.22,1.29c-.11.13-.21.22-.31.12v-.06a4.65,4.65,0,0,0-.69-1.72,3.09,3.09,0,0,1-.34-2.38c.24-1.08.4-2.19.71-3.26a34.64,34.64,0,0,0,.77-5.29q.33-2.56.57-5.12c.13-1.34.29-2.68.31-4a.7.7,0,0,0-.11-.22c-.32-.46-.32-.47.14-.82a.3.3,0,0,0,.13-.21c0-2,.18-4,.27-6,0-.84.14-1.68.12-2.53s.15-1.92.12-2.88a2,2,0,0,1,.38-1c0-.46-.33-.38-.56-.35-.65.09-1.31,0-2,.15-.26,0-.72.17-.75-.07s.57-.55.75-.71c.58-.54.86-.86,1.43-1.41.34-.33.56-.82,1.1-.9.33-.18.72-.09,1.05-.24.06-.05.08-.13,0-.18-.5-.4,1.26-1.64,1-2.19-.12-.25-2.09.07-2.36.7-.38.88-1,.94-1.95,1.32,0,0,0,0,0,0,.12.72-.41.93-.92,1.14-1.49.61-3,1.18-4.44,1.92-.19.1-.4.07-.58.15a4.14,4.14,0,0,0-2,2.09c-1,1.66-7.19,14.55-8,16.64a49.58,49.58,0,0,0-9.93-9.64c-1.59-1.11-2.77-.79-3.13-.39-1.38,1.55-.91,7.28.56,7.83,2.16.81,2.32,2.43,7.09,7.68C636.93,503.32,639.4,504.63,641,504.45Z"/><path class="cls-51" d="M665,510.62l.31-.1a.16.16,0,0,0,.06-.13c-.08-.72,2.92-1.33,3.26-1.22a22.14,22.14,0,0,0,3.81-1.73c.23-.25,1.64-16.93,2-17.52a.62.62,0,0,1,.2-.22c.58-.29.6-.72.36-1.26-.17-.39,0-.84-.2-1.33.22.32.38.56.52.81s.18.46.44.43.26-.35.33-.56.07-.32.06-.43a6,6,0,0,0-.25,2.55c1.52,2.1,3.28,4.09,4.61,6.32.81,1.36,1.51,2.78,2.32,4.14.23.39.17.85.33,1.25a12.13,12.13,0,0,1,3.38.88.72.72,0,0,1-.74.21c-.28,0-.56-.12-.84-.16-.12,0-.25,0-.32.09s0,.22.09.31.26.27.36.42a1,1,0,0,1,.19.57.44.44,0,0,1-.24.41c-.19.08-.27-.09-.36-.2-.54-.67-1.19-1.24-1.78-1.86-.57.44-1.27.66-1.85,1.09a46.56,46.56,0,0,1-5.58,2.6,21.33,21.33,0,0,0-3.43,1.64L669.62,509a.94.94,0,0,0-.44.33.46.46,0,0,0,.08.38c.73,1.37,1.42,2.77,2.18,4.13.08.14.14.31.32.36a34.29,34.29,0,0,0,3.66-1.29,52.1,52.1,0,0,0,5.33-2.44c2.84-1.51,10.36-4.15,9.08-8.54-.88-3-6.55-14.6-12.43-21.34-2.61-3-7.44-4.47-8.21-4.78l-1.36-.55a.42.42,0,0,0-.51.06,15.68,15.68,0,0,1-2.79,1.82c-.45.27-.88.56-1.31.86s-.83.33-1.21-.15l-.5-.65c0,.29,0,.44,0,.6.06,2.21,0,4.42-.12,6.63-.12,2.94-.1,5.87,0,8.81.05,2.53.06,5.06,0,7.59a50.23,50.23,0,0,1-.65,7.38,24.5,24.5,0,0,0-.44,4.61.36.36,0,0,0,.44-.16c.85-1.15,2.17-1.36,3.42-1.72C664.45,510.84,664.75,510.85,665,510.62Z"/><path class="cls-51" d="M660.08,473.74c.55.16,1.14.26,1.34.92a14,14,0,0,1,1.23,2.19c.21.41.33.54.77.22,1-.74,2-1.43,3.08-2.11.4-.26.42-.47.13-.83a29,29,0,0,1-1.85-2.71A22.37,22.37,0,0,0,660.08,473.74Z"/><path class="cls-50" d="M659.49,518.06l.61-1.59c-1,0-2.22,0-3.26,0-.48,0-.43.19-.47.57s0,1.64.4,1.69l2.43.11Z"/><path class="cls-57" d="M660.6,515.67c.19.12.09.32.18.19l.36-.54c.14-.21.28-.43.08-.69a.61.61,0,0,0-.72-.22c-.68.22-1.35.48-2.06.73.31.14.61-.05.85.15A2,2,0,0,1,660.6,515.67Z"/><path class="cls-58" d="M669,508.58c.28-.14,3.19-1.66,3.41-3.48.17-1.37,1-8.06,1.07-10.57.08-2.08,1.33-7,1.2-7.7a9,9,0,0,1,1,1.5c.23-.18.07-.71.57-1.37a9.8,9.8,0,0,0-.37,2.71c-.16,1.64.06,3.29-.09,4.93a46.11,46.11,0,0,0-.4,5.09c0,2,0,6.3,0,6.34s-4.24,2.22-6.19,3.28c-.24-.34-.47,0-.71-.37C668.41,508.94,668.76,508.72,669,508.58Z"/><path class="cls-45" d="M655.23,519.9c-.16-.11-4.33-.11-5.21-.35a1,1,0,0,1-.41-.23c0-.13-.06-.86.24-.81a27.65,27.65,0,0,0,4.69.48,1.26,1.26,0,0,1,.73.15,1.74,1.74,0,0,0,1.34.47c.81,0,1.61.1,2.42.15l.12.06a1.23,1.23,0,0,1-.06.67l-3-.13A.92.92,0,0,1,655.23,519.9Z"/></g><path class="cls-54" d="M668.58,472.65a2.91,2.91,0,0,0,1.7,1.93,36.57,36.57,0,0,1,4.82,2.46c1,.62,3.53-.59,2.23-1.46a37.24,37.24,0,0,0-5.12-2.8C671.11,472.31,668.42,471.86,668.58,472.65Z"/><path class="cls-54" d="M649.9,476.86a.5.5,0,0,0,.57,0c1.52-.83,3.14-1.4,4.72-2.07.24-.1.47-.22.71-.31.62-.22.86-.59.56-1.22-.06-.17-.1-.37-.37-.25-1.93.9-4,1.51-5.86,2.56C649.49,476,649.52,476.08,649.9,476.86Z"/><circle class="cls-59" cx="669.82" cy="515.49" r="0.52"/><path class="cls-54" d="M658.53,508.87c.21-1.5.5-3,.77-4.47.35-2,.64-4,.84-6,.24-2.4.4-4.8.47-7.2-.4-.36-.92-.25-1.39-.34s-1.11,0-1.66-.09a.3.3,0,0,0-.27.11c-.27,3.56-.76,7.11-1.06,10.66-.2,2.41-.92,4.69-1.34,7a3.31,3.31,0,0,0,.34,2.56,11.89,11.89,0,0,1,.74,1.6c.05.24.2.33.37.14A5.21,5.21,0,0,0,658.53,508.87Z"/><path class="cls-54" d="M681.54,481.28c1.2-.25,3,3.35,3.25,4.51s-3-.78-3.9-3.26C680.53,481.5,681,481.4,681.54,481.28Z"/><path class="cls-60" d="M661.11,532.58c-1.6-.91-2.89-5.06-2.82-12.73"/><path class="cls-45" d="M662.58,532.29a4.47,4.47,0,0,1,.36,2.47,9.19,9.19,0,0,0,.11,1.3,14.34,14.34,0,0,1-1.74-.43c-.52-.18-.64,0-.72.5-.27,1.8-.49,3.6-.68,5.4h0c.3-3.68.33-3.79-1.29-10.87C659.85,532.28,662.23,531.38,662.58,532.29Z"/><path class="cls-61" d="M684.14,484.53a1.87,1.87,0,0,0-.44.2"/><line class="cls-62" x1="676.72" y1="475.18" x2="675.18" y2="475.94"/><polyline class="cls-63" points="652.19 474.6 651.19 475.28 650.64 475.81"/><path class="cls-54" d="M653.59,475.1c-1.27.73-3.13,1.61-3.08,1.31s.75-1.23,2.37-2Z"/><path class="cls-64" d="M667,470.42a3.94,3.94,0,0,0-1.77,0c-.39.17,0,.69,0,.69l1.23.7"/><path class="cls-47" d="M658.37,472.56a1.87,1.87,0,0,0,.9,1.49l.48.14a2.07,2.07,0,0,0,.59-.25,19.24,19.24,0,0,1,3.45-1.5.64.64,0,0,0,.34-.22l0-.07"/><path class="cls-65" d="M663.48,470.74a3.05,3.05,0,0,0,.38,1.66c.74-.27,1.59-.61,2.34-.88l0-.13c0-1.81-.23-3.48-.14-5.29s.4-3.87.57-5.81a2.91,2.91,0,0,1,.16-.55l-.83.36c-.2.09-.3,0-.36-.17a.88.88,0,0,1,.15-.74,5.34,5.34,0,0,1,.51-.64,5.27,5.27,0,0,0,1.51-2.67v-.11a7.64,7.64,0,0,1-1.56,2.65,6,6,0,0,1-1.06.87c-.2.1-.31.22-.23.45a.37.37,0,0,1,0,.24c-.45,1-.53,2.12-.89,3.16a7.28,7.28,0,0,1-2.91,3.88,9.71,9.71,0,0,1-4,1.31,10.27,10.27,0,0,1-3.32.21,4.22,4.22,0,0,1-3.92-2.21c-.27-.45,0,.1,0,.19a4.84,4.84,0,0,0,4.54,3.27,18,18,0,0,0,4.3-.13c.22,0,.26,0,.21.24a4.46,4.46,0,0,0,0,.66c.18.15.37.06.55,0,1.14-.23,2.26-.5,3.39-.74s1.27.2,1.11,1.27"/><path class="cls-47" d="M651.74,445.25a15.34,15.34,0,0,0-.7,2.32c-.26,1.36-.53,2.72-.8,4.08,0,.12-.06.24-.09.36a9.38,9.38,0,0,1,2.21,0c.51,0,.56.1.48.61a3.93,3.93,0,0,1-.24,1.75,1.56,1.56,0,0,1-1.1,1,1,1,0,0,1-1.25-.9,9.87,9.87,0,0,1,.11-1.65c-.05-.17-.09-.35-.31-.38-.29,3.12-.51,6.24-.6,9.38,0,.74-.12,3.29.49,4.57.18.06.19.26.29.38,1.34,2,4.07,1.93,5.07,1.86a22.87,22.87,0,0,0,4.08-.65,3.72,3.72,0,0,0,.85-.32,12,12,0,0,0,2-1.35,7.39,7.39,0,0,0,2.09-3.65A20.69,20.69,0,0,0,665,460c.12-.64.53-.83.91-1.15a1.34,1.34,0,0,0,.36-.33c.23-.39.55-.72.79-1.1a6.55,6.55,0,0,0,.82-1.78,3.24,3.24,0,0,0-.58-2.61,1.27,1.27,0,0,0-1.64.07c-.47.46-1,.9-1.45,1.34a1.73,1.73,0,0,0-.52.89,36.46,36.46,0,0,1-1.35-5.21,9.59,9.59,0,0,1,.1-2.72,5.86,5.86,0,0,0,.33-1.7c0-.28-.65-.36-.91-.41a8.2,8.2,0,0,0-3.49,0,21.57,21.57,0,0,1-3.6.53,4.42,4.42,0,0,1-2.71-.57C652,445.26,651.86,445.19,651.74,445.25Z"/><path class="cls-47" d="M664,472.35a16.39,16.39,0,0,1,.12-2.23c0-.39-.11-.51-.49-.51a13,13,0,0,0-2.26.41l-2.42.5a3.77,3.77,0,0,1-.58,2"/><path class="cls-66" d="M656.86,452.91a4.48,4.48,0,0,0,.14,1.88,1.75,1.75,0,0,0,3.38-.29,6.89,6.89,0,0,0,0-1.52c-.14-.1-.29,0-.44,0a13.81,13.81,0,0,1-2.38.11C657.35,453.07,657.13,452.88,656.86,452.91Z"/><path class="cls-66" d="M653,452.59a2.32,2.32,0,0,1-1.93.33,5.29,5.29,0,0,1-.72-.17c-.12.49-.56,2.2.43,2.65a1.3,1.3,0,0,0,1.42-.24A2.92,2.92,0,0,0,653,452.59Z"/><path class="cls-66" d="M654.34,459.24c.67,0,1.14.29,1.3-.17a.45.45,0,0,0-.42-.65c-1,0-2.51-.68-2.62-.56C652.14,458.3,653.6,459.09,654.34,459.24Z"/><path class="cls-67" d="M653.65,464.1c.56,0,.81-.11.82-.44s-.24-.45-.78-.47a2,2,0,0,0-.49,0c-.23.05-.42.18-.39.45a.45.45,0,0,0,.43.43C653.37,464.1,653.51,464.09,653.65,464.1Z"/><path class="cls-68" d="M651.66,461.81a1.33,1.33,0,0,0-.25.14c-.1.08-.21.19-.17.31s3,0,4.34.28c.14,0,.32.14.39,0s-.08-.3-.24-.38a3.88,3.88,0,0,0-1.65-.41A7.46,7.46,0,0,0,651.66,461.81Z"/><path class="cls-69" d="M652.95,452.59c.23-.57.13-.73-.5-.75A6.35,6.35,0,0,0,650,452a.55.55,0,0,0-.1.43c.08.11,0,.18.25.32a4.63,4.63,0,0,0,2.19.27A.75.75,0,0,0,652.95,452.59Z"/><path class="cls-69" d="M656.86,453a1.7,1.7,0,0,0,1.36.3,7.35,7.35,0,0,0,2.2-.23.51.51,0,0,0,.28-.59c-.08-.29-.34-.24-.55-.25l-2.68-.11C656.83,452.06,656.64,452.34,656.86,453Z"/><path class="cls-70" d="M651.77,445.25a4.49,4.49,0,0,0,3.06.75,33.57,33.57,0,0,0,4.37-.66,5.06,5.06,0,0,1,2.76.11c.61.26.61.26.2,2.67s1.45,7.28,1.54,7.48c.26-.78,2-3.39,3.53-2.19a2.36,2.36,0,0,1,.55,2.4,6.12,6.12,0,0,1-1.34,2.47.93.93,0,0,0-.18.22c-.06.17-.21.24-.34.35a1,1,0,0,0-.38,1.06c.08.23.23.35.47.24a2,2,0,0,0,.82-.46c1.32-.79,1.3-.79,1.43-2.31a31.64,31.64,0,0,1,.86-5.06,28.41,28.41,0,0,0,.66-3.75,3.08,3.08,0,0,0-.18-1.06c-.16-.66-.35-1.31-.51-2a.89.89,0,0,0-.47-.59,30.83,30.83,0,0,0-7.93-3c-.47-.11-2.08-.34-2.41-.35l-.83,0a16.78,16.78,0,0,0-5.32,1.11,1.62,1.62,0,0,1-1.25,0c-.22-.09-.26,0-.26.19A3,3,0,0,0,651.77,445.25Z"/><path class="cls-70" d="M661.86,445.21c-1.72,0-1.91-.28-3.26.24a9.76,9.76,0,0,1-5,1.09,6.35,6.35,0,0,0,2.34-.77c.85-.59-.74-1-.74-1s2.45-1.2,2.45-1.11,4.18,1.68,4.18,1.68"/><path class="cls-56" d="M660.51,490.06l-3.14-.22c-.28,0-.52.11-.59.42s.18.47.39.62c1.11.14,2.23.1,3.32.32.26-.07.48-.18.51-.47S660.79,490.2,660.51,490.06Z"/><path class="cls-47" d="M661.46,445.73a6.33,6.33,0,0,1,3.21-.47s-2.78-.46-3.84.06Z"/><path class="cls-71" d="M670,488.2c.06,1.08.19,6.66-.73,7.21-.6.36-5.14.3-5.62-.33-.34-.44-.32-6.65.32-7.28"/><path class="cls-71" d="M656.25,488.2c.06,1.08.19,6.66-.73,7.21-.6.36-5.14.3-5.62-.33-.34-.44-.32-6.65.32-7.28"/><path class="cls-57" d="M658.71,515.14c.14.06.43-.23.59.15h-1.21a.75.75,0,0,1,.29-.76c.32-.28.62-.57.93-.85l.23-.21c.18,0,2-1.91,2.46-2a21.89,21.89,0,0,1,2.91-.81v0a.3.3,0,0,1,.34-.14.5.5,0,0,1,.32.3c.82,1.58,1.67,3.14,2.47,4.73.09.18.29.24.18.45-.59,1.08-1.74,3.41-1.93,3.85a1.71,1.71,0,0,1-1.87.71.72.72,0,0,0-.8.23,1.46,1.46,0,0,1-1.72.34,1.68,1.68,0,0,0-1,0c-.71.13-1.85-.3-2-.81a4.45,4.45,0,0,1,.23-1.57c.08-.27.11-.57.4-.73h0a2.35,2.35,0,0,1,.61-1.56c.17,0,.3-.13.32-.33a2.61,2.61,0,0,0,.62-.78.41.41,0,0,0,0-.51.49.49,0,0,0-.5-.17,3.74,3.74,0,0,0-.77.24,4.47,4.47,0,0,1-1.15.34h0C658.62,515.05,658.55,515.17,658.71,515.14Z"/><path class="cls-47" d="M665,510.62a21.33,21.33,0,0,0-3,.82c-.42.13-2.29,2-2.46,2l-.23.21c-.31.28-.61.58-.93.85a.75.75,0,0,0-.29.76h1.21c-.34,0-.7,0-.68-.17,0,0,.82-.18,1.19-.33a3.74,3.74,0,0,1,.77-.24.49.49,0,0,1,.5.17.41.41,0,0,1,0,.51,6.29,6.29,0,0,0-1.88,3.19c.09.38,3.11-1.15,4.24-1.58.94-.36,1.85-.81,2.79-1.16.4-.15.43-.34.28-.68-.59-1.34-1-2.76-1.48-4.12A1.14,1.14,0,0,1,665,510.62Z"/><path class="cls-54" d="M671.76,514.18c-.84-1.62-2.25-6.22-3.39-5.54-.66.37-1.6.7-2.29,1-.86.39-.94.26-.81.86l2.74,5.16c.06.12.34.58.41.78s.31.34.58.22a10.13,10.13,0,0,1,2.45-.78c.5-.08.7-.33.61-.81Z"/><path class="cls-52" d="M683.21,501.62a2.5,2.5,0,0,1-.3.72c.07.35,1.88,2.36,2.11,2.25a.68.68,0,0,0,.41-.54,1.23,1.23,0,0,0-.36-.91c-.12-.15-.32-.25-.39-.52l.9.19a1.71,1.71,0,0,0,.8,0c.15,0,.15-.45,0-.5A5.46,5.46,0,0,0,683.21,501.62Z"/><path class="cls-72" d="M658.65,453.43c.21.35-.18.78-.46,1.12,1,.11,1.3-.07,1.16-.83C659.27,453.27,658.92,453.47,658.65,453.43Z"/><path class="cls-73" d="M658.19,454.55c-.08-.14-.44-.29-.53-.44C657.64,454.44,657.6,454.58,658.19,454.55Z"/><path class="cls-74" d="M658.09,454.55a.65.65,0,0,0,.55-1.12c-.12,0-.25,0-.37,0-.55,0-.63.13-.64.76A.57.57,0,0,0,658.09,454.55Z"/><path class="cls-72" d="M651.64,453.43c.21.35-.18.78-.46,1.12,1,.11,1.3-.07,1.16-.83C652.26,453.27,651.92,453.47,651.64,453.43Z"/><path class="cls-74" d="M651.09,454.55a.65.65,0,0,0,.55-1.12c-.12,0-.25,0-.37,0-.55,0-.63.13-.64.76A.57.57,0,0,0,651.09,454.55Z"/><path class="cls-75" d="M655,476.09c.81-.77,1.77-1.22,2.23-3a1.63,1.63,0,0,0,.9-.92.64.64,0,0,1,.18-.23,1.85,1.85,0,0,0,.18,1.4c.28.5.67.36.28.5s-.47-.14-.82.25-2.06,2.32-2.57,2.7c0,0-.38.47-.51.37S654.15,476.88,655,476.09Z"/><circle class="cls-76" cx="669.82" cy="515.13" r="0.52"/><path class="cls-46" d="M670.55,488.22c0-.12-.08-1.2-.38-1.21-2-.05-4.09.41-6.12.27-.39,0-.68-.44-.7-.12-.07,1,.11,1.52,1.28,1.5.27,0,.49,0,.65.27a1.7,1.7,0,0,0,2.73.39c.53-.57,1.47-.32,1.61-.32C670.55,489,670.55,489,670.55,488.22Z"/><path class="cls-46" d="M656.86,488.19c0-.12-.13-1.2-.44-1.19-2,0-4.06.59-6.1.54-.39,0-.7-.41-.71-.09,0,1,.18,1.51,1.35,1.45.27,0,.48,0,.66.24a1.7,1.7,0,0,0,2.74.28c.5-.59,1.46-.39,1.59-.39C656.89,489,656.89,489,656.86,488.19Z"/><path class="cls-54" d="M656.63,487.66a3.24,3.24,0,0,1,0-.4c0-.31-.12-.39-.43-.38-2,.09-4.07.21-6.11.2-.39,0-.47.14-.47.51,0,1.15,0,1.15,1.17,1,.27,0,.48,0,.67.26a1.59,1.59,0,0,0,2.76.25c.47-.7,1.44-.49,1.57-.5C656.7,488.58,656.7,488.58,656.63,487.66Z"/><circle class="cls-59" cx="652.85" cy="488.57" r="0.52" transform="translate(-35.57 51.55) rotate(-4.4)"/><path class="cls-58" d="M666,479.14a2.24,2.24,0,0,1,2.13-1.1,2.33,2.33,0,0,1,2.2,1.7,1.09,1.09,0,0,1,.11.22,5.37,5.37,0,0,1-.86,4.5,2,2,0,0,1-2.36.93,2.45,2.45,0,0,1-1.67-1.8h0c-.08-.17-.11-.35-.2-.51A4.86,4.86,0,0,1,666,479.14Z"/><path class="cls-56" d="M669.79,479.54a2.33,2.33,0,0,0-2.2-1.7,2.12,2.12,0,0,0-2.13,1.1,5.47,5.47,0,0,0-.44,4.46h0c.56,1.57,2.59,1.72,3.74.32A4.46,4.46,0,0,0,669.79,479.54Z"/><path class="cls-77" d="M669.79,479.54a5.24,5.24,0,0,1-.6,3.34,3.24,3.24,0,0,1-1.56,1.52,2,2,0,0,1-2.28-.56l-.33-.44a2.45,2.45,0,0,0,1.67,1.8,2,2,0,0,0,2.36-.93,5.37,5.37,0,0,0,.86-4.5A1.13,1.13,0,0,0,669.79,479.54Z"/><path class="cls-78" d="M667.62,483.89c.24-.23.27-.73-1.5-.61-.25,0-.42.16-.36.39C665.88,484.12,667.42,484.08,667.62,483.89Z"/><path class="cls-79" d="M667.14,482.69a1.83,1.83,0,0,0,1.94-1.76c0-1.29-.67-2.19-1.64-2.2a2.3,2.3,0,0,0-2.11,2.23A1.67,1.67,0,0,0,667.14,482.69Z"/><path class="cls-54" d="M670.35,487.8a3,3,0,0,1,0-.4c0-.31-.09-.4-.39-.41-2-.06-4.08-.1-6.11-.27-.39,0-.48.11-.51.47-.07,1.15-.09,1.15,1.09,1.13.27,0,.49,0,.65.31a1.59,1.59,0,0,0,2.73.46c.53-.66,1.47-.38,1.61-.37C670.35,488.72,670.35,488.72,670.35,487.8Z"/><circle class="cls-59" cx="666.51" cy="488.42" r="0.52"/><path class="cls-80" d="M663,477s-1.54-2.9-1.79-3.14a.48.48,0,0,0-.58,0"/><path class="cls-80" d="M654.94,477a38.88,38.88,0,0,0,3.1-3.09c.17-.31.58,0,.58,0"/><path class="cls-54" d="M660.08,473.74l-.59,0a2.49,2.49,0,0,0-1.42.41,2.17,2.17,0,0,0,.24,2.39c.37.25.35.42.07.68a1.51,1.51,0,0,0-.52,1.11c-.16,3.67-.44,7.75-.6,11.43,0,.18-.08.38.11.52a.36.36,0,0,0,.25.15,20.78,20.78,0,0,0,2.48.22.47.47,0,0,0,.41-.15c.12-2.09.19-4.58.19-6.67,0-1.88,0-3.67.09-5.55,0-.33-.08-.78,0-1.1.08-.59.56-2,.61-2.29A1.16,1.16,0,0,0,660.08,473.74Z"/><rect class="cls-16" x="566.34" y="557.62" width="1.72" height="20.74"/><path class="cls-46" d="M627.76,493.66l-.13-.06c.81-1.08,2.76-3.36,3.2-.94.57,3.07,7.72,12.28,10.95,11.24s7.15-14.48,7.15-14.48-.17,1.88-.35,4.09c0,.34,0,.7-.06,1.05,0-.22,0-.35-.06-.47s-2.3,10.1-7.43,10.68c-1.64.18-4.11-1.13-6.19-3.43C630.08,496.09,629.92,494.47,627.76,493.66Z"/><path class="cls-46" d="M627.22,486a1.9,1.9,0,0,1,2.54.93c.72,1.28.95,3.43.29,3.63-1.86.57-2.24,1.1-2.4.85s-.43-.75-.43-.75-.28-.18-.35-1.33-.11-1-.11-1Z"/><polygon class="cls-11" points="631.75 490.35 604.65 490.35 570.16 523.23 568.06 534.7 568.06 576.72 631.75 576.72 631.75 490.35"/><g class="cls-31"><path class="cls-32" d="M578.77,520.17c-4.13-.1-7.15,1.94-6.72,4.51s3.81,4.69,7.5,4.69,6.72-2,6.72-4.51S582.9,520.27,578.77,520.17Z"/></g><polygon class="cls-4" points="631.75 490.35 627.48 490.35 627.48 521.45 622.81 533.7 622.81 576.72 631.75 576.72 631.75 490.35"/><polygon class="cls-12" points="624.42 520.18 624.42 493.49 605.78 493.49 578.77 520.18 624.42 520.18"/><path class="cls-30" d="M602.38,505.42c-3-.31-5.58-.56-7.93-.74l11.33-11.19h18.64v17.14C616.08,509.07,612,506.42,602.38,505.42Z"/><path class="cls-38" d="M583.18,516.9c0,3.78-2.57,6.87-5.71,6.87s-5.71-3.09-5.71-6.87,2.57-6.87,5.71-6.87S583.18,513.12,583.18,516.9Z"/><rect class="cls-32" x="576.79" y="510.87" width="9.73" height="12.06" rx="2.52" ry="2.52"/><path class="cls-10" d="M579.31,511.71H584a1.69,1.69,0,0,1,1.68,1.68v7a1.68,1.68,0,0,1-1.68,1.68h-4.68a1.68,1.68,0,0,1-1.68-1.68v-7a1.69,1.69,0,0,1,1.68-1.68m0-1.68a3.38,3.38,0,0,0-3.37,3.37v7a3.38,3.38,0,0,0,3.37,3.37H584a3.38,3.38,0,0,0,3.37-3.37v-7A3.38,3.38,0,0,0,584,510Z"/><polyline class="cls-6" points="566.58 534.04 622.81 534.04 622.81 550.51 566.71 550.51"/><path class="cls-66" d="M628.61,487.42l-1-.39a1,1,0,0,0-.24.49,15,15,0,0,1-1.36,2.73,11.61,11.61,0,0,1,.12-1.33.79.79,0,0,0-1.23-.84,1.61,1.61,0,0,0-.65.55,16.5,16.5,0,0,0-1.29,2.23c-.41.85-.78,1.72-1.14,2.59,0,.12-.07.3-.25.27s-.13-.18-.17-.29a2.45,2.45,0,0,1-.06-1.72.73.73,0,0,0,0-.74,6.59,6.59,0,0,0-1.2,2.7,38.9,38.9,0,0,1,1.2,4c.14.49.47.73.87.64a.77.77,0,0,0,.52-1c0-.16-.09-.32-.13-.49a1,1,0,0,1-.06-.5c.21,0,.41.17.63.08.38-.16.41-.46.28-.79a4.48,4.48,0,0,0-.74-1.14.56.56,0,0,1-.09-.64c.44-1.08.86-2.16,1.3-3.24.18-.44.81-.91,1-.74.31.37.12.77-.08,1.12a8.93,8.93,0,0,0-1,3c-.06.39-.13.89.33,1.06a.86.86,0,0,0,1-.55c.66-1.36,1.63-2.52,2.36-3.83A8.05,8.05,0,0,0,628.61,487.42Z"/><path class="cls-47" d="M620.18,493.68a23,23,0,0,1,1.23-2.58,8.62,8.62,0,0,1-.25,1c-.26.7.17,1.27.31,1.89,0,.2.22.11.3,0a2.66,2.66,0,0,0,.25-.49,24.38,24.38,0,0,1,2.25-4.55,1.81,1.81,0,0,1,.85-.75c.57-.22,1,.09.91.7s-.14,1.18-.22,1.84a1.94,1.94,0,0,0,.67-.88,8.48,8.48,0,0,0,1.16-2.77,25.11,25.11,0,0,0-2.57-1,4.38,4.38,0,0,0-3.4,2.23,15.75,15.75,0,0,0-1.07,2.72,2.69,2.69,0,0,1-.35.83A1.51,1.51,0,0,0,620.18,493.68Z"/><path class="cls-66" d="M627.64,490.35c.3-.14,2,.49,2-2,0-1.76-1.26-3.33-5.58-2.17,0,0,1.6-.43,2.26.74"/><path class="cls-54" d="M667.39,499.32h0Z"/><ellipse class="cls-33" cx="586.98" cy="541.57" rx="4.39" ry="5.76"/><ellipse class="cls-34" cx="586.98" cy="542.36" rx="3.39" ry="4.44"/><ellipse class="cls-35" cx="586.98" cy="542.44" rx="2.4" ry="3.14"/><path class="cls-81" d="M591,541.57c0,3.18-1.57,5.76-4,5.76s-4-2.58-4-5.76"/><path class="cls-2" d="M610.59,544.62h-.68v-1.88h-.37a.64.64,0,0,1-.61-.43,3,3,0,0,1-.2-1.2,2.89,2.89,0,0,1,.18-1.15.59.59,0,0,1,.55-.4h1.12Zm-.68-4h-.19a.25.25,0,0,0-.26.17,1.05,1.05,0,0,0-.07.4.9.9,0,0,0,.08.4.28.28,0,0,0,.27.16h.17Z"/><path class="cls-2" d="M607.6,543.57a2.08,2.08,0,0,1-.39.86.78.78,0,0,1-.61.27.74.74,0,0,1-.61-.32,2.26,2.26,0,0,1-.37-.89,6.78,6.78,0,0,1-.13-1.46,4.94,4.94,0,0,1,.29-1.9q.29-.68.84-.68t.83.69a5,5,0,0,1,.3,1.93A6.14,6.14,0,0,1,607.6,543.57ZM607,541q-.12-.34-.33-.34t-.34.33a3.2,3.2,0,0,0-.12,1,4,4,0,0,0,.12,1.18q.12.33.34.33c.14,0,.25-.11.33-.34a5,5,0,0,0,0-2.21Z"/><path class="cls-2" d="M604.4,544.62h-1.72v-1.25h1v-3.82h.67Z"/><path class="cls-2" d="M601.61,544.62h-.67v-5.07h.67Z"/><path class="cls-2" d="M598.42,543.28c.07.17.16.25.29.25s.24-.1.31-.31a4,4,0,0,0,.11-1.15,3.91,3.91,0,0,0-.09-1q-.12-.43-.35-.43a.24.24,0,0,0-.18.1.8.8,0,0,0-.14.28,2.09,2.09,0,0,0-.07.34l-.59-.31a3.25,3.25,0,0,1,.35-1.19.72.72,0,0,1,.65-.39q.53,0,.81.68a5.12,5.12,0,0,1,.29,1.93,6.09,6.09,0,0,1-.16,1.55,2.05,2.05,0,0,1-.39.84.76.76,0,0,1-.58.24.64.64,0,0,1-.48-.2,1.53,1.53,0,0,1-.32-.58,4.64,4.64,0,0,1-.19-1l.59-.41A2.85,2.85,0,0,0,598.42,543.28Z"/><path class="cls-2" d="M596.63,544.62H594.8v-1.15H596v-1h-1v-1h1v-.81h-1.13v-1.08h1.8Z"/><polygon class="cls-26" points="620.91 532.41 605.04 532.41 607.36 526.24 622.77 526.24 620.91 532.41"/><polygon class="cls-4" points="620.45 530.31 604.57 530.31 607.36 526.24 622.77 526.24 620.45 530.31"/><text class="cls-82" transform="translate(291.59 74.6)">Latest Fines</text></g><g id="fine1"><path class="cls-83" d="M468.78,119.14a34.5,34.5,0,0,1-25.71,33.36V594.82H425.49V152.5a34.5,34.5,0,1,1,43.29-33.36Z"/><rect class="cls-84" x="416.28" y="160.61" width="36" height="114.98" rx="7.78" ry="7.78"/><rect class="cls-84" x="405.08" y="166.19" width="13.08" height="59.2" rx="6.54" ry="6.54" transform="translate(215.82 607.41) rotate(-90)"/><rect class="cls-84" x="405.08" y="206.19" width="13.08" height="59.2" rx="6.54" ry="6.54" transform="translate(175.82 647.41) rotate(-90)"/><path class="cls-84" d="M374.29,271.55H117.22l-40-53.44,40-53.44h257.1c13.75,0,24.9,9.36,24.9,20.9v65.07C399.22,262.18,388.06,271.55,374.29,271.55Z"/><text class="cls-85" transform="translate(117.78 150.12)">Rs 500 fine</text><text class="cls-86" transform="translate(115.1 205.93)">Simple tra<tspan class="cls-87" x="119.28" y="0">f</tspan><tspan x="127.54" y="0">fic o</tspan><tspan class="cls-87" x="177.91" y="0">f</tspan><tspan class="cls-88" x="186.17" y="0">fences </tspan><tspan x="0" y="33.6">like not wearing helmet</tspan></text></g><g id="fine2"><rect class="cls-89" x="416.28" y="284.61" width="36" height="113.47" rx="7.78" ry="7.78" transform="translate(868.56 682.7) rotate(-180)"/><rect class="cls-89" x="451.53" y="289.12" width="10.83" height="59.2" rx="5.42" ry="5.42" transform="translate(138.23 775.66) rotate(-90)"/><rect class="cls-89" x="451.53" y="322.24" width="10.83" height="59.2" rx="5.42" ry="5.42" transform="translate(105.11 808.79) rotate(-90)"/><path class="cls-89" d="M497,394.09H782.24l44.38-52.74-44.38-52.74H497c-15.26,0-27.63,9.23-27.63,20.62v64.22C469.34,384.85,481.73,394.09,497,394.09Z"/><text class="cls-86" transform="translate(497.46 332.93)">Moderate o<tspan class="cls-87" x="137.17" y="0">f</tspan><tspan class="cls-88" x="145.43" y="0">fences like </tspan><tspan x="0" y="33.6">driving without license</tspan></text><text class="cls-90" transform="translate(486.55 278.61)">Rs 1000 fine</text></g><g id="fine3"><text class="cls-91" transform="translate(98.44 410.35)">Rs 1500 fine</text><rect class="cls-92" x="416.28" y="416.35" width="36" height="113.47" rx="7.78" ry="7.78"/><rect class="cls-92" x="406.2" y="420.85" width="10.83" height="59.2" rx="5.42" ry="5.42" transform="translate(-38.83 862.07) rotate(-90)"/><rect class="cls-92" x="406.2" y="453.98" width="10.83" height="59.2" rx="5.42" ry="5.42" transform="translate(-71.96 895.19) rotate(-90)"/><path class="cls-92" d="M371.55,525.83H86.33L41.94,473.08l44.38-52.74H371.59c15.26,0,27.63,9.23,27.63,20.62v64.22C399.22,516.58,386.84,525.83,371.55,525.83Z"/><text class="cls-86" transform="translate(106.85 464.66)">Driving on wrong lane<tspan x="0" y="33.6">Speeding</tspan></text></g></g></svg>