<svg xmlns="http://www.w3.org/2000/svg" xmlns:xlink="http://www.w3.org/1999/xlink" viewBox="0 0 847.34 593.86"><defs><style>.cls-1{opacity:0.72;fill:url(#linear-gradient);}.cls-11,.cls-2{fill:#fff;}.cls-3,.cls-8{font-size:31.68px;}.cls-12,.cls-15,.cls-18,.cls-3{fill:red;}.cls-3{font-family:FuturaLT-Heavy, Futura LT;}.cls-4{letter-spacing:-0.08em;}.cls-5{letter-spacing:0.02em;}.cls-6{font-family:MyriadPro-Regular, Myriad Pro;}.cls-12,.cls-15,.cls-16,.cls-17,.cls-18,.cls-19,.cls-7,.cls-8{font-family:FuturaLT, Futura LT;}.cls-8{fill:#e3d400;}.cls-10,.cls-13,.cls-14,.cls-9{fill:none;}.cls-9{stroke:#fff;}.cls-10,.cls-11,.cls-13,.cls-14,.cls-9{stroke-miterlimit:10;}.cls-10,.cls-9{stroke-width:11px;}.cls-10{stroke:#000;}.cls-11{stroke:red;stroke-width:10px;}.cls-12{font-size:90.96px;}.cls-13,.cls-14{stroke:#231f20;stroke-width:6px;}.cls-14{stroke-dasharray:12.08 12.08;}.cls-15{font-size:36.1px;}.cls-16{font-size:13.92px;}.cls-17{font-size:14px;}.cls-18{font-size:18.68px;}.cls-19{font-size:12px;}.cls-20{letter-spacing:-0.08em;}.cls-21{letter-spacing:0.02em;}.cls-22{letter-spacing:-0.08em;}.cls-23{letter-spacing:0.02em;}</style><linearGradient id="linear-gradient" x1="861.36" y1="158.84" x2="-8.61" y2="375.51" gradientUnits="userSpaceOnUse"><stop offset="0" stop-color="#3ac4ff"/><stop offset="1" stop-color="#0008e9"/></linearGradient></defs><title>trafficdata</title><g id="bg"><polygon class="cls-1" points="0.64 0 842.53 0 843.17 536.58 0 536.58 0.64 0"/><path class="cls-2" d="M565.64,139.21a50.55,50.55,0,0,1-94.38,32.93,50.54,50.54,0,0,1-5.83.33c-1.3,0-2.59,0-3.87-.15,0,.81.06,1.63.06,2.45a50.54,50.54,0,0,1-95.24,23.59,50.86,50.86,0,0,1-24.61-3.27,50.54,50.54,0,0,1-77.31-39,50.54,50.54,0,0,1,52-86.1,50.61,50.61,0,0,1,49-17.77,50.56,50.56,0,0,1,55.86-8.45,50.57,50.57,0,0,1,59.34-14.57A50.56,50.56,0,0,1,538.8,42.32a50.55,50.55,0,0,1,26.84,96.89Z" transform="translate(0.64)"/><text class="cls-3" transform="translate(330.64 118.11)"><tspan class="cls-4">T</tspan><tspan x="11.75" y="0">ra</tspan><tspan class="cls-5" x="41.28" y="0">f</tspan><tspan x="51.51" y="0">fic</tspan><tspan class="cls-6" x="82.47" y="0"> </tspan><tspan class="cls-7" x="89.18" y="0">Situation</tspan></text><text class="cls-8" transform="translate(350 150.67)">In Nepal</text><path class="cls-9" d="M841.89,478.08,0,560.58" transform="translate(0.64)"/><path class="cls-10" d="M841.89,547.55,425.14,588.39" transform="translate(0.64)"/><polygon class="cls-2" points="117.45 551.42 70.95 551.42 79.95 366.93 107.45 366.93 117.45 551.42"/><path class="cls-11" d="M65.39,289.58,14.73,377.32c-13.41,23.22,3.35,52.25,30.17,52.25H146.22c26.81,0,43.57-29,30.17-52.25l-50.66-87.75C112.32,266.36,78.8,266.36,65.39,289.58Z" transform="translate(0.64)"/><polygon class="cls-2" points="294.14 531.92 842.53 481.75 842.53 540.52 317.58 557.44 294.14 531.92"/><text class="cls-12" transform="translate(78 400.82)">!</text><line class="cls-2" x1="4.55" y1="583.55" x2="847.08" y2="511.55"/><line class="cls-13" x1="4.55" y1="583.55" x2="10.53" y2="583.04"/><line class="cls-14" x1="22.57" y1="582.01" x2="835.08" y2="512.58"/><line class="cls-13" x1="841.1" y1="512.06" x2="847.08" y2="511.55"/></g><g id="car"><path class="cls-2" d="M805,510.41s-52.67-102-99.67-168.52a86,86,0,0,1-36.52,8c-44.87,0-81.26-33.77-81.26-75.41S624,199.1,668.84,199.1s81.28,33.77,81.28,75.42c0,20.3-8.65,38.7-22.7,52.26C760.36,380.35,801.81,457.42,805,510.41Z" transform="translate(0.64)"/><path d="M716.67,498.87a4.16,4.16,0,0,1,2.79-2.09,11.35,11.35,0,0,1,3.41.37,7.77,7.77,0,0,0,1,.17c-.48-.51.09-1.52-.91-1.74l0,0c-.93-.74-1.85-.35-2.88.1.07-.17.08-.27.13-.32a11.37,11.37,0,0,1,4.15-2.35c5.48-1.83,11-1,16.47-.35,8.43,1,16.82,2.38,25.22,3.6,1.79.26,3.57.62,5.36.76a38.15,38.15,0,0,0,4.24-.13l-2.36-1.08.08-.31,3.79.5.07-.18c-1.14-.46-2.27-.92-3.42-1.35a.42.42,0,0,0-.36.18,6.2,6.2,0,0,0-.79,1.79c-.06.45-.26.43-.49.41-.5,0-1-.16-1.5-.24-.05,0-.11,0-.15,0-.21-.18-.41-.49-.63-.51s-.63.29-.93.26c-1-.09-2-.27-2.94-.42l-11.69-1.77-6.33-1c-.13,0-.23-.15-.35-.23h0l7.46,1.14c.73.11,1.46.2,2.19.33a.68.68,0,0,0,.84-.45c.73-1.48,1.5-2.94,2.22-4.42a6.73,6.73,0,0,1,3.43-3.22,20,20,0,0,1,6.57-1.56,115.55,115.55,0,0,1,20-.48,52.1,52.1,0,0,1,16,3.52c6.25,2.61,10.77,7.18,14.21,12.91a32.44,32.44,0,0,1,3.55,8.49,1.36,1.36,0,0,0,.51.78c3.52,2.08,5.16,5.34,5.84,9.22a4,4,0,0,1,.05.9c-.5-2.62-1.15-5.16-3-7.16l-.29.09a2.35,2.35,0,0,0,.19.79,23,23,0,0,1,2.83,6.8,11.45,11.45,0,0,1,.55,3.37c0,.21.21.44.37.63s.5.52.82.84c-1.67.38-3,1.41-4.71,1.15-.63-.09-.93.26-1,.86a19.26,19.26,0,0,1-2.28,6.42,2.81,2.81,0,0,1-3,1.81,1.91,1.91,0,0,0-.61,0,13,13,0,0,1-5.16,0,13.8,13.8,0,0,0-6,.24c-6.68,1.48-13.38,2.87-20.07,4.32-3.26.7-6.5,1.45-9.76,2.15a2.75,2.75,0,0,0-1.75,1.56c-.87,1.43-1.7,2.89-2.7,4.23a13.63,13.63,0,0,1-10.26,5.6,14.62,14.62,0,0,1-7.13-1.69,18.71,18.71,0,0,1-5.92-4.49,3.39,3.39,0,0,0-2.18-1.06c-3.17-.45-6.35-.89-9.49-1.53-5.33-1.08-10.66-2.19-15.94-3.49a76.34,76.34,0,0,1-16.9-6.12,25.87,25.87,0,0,1-6.92-4.94c-.43-.45-1-.73-1.51-1.16a13.55,13.55,0,0,1-1.71-1.82,2.58,2.58,0,0,1-.29-2.48,5.06,5.06,0,0,1,2.63-3.08c1.44-.69,2.8-1.53,4.2-2.31.48-.27.62-.48,0-.83-.31-.18-.45-.63-.61-.87l2.36.18-1.12-.78,1.31-.26,0-.23-3,.24v-.34l-.92-.61.07-.18c.64.49,1.33.91,2.06.34a1.68,1.68,0,0,0,.15-1.78,1.7,1.7,0,0,0-1.9.07c.08-.48.38-1.13.22-1.62s-.81-.86-1.26-1.3c1.28.14,2-.63,2.56-1.7l-.08.65a8.28,8.28,0,0,0,1.26-5.5c-.12-.65-.35-1.27-.54-1.9,0-.15-.18-.3-.15-.42.2-.76-.17-1.09-1.12-1.16a5.46,5.46,0,0,1,.6-.27,45.86,45.86,0,0,1,11.53-1.5,7.24,7.24,0,0,0,1.24-.21c.09.77-.17,1.6.48,2.28l.15-1.9-.33.3-.14-.08.7-1.78Zm-7,18.76.11.4.27-.17a7.61,7.61,0,0,0-.29-2.29l-.25,0q.09,1,.18,2.06l-.68-.35c-.05.16-.17.33-.13.47a.66.66,0,0,0,.32.32A3.67,3.67,0,0,0,709.69,517.63Zm69.18-25.7a.71.71,0,0,0,.89-.77c0-.63-.43-1-1.2-1.17l.29.37-2.21-.67v.23l-.55.6-.64-.7a5.86,5.86,0,0,0-.63,1.92c0,.23.95.45,1.47.64a1,1,0,0,0,.53,0C777.52,492.26,778.19,492.09,778.87,491.92Zm-37.31,29.82c-.91-.3-1.83-.58-2.74-.9-.36-.13-.62-.1-.7.28a19,19,0,0,0-.29,2c-.06.66.38.91.95,1,1,.23,1.91.54,2.87.71a15,15,0,0,0,2.11.12s.06-.11.13-.24l-.64.14a1.6,1.6,0,0,0-.4-2.16c-.42-.36-.88-.67-1.33-1a3.12,3.12,0,0,1,2.32,2.37,7.44,7.44,0,0,0,1-.12c.19,0,.44-.19.48-.34s-.1-.4-.21-.57a1.94,1.94,0,0,0-.41-.35c1-.12,1.09-.08,1,.8,0,.45-.13.9-.21,1.44,1.08-.7.24-1.87.91-2.58L740.61,521l0,.12Zm-13.27.49a8.1,8.1,0,0,1,.7-.77,2.14,2.14,0,0,0-.13-2.47c-1.52-1-1.67-1.82-.54-3.29a3.88,3.88,0,0,0,.48-3c0-.24-.54-.43-.83-.64-.12.17-.32.33-.34.5a32.09,32.09,0,0,0,.28,9.22c0,.16.26.28.4.42l-.41.6c-.43-.29-.75-.68-1.12-.75q-5.71-.94-11.43-1.77c-.3,0-.64.17-1,.27.22-.28.44-.55.65-.83s.39-.43.36-.62a20.23,20.23,0,0,0-.57-3.14,2.91,2.91,0,0,1,.08-2.28,5.78,5.78,0,0,0,.42-4.05c.22.05.44.13.67.16,6,.92,12.07,1.86,18.11,2.75.9.13,1.64.29,1.76,1.36,0,.08.11.15.23.31l-.25-2.83-.27.53a11.12,11.12,0,0,1-.43-5.13c.38-2.29,2.2-3.18,4.34-2.12a6.08,6.08,0,0,0-2.56,2.55c-1.61,3-1,5.79.73,8.48a3.49,3.49,0,0,0,1.05,1,2.48,2.48,0,0,0,3-.09c1-.78,2.21-1.53,2-3.11-.12-1-.25-2-.42-3a8.7,8.7,0,0,0-1.72-4c-.14-.18-.25-.38-.38-.57l.2-.08c2.2,2.68,2.71,5.87,2.67,9.25l.32-.6-.1,1.24c1.67-2.29,1.44-4.74,1.33-7.19.54.41.82.1,1-.31a1.58,1.58,0,0,0-.91-2c-.19-.09-.51.11-.92.21a9.37,9.37,0,0,1-.53-.92,3,3,0,0,0-3.11-1.88l-2.21.09c-1.6.07-3.14.27-3.71,1.9-.78-.13-1.44-.25-2.1-.34l-9.38-1.21c-1.92-.24-3.84-.49-5.76-.7-.24,0-.65.06-.72.21a1,1,0,0,0,.11.82,1.17,1.17,0,0,0,.73.44q8.09,1.11,16.19,2.17a1.22,1.22,0,0,0,.51-.12c0,1,.06,2.22.12,3.41,0,.42-.1.63-.55.58a25.32,25.32,0,0,1-2.58-.29,120.45,120.45,0,0,0-15.17-2.17c-1.29-.11-1.32-.08-1.31,1.23-.39-1.07-.19-1.54,1-2.2a2.33,2.33,0,0,0,.95-2.46c-.2-.65-.49-1.29,0-2,.1-.12,0-.43-.07-.65H717c-.65,1.64-1.31,3.28-1.93,4.93a22,22,0,0,0-1,12.65c0,.2.25.36.38.54-.23.83-.13,1,.68,1.15l9.52,1.78a13,13,0,0,0,2.63.43,3.86,3.86,0,0,1,2.38.43c.11.07.52-.11.6-.27a14.34,14.34,0,0,0,.6-1.61ZM798.81,502l-1,.23c-1-.13-2.06-.28-3.09-.37a4.07,4.07,0,0,0-1,.18l0,.36,12.14,1.91c0-.34.08-.48.09-.63.16-3.35.3-6.7.49-10.05a1.14,1.14,0,0,0-.78-1.28,19.54,19.54,0,0,0-6.31-1.35c-.23,0-.61.3-.74.56-1.33,2.8-2.63,5.62-3.93,8.43a5,5,0,0,0-.17.51,1.37,1.37,0,0,0,.52-.65c1.23-2.65,2.44-5.31,3.69-8,.11-.24.45-.53.67-.52a12.8,12.8,0,0,1,6.6,1.75l-.6,7.83c-1.31,0-2.55,0-3.79-.1s-2.06,0-2.62,1.09C799,502,798.88,502,798.81,502Zm-93.59,19.84c.86-.45,1.95-.58,2.3-1.48a4.4,4.4,0,0,1-.26-.75,14.33,14.33,0,0,0-.19-1.82,1.72,1.72,0,0,1,1-2.14c.66-.38.68-.67.21-1.32a1.39,1.39,0,0,1-.09-.2l.58.19.1-.17c-.41-.3-.79-.75-1.25-.87a8.87,8.87,0,0,0-5.19,0c1,.89,2.43.39,3.71,1-.87.31-.79.8-.53,1.33l.24-.18a1.76,1.76,0,0,1,.27,1.71,5.56,5.56,0,0,1-2.62,2.85c-.58.32-1.18.6-1.75.93a13,13,0,0,0-4.27,3.38,2.5,2.5,0,0,0,.16,3.59,25.57,25.57,0,0,0,3.72,2.73c.59.38,1.06.09,1.43-.7l-.52-.27-1.14-.81c-.22-.25-.44-.48-.65-.74a2.08,2.08,0,0,1,.22-3.16,13.29,13.29,0,0,1,1.75-1.05c.4-.25.78-.53,1.17-.79l-.13.44.15.09ZM729.33,538h0c-.35-.36-.73-.7-1-1.1-.6-.77-1.37-1.49-.8-2.63a9.26,9.26,0,0,1,.56-1.22,5.28,5.28,0,0,1,2.32-2,5,5,0,0,0,2.64-2.52,2.34,2.34,0,0,1,.66-.92,3.11,3.11,0,0,0,1.11-2.53,6.62,6.62,0,0,0,.1-.75c0-1.44.07-2.89-.08-4.32a1.5,1.5,0,0,0-1.68-1.47c.19.37.62.81.58,1.2a20.13,20.13,0,0,1-.62,2.75,13.22,13.22,0,0,1,.41-2.39,1,1,0,0,0-.75-1.28,1,1,0,0,0-1.29.78,3,3,0,0,0,0,.83c0,1.65-.13,3.22-1.53,4.34l-1.66-1a7.26,7.26,0,0,0,.33,1.29.93.93,0,0,1-.44,1.39c-.21-.16-.41-.42-.64-.47-2.31-.49-4.64-.93-7-1.4-1.74-.36-3.48-.74-5.14-1.09.16-.21.41-.51.4-.51-.39-.34-.79-.66-1.2-1l-.14.17.07.87a9.81,9.81,0,0,1-1.59-.14c-1.7-.43-3.38-1-5.09-1.35a2.41,2.41,0,0,0-1.58.16c-1.76,1-3.06,2.6-4.9,3.47a1,1,0,0,0-.27.26,1.78,1.78,0,0,0,0,2.6,4.4,4.4,0,0,0,1.82,1c5.8,1.55,11.61,3.05,17.42,4.57.24.06.48.09.78.14a8.61,8.61,0,0,1,2.57-4.33l-8.9-2.16c2.92.49,5.79,1.14,8.67,1.79.68.16.68.15,1.05-.49l-3.72-.7.89-.9c.23.19.41.46.65.54.63.2,1.3.28,1.92.49a1.92,1.92,0,0,0,1.9-.39,20.51,20.51,0,0,1,2-1.16c-.69.52-1.42,1-2.05,1.56a31.85,31.85,0,0,0-3.63,3.54,3.67,3.67,0,0,0,.32,5.3,20.85,20.85,0,0,0,3.7,2.76C727.52,540.32,729.16,539.29,729.33,538Zm.55-5.89a8.67,8.67,0,0,0-1.58,1.16,2.49,2.49,0,0,0,1.47,3.9c4.16.56,8.32,1.08,12.48,1.61l6.43.83c.22,0,.43.11.82.2l-.77.1v.22c1.88,0,3.76.07,5.63,0a6.89,6.89,0,0,0,2.32-.67,1.66,1.66,0,0,0,.92-1.92c-.22-1.63-2.44-3.82-4-4.22a14.68,14.68,0,0,1-3-1.26,1.59,1.59,0,0,1-.8-1,1.81,1.81,0,0,0-1.37-1.48,22.82,22.82,0,0,0-3.8-1.07c-3-.46-6-.73-9-1.2a1.7,1.7,0,0,0-2.12,1.08,6.62,6.62,0,0,1-3.37,3.47,1.48,1.48,0,0,0-.28.24Zm48.44-.43a19.24,19.24,0,0,0-1.63-9.57,2.65,2.65,0,0,0-.64-.93c-.68-.52-1.43-.94-2.13-1.44a7.72,7.72,0,0,0-10.14,1.35c-5,6.4-6.91,13.54-5.18,21.54a10.69,10.69,0,0,0,2.58,5.12,6.22,6.22,0,0,0,7.16,1.58,12.75,12.75,0,0,0,5.41-4.46A25.67,25.67,0,0,0,778.32,531.68ZM808,493.14c0,.25,0,.39,0,.54,0,3.48-.08,7-.15,10.43,0,.45.2.57.55.66,1,.26,1.91.52,2.86.8,1.74.52,3.48,1.06,5.3,1.62a6.75,6.75,0,0,0,.05-.73c-.09-2.08-.21-4.15-.26-6.23a3.15,3.15,0,0,0-1-2.16,19.41,19.41,0,0,0-6.17-4.51C808.81,493.4,808.42,493.3,808,493.14Zm-45.24-.71-.17,2.21a.58.58,0,0,0,.59.71c1.8.21,3.58.8,5.43.31a1.11,1.11,0,0,1,.3,0c1.25.05,1.3,0,1.41-1.25a.74.74,0,0,0-.65-.92l-4.38-1,1.38-.32a2.74,2.74,0,0,1-.29-.83c0-.54-.15-.75-.72-.63-1.17.26-2.34.47-3.51.72a1.07,1.07,0,0,0-.61.27c-.65.89-1.26,1.81-2,2.89l1.28-.45-.2.7c1.64.43,1.64.43,1.76-1.18,0-.3.06-.61.06-.91a1.55,1.55,0,0,0-.12-.41Zm-44,9.9a1.71,1.71,0,0,0,2,.11,27.63,27.63,0,0,1,4.32-1.36,14.85,14.85,0,0,1,2.73,0,.77.77,0,0,0,.59-.28c.06-.14-.1-.45-.25-.59a6,6,0,0,0-.87-.61c-.75-.5-1.5-1-2.27-1.48a2.9,2.9,0,0,0-1.14-.56c-1.59-.13-3.19-.18-4.79-.22a1,1,0,0,0-.65.27,10.18,10.18,0,0,0-.88,1.05,1.4,1.4,0,0,0-.31,1.58l1.34-2.16.33.18L717.6,501l.31.22-.63.5.62.19-.41.39C717.92,502.83,718.32,502.94,718.74,502.33Zm58.77,5A28.38,28.38,0,0,0,761,503.63c-.12.36-.2.59-.27.82s-.17.61-.26.91a4.18,4.18,0,0,0,.93.12,32.37,32.37,0,0,1,9.72.24C773.21,506.15,775.25,506.77,777.51,507.36Zm-2-18.23a105.28,105.28,0,0,1,19.54,1.09,3.29,3.29,0,0,1-.13.4c-1.26,2.44-2.51,4.88-3.81,7.3a1,1,0,0,1-.84.39c-2-.29-3.91-.64-5.86-1l-3.37-.54,0,.28c1,.18,1.93.37,2.89.54,2.22.39,4.45.76,6.67,1.16a.92.92,0,0,0,1.12-.63c1.25-2.53,2.55-5,3.82-7.55.1-.19.16-.4.25-.61C792.24,489.21,776.64,487.94,775.53,489.13Zm-38.75,27c-.15,1.33-.15,1.34-1.32,1.14-.68-.12-1.34-.29-2-.39-1.56-.23-3.12-.44-4.68-.64-.54-.07-.81.2-.84.73s0,1.06.62,1.11c1.28.11,2.57.13,3.86.22a7.41,7.41,0,0,1,1.56.23c.89.26,1.75.59,2.63.89.33-1.73.33-1.73.9-2.32Zm-.12-13.08a16.73,16.73,0,0,0-2.1-.4q-3.19-.21-6.39-.3c-.85,0-1.77-.4-2.52.39-.08.08-.34,0-.51,0l-.68-.08A17.73,17.73,0,0,0,736.66,503.08ZM726.86,518a11.07,11.07,0,0,0,0-1.48.72.72,0,0,0-.42-.51c-1.84-.36-3.68-.69-5.54-1-.75-.12-.74.55-.86,1s0,.86.56.95,1.3.22,1.95.33Zm93.58,12.19-.23,0a22.81,22.81,0,0,0,.69,2.92c.54,1.44,1.62,1.54,2.58.32a2.38,2.38,0,0,0,.42-.63c.62-1.77,1.24-3.53,1.82-5.32a4.73,4.73,0,0,0,.13-1.29c0-.12-.12-.25-.18-.37-.12.09-.29.16-.36.29a4.6,4.6,0,0,0-.18.58c-.65,1.65-1.3,3.3-2,4.94a1,1,0,0,1-1.22.68,2,2,0,0,1-1-.81A6.27,6.27,0,0,1,820.44,530.17ZM713.81,500.1a40,40,0,0,0-8.55,1.35,10.27,10.27,0,0,0,4.29,1.86c-.11-1.14.1-1.44,1.13-1.75a8.72,8.72,0,0,0,1.33-.36C712.62,500.9,713.17,500.5,713.81,500.1Zm24-7.08v-.22c-.38,0-.75-.07-1.13-.08-2.56-.12-5.13-.18-7.69-.37a4.66,4.66,0,0,0-2.31.6.58.58,0,0,0-.27.48c0,.13.25.32.41.34a4.92,4.92,0,0,0,2.46,0,8.55,8.55,0,0,1,2.25-.18c.33,0,.66,0,1,0l4.12-.41Zm-.75,25.89-.11.23c.12.15.22.37.38.45a5.75,5.75,0,0,0,1.25.52c2.39.58,4.78,1.16,7.19,1.66.32.07.73-.33,1.1-.51-.26-.19-.49-.49-.77-.56-2.27-.52-4.55-1-6.84-1.47C738.55,519.08,737.81,519,737.08,518.91Zm6.13,7.91V527c.91.07,1.82.17,2.74.19a2.45,2.45,0,0,0,.84-.33c-.22-.24-.41-.62-.68-.68q-2.15-.51-4.33-.87a8.6,8.6,0,0,0-2,0c-.25,0-.48.28-.72.43.2.24.35.56.6.7a2.72,2.72,0,0,0,1,.24C741.54,526.72,742.38,526.77,743.21,526.83Zm86.79-2v-.11l-.59-.09a35.29,35.29,0,0,0-8.43.21,1,1,0,0,0-.94.71,6.55,6.55,0,0,1-1.08,1.82,3.94,3.94,0,0,1-1.77,1.2c-1.9.45-3.84.72-5.76,1.07-.25,0-.49.14-.73.21l0,.24a6,6,0,0,0,.77-.05c1.87-.36,3.74-.71,5.61-1.1a3.75,3.75,0,0,0,2.91-2.55A1.6,1.6,0,0,1,822,525.1h.38Zm-33.08-25.34.22-.1a5.83,5.83,0,0,0,.41.91c.19.29.63.77.68.73a3.78,3.78,0,0,0,1.33-1.13,1.39,1.39,0,0,0-.33-1.68A2,2,0,0,0,796,499a.57.57,0,0,0,0,.4c.2.44.44.86.69,1.34C797.27,500.52,797.34,500.07,796.92,499.48Zm-18.75-4.75c.62-.07,1.4.06,1.83-.27a1.28,1.28,0,0,1,1.29-.28,5.92,5.92,0,0,0,3.52-.11c.25-.55.08-.88-.57-1-1-.15-1.9-.35-2.86-.47a1.2,1.2,0,0,0-.76.25C779.79,493.46,779,494.1,778.17,494.73Zm-58.93,21.69c0-.31.07-.48.08-.65,0-1.12,0-1.13-1-1.31-.85-.14-1.7-.25-2.55-.4-.41-.07-.72,0-.79.46s-.26,1,.34,1.16C716.56,516,717.88,516.18,719.24,516.42Zm24.34-18.28a130.63,130.63,0,0,0-17.29-1.28c.24.81.46,1,1.12.9a57.87,57.87,0,0,1,11.55,0Zm46.33,15.94a1.65,1.65,0,0,0,.14-.43c.15-2,.27-4.06.42-6.09,0-.63-.42-.61-.8-.65q-3-.34-6.07-.64c-.86-.09-1.71-.13-2.57-.2,2.12.36,2.12.36,3.25,1.26a10.42,10.42,0,0,1,3.59,4.67c.1.28.28.53.4.8s.2.5.3.76a10,10,0,0,0-4.47-6.95c1.74.15,3.45.36,5.16.57,1,.12,1,.12.85,1.29-.09-.27-.13-.41-.19-.53a2.93,2.93,0,0,0-.22-.33l-.26,0C790.79,509.79,789.78,512,789.9,514.08Zm31,15.48-.2.08c.3.48.5,1.23.92,1.39.64.24,1.11-.42,1.49-.94a5.07,5.07,0,0,0,.32-.6l-.83.21-.08-.15,1.61-2.05c-.64-.13-1.17-.4-1.53-.26a1.18,1.18,0,0,1-1.5-.4c-.37,1.26.71,2,1.08,3.14l-.69-.28.37.59-.15.13ZM822.23,510v-.28c-1.12,0-2.24.08-3.35.08a3,3,0,0,0-2.25,1.26c-.41.45-.12.93.22,1.27s.65.1.91-.25.45-.29.68-.44.4-.28.6-.43a6.29,6.29,0,0,1,1.33-.89A9.86,9.86,0,0,1,822.23,510Zm-51.49-12.57,0-.11c-.92-.16-1.85-.33-2.77-.46-2.21-.32-4.42-.67-6.64-.92a7.83,7.83,0,0,0-1.91.25l0,.21c.6.09,1.19.19,1.79.26a18,18,0,0,0,1.82.14,4.76,4.76,0,0,1,2.9.63c.2.14.58.06.88,0,.6,0,1.19-.18,1.78-.18S770,497.4,770.75,497.46ZM712.69,505l.08-.15c.63,0,1.26,0,1.89-.05s.75-.61.9-1.07c0-.11-.18-.43-.28-.43a35,35,0,0,0-3.61.14.52.52,0,0,0-.25,1A5.17,5.17,0,0,0,712.69,505Zm.32,16.43a8.62,8.62,0,0,0-.25-1.36,1.11,1.11,0,0,0-.56-.59,14.73,14.73,0,0,0-1.53-.46c-.65-.2-1.52.06-1.55.53-.05.68.49.94,1,1.1C711.09,520.9,712,521.15,713,521.42Zm.43-13.29,0-.28c-1,0-2-.06-3,0-.25,0-.6.46-.64.74s.39.5.67.65a4.71,4.71,0,0,0,.95.26c1.71.5,1.79.45,2.07-1.33C713.46,508.18,713.45,508.15,713.44,508.13Zm84.49-22.32c-.18.13-.67.32-.86.68s.74,1.9,1.23,2,1.68-.66,1.72-1.12C800.1,486.48,799.5,486,797.93,485.81Zm-56.69,14.8v-.17l-6.53-.5c-1.17-.09-2.33-.21-3.5-.27-.23,0-.48.22-.72.34a2.83,2.83,0,0,0,.57.61,1.35,1.35,0,0,0,.67,0c.56,0,1.12-.09,1.67-.09Zm48-2.83.15-.22a6.11,6.11,0,0,0-3.64-3,3.61,3.61,0,0,0-2.74.26,4,4,0,0,0-.76.69,2.41,2.41,0,0,0,.4,0,4.78,4.78,0,0,1,6,1.86A2.16,2.16,0,0,0,789.24,497.78Zm4.57,5.26,0,.4,8.94,1.14,0-.23C799.77,503.8,796.88,502.81,793.81,503Zm-20.64,8.36s0,0-.13-.08a8.12,8.12,0,0,0-7.43.76c-.2.13-.28.44-.42.67a2.18,2.18,0,0,0,.73-.13,8.19,8.19,0,0,1,3.78-1.29C770.89,511.27,772.07,511.37,773.17,511.4ZM737.05,520l-.14,0a7.18,7.18,0,0,0,0,.95c.25,1.94.51,3.88.77,5.81a1.13,1.13,0,0,0,.1.44c.08.13.26.31.36.3a.58.58,0,0,0,.42-.32,1.79,1.79,0,0,0,0-.89c-.31-1-.69-1.94-1-2.91a2.46,2.46,0,0,1,.09-2.27c.27-.42.21-.47-.39-.67l-.05.71h-.08Zm-16.8-5.24c.72-.4.72-.4,1.15-1.67a1.67,1.67,0,0,0-1.1-2.12.56.56,0,0,0-.46.31c-.09,1.19-.15,2.38-.18,3.58,0,.14.2.28.31.42l.3-3.88h.24Zm58.68-8.95c.43.23,1,.63,1.71.92a14.58,14.58,0,0,1,6.5,5.23,5.7,5.7,0,0,1,.32.65l.25-.23c-1.54-3.14-4.35-4.87-7.35-6.34A4.19,4.19,0,0,0,778.92,505.77ZM761.22,491l13.31-2.15A58.45,58.45,0,0,0,761.22,491Zm-49.75,18.87-.2.21-.42,3.06c1.31-.34,1.51-.58,1.47-2.26C712.32,510.53,711.77,510.2,711.47,509.87Zm88.42-18.28c-.58.34-.75,1.44-.79,4.63,0,.48-.13,1.07.32,1.48Zm-87.52,24.05V514.2c0-.05,0-.12,0-.15s-.24-.41-.34-.39a3.36,3.36,0,0,0-1.29.32.73.73,0,0,0,.15,1.29A12.42,12.42,0,0,0,712.37,515.64Zm8.39,4.87c1.12-.32,1.1-.32,1-1.36a1.85,1.85,0,0,0-1.48-1.77Zm36,24.17-.2.09a10.57,10.57,0,0,0,4.13,6.07c-.69-1-1.58-1.81-2.23-2.81A30.87,30.87,0,0,1,756.79,544.68Zm-13.11-29.47c-.93,1.3-1.79,2.41-3.31,2.53s-2.5-.83-3.36-1.94a3.25,3.25,0,0,0,3.53,2.29A3.48,3.48,0,0,0,743.68,515.21Zm-32.94.52.18,2.75c.52,0,1,.08,1-.54C711.82,516.25,712.17,516,710.74,515.73Zm10.63-9.53-.15-.07a17.12,17.12,0,0,0-.62,1.69c0,.16.21.4.32.6.36-.21.92-.34,1-.64a1.92,1.92,0,0,0-.08-2.11L721,508l-.19-.06Zm57-16.74c1.19.67,2.58.84,3,2.44a14,14,0,0,0,0-1.74.73.73,0,0,0-.49-.49C780.09,489.57,779.29,489.54,778.35,489.47Zm-41.53,35.26c.08-1.29-.15-1.58-1.15-1.46a.94.94,0,0,0-.59.59c0,.14.24.5.45.59A7.2,7.2,0,0,0,736.82,524.72ZM713,513l2.24-8A22.49,22.49,0,0,0,713,513Zm73.14-6a37.62,37.62,0,0,1,1.85,3.34,38.14,38.14,0,0,1,1.2,3.64A10.57,10.57,0,0,0,786.15,507Zm10.23-6.58-.11-.16-3.23,1c-.51.15-.61.44-.31,1Zm25.11,25.19c.38.71.78,1.17,1.43,1.07a4.23,4.23,0,0,0,1.22-.62l-.11-.26Zm-35.41-25.28c.46-.38,1-.68.94-.81a3.85,3.85,0,0,0-.69-1c-.28.24-.71.44-.79.74S785.82,499.82,786.07,500.31Zm10.62-3.41a6.75,6.75,0,0,0,1.35-.36c.22-.11.48-.5.43-.68a1.21,1.21,0,0,0-.65-.61c-.1,0-.41.2-.52.38A13.1,13.1,0,0,0,796.7,496.91ZM729.34,507l-.3,0-.68,2.37a1.35,1.35,0,0,0,1.31-1.26A3.3,3.3,0,0,0,729.34,507Zm78.75-1.72-.1.41,5,1.18.06-.26Zm-12.09-12,.33.17c.34-.59.7-1.18,1-1.79.06-.12,0-.31,0-.47-.17.07-.43.09-.49.21C796.54,492,796.28,492.65,796,493.28Zm-33.79,27.35-.19-.15c-.56.8-1.62,1.23-1.74,2.37l.18.14Zm-50.08-13.25a1.89,1.89,0,0,0,1-2.47Zm-2.39,7.91.26-.11,0-1.76-.31-.07c-.18.33-.49.66-.49,1S709.55,515,709.74,515.29Zm61.75-19.09.14,0,.85-2-.15-.22c-.23.1-.64.16-.66.29A17.94,17.94,0,0,0,771.49,496.19Zm-56,4.8-.18-.17c-.17.16-.44.3-.48.48a3.13,3.13,0,0,0,0,1c0,.05.22.13.32.11a.36.36,0,0,0,.21-.26C715.43,501.8,715.45,501.4,715.48,501Zm20.29,5.83,1.16-1.77A1.28,1.28,0,0,0,735.77,506.83Zm-31.46,7.83c0,.45-.43,1,.36,1.19a.57.57,0,0,0,.49-.25C705.33,515.12,705,514.73,704.31,514.65Zm6.13-4.5-.44-.05-.33,2.61.36,0Zm65.14-12,.06-.16-2.53-.33,0,.3Zm-55.74,19.38-.23,0,.34,2.91.34,0Zm84.08-12.13v.16l1.6.44.08-1Zm-91.75.21-.31-.17c-.28.48-.56.95-.81,1.44,0,.08.08.24.12.36.12,0,.32-.06.36-.14C711.77,506.61,712,506.11,712.18,505.61Zm77,2.35-.26.09.85,3.8.23,0Zm.56-3v-1l-1.35.65Zm-79.54,8.34h.19l.41-2.67-.19,0Zm.19,2.29h-.2l.21,2.55h.16Zm11.39-4.27,0,.17,2.43.19Z" transform="translate(0.64)"/><path d="M701.13,502.42c-2.12,2.29-1.85,4.86-1.65,7.44a10.73,10.73,0,0,1-1.17-7.34.8.8,0,0,1,1-.68C699.89,502,700.41,502.18,701.13,502.42Zm-2.75,1.84.36.08L699,503l-.33-.07Z" transform="translate(0.64)"/><path d="M734.19,490.69c-2.28.23-4.56.48-6.84.67a10.17,10.17,0,0,1-1.89-.16c-.64-.07-1.18,0-1,.54,0-1.27-1.3-.25-2.07-.78l11.82-.39Z" transform="translate(0.64)"/><path d="M730.21,489.67c-.38.08-.75.2-1.14.25-1.21.17-2.41.34-3.63.46s-2.52.2-3.78.29l0-.24,8.56-.76Z" transform="translate(0.64)"/><path class="cls-2" d="M716.67,498.87l.34-.32-.7,1.78.14.08.33-.3-.15,1.9c-.65-.68-.39-1.51-.48-2.28Z" transform="translate(0.64)"/><path d="M730.21,489.67l5.15-.15v.22l-5.16-.07Z" transform="translate(0.64)"/><path d="M722.95,495.59l.58,1.33-.25.16a4.62,4.62,0,0,1-.46-.67,5.49,5.49,0,0,1-.24-.82l.39,0Z" transform="translate(0.64)"/><path d="M747.66,493a2.31,2.31,0,0,1-.52.05,33.29,33.29,0,0,1-3.66-.62l4.17.58Z" transform="translate(0.64)"/><path d="M728.74,491.62l1.79-.17,0,.22-1.79.16Z" transform="translate(0.64)"/><path class="cls-2" d="M729.86,532.13a1.48,1.48,0,0,1,.28-.24,6.62,6.62,0,0,0,3.37-3.47,1.7,1.7,0,0,1,2.12-1.08c3,.47,6,.73,9,1.2a22.82,22.82,0,0,1,3.8,1.07,1.81,1.81,0,0,1,1.37,1.48,1.59,1.59,0,0,0,.8,1,14.68,14.68,0,0,0,3,1.26c1.59.4,3.81,2.58,4,4.22a1.66,1.66,0,0,1-.92,1.92,6.89,6.89,0,0,1-2.32.67c-1.87.09-3.75,0-5.63,0v-.22l.77-.1c-.38-.1-.6-.17-.82-.2l-6.43-.83c-4.16-.54-8.32-1.06-12.48-1.61a2.49,2.49,0,0,1-1.47-3.9,8.65,8.65,0,0,1,1.58-1.16,1.59,1.59,0,0,0,.52.27c2.5.23,5,.44,7.51.66,1.37.94,3,.87,4.52,1l12,1,1.18.09.09-.24a2.81,2.81,0,0,0-2.08-1.23c-3-.35-6.06-.69-9.1-1-3.34-.31-6.69-.57-10-.82C732.93,531.78,731.36,531.39,729.86,532.13Zm19.92.45c-.31-.81-.7-1.09-1.34-1.13-2.28-.16-4.56-.38-6.84-.54a9.92,9.92,0,0,0-1.51.12v.31Zm-7.53-.36,0-.23c-.22,0-.45,0-.67-.05L733,530.7a5.14,5.14,0,0,0-.84,0v.38Zm-4.45-3.65,2.53-.11C739.52,528.44,738.68,527.63,737.8,528.57Z" transform="translate(0.64)"/><path class="cls-2" d="M778.32,531.68a25.67,25.67,0,0,1-4.58,13.19,12.75,12.75,0,0,1-5.41,4.46,6.22,6.22,0,0,1-7.16-1.58,10.69,10.69,0,0,1-2.58-5.12c-1.72-8,.15-15.15,5.18-21.54a7.72,7.72,0,0,1,10.14-1.35c.7.5,1.45.92,2.13,1.44a2.65,2.65,0,0,1,.64.93A19.24,19.24,0,0,1,778.32,531.68Zm-2.3.6c0-1,0-2,0-3a10.48,10.48,0,0,0-2.26-6.43,5.17,5.17,0,0,0-7-1.11,10.77,10.77,0,0,0-2.53,2.28,19,19,0,0,0-4.22,13,12.88,12.88,0,0,0,1.94,6.72,5.14,5.14,0,0,0,6.35,2,9.59,9.59,0,0,0,4.06-3.25A20,20,0,0,0,776,532.28Z" transform="translate(0.64)"/><path class="cls-2" d="M728.15,526.51a20.32,20.32,0,0,0-2,1.16,1.92,1.92,0,0,1-1.9.39c-.62-.21-1.29-.29-1.92-.49-.24-.08-.43-.34-.65-.54l-.89.9,3.72.7c-.37.65-.37.65-1.05.49-2.87-.65-5.75-1.31-8.67-1.79l8.9,2.16a8.61,8.61,0,0,0-2.57,4.33c-.3-.05-.55-.08-.78-.14-5.81-1.51-11.62-3-17.42-4.57a4.4,4.4,0,0,1-1.82-1,1.78,1.78,0,0,1,0-2.6,1,1,0,0,1,.27-.26c1.84-.87,3.15-2.5,4.9-3.47a2.41,2.41,0,0,1,1.58-.16c1.71.4,3.38.92,5.09,1.35a9.81,9.81,0,0,0,1.59.14l-.07-.87.14-.17c.41.32.81.64,1.2,1,0,0-.24.31-.4.51,1.66.35,3.4.74,5.14,1.09,2.32.47,4.64.92,7,1.4.24,0,.43.31.64.47Zm-5.47,3.17-8.78-2a1.09,1.09,0,0,0,.2.14c2.4.84,4.8,1.66,7.19,2.53A1,1,0,0,0,722.68,529.68Zm-7.5-3.13c1.08.25,2.11.51,3.15.73.16,0,.35-.11.52-.19,0,0,0-.23-.08-.26A11.25,11.25,0,0,0,717,526a8.13,8.13,0,0,0-1.66-.15Zm.74-1.89,0,.15,4.18.32V525Zm4.1,1.68a4.09,4.09,0,0,0-.67.67c-.09.15,0,.39,0,.59.19-.09.47-.15.53-.29A3.86,3.86,0,0,0,720,526.34Z" transform="translate(0.64)"/><path class="cls-2" d="M715.36,509.67c0-1.31,0-1.35,1.31-1.23a120.45,120.45,0,0,1,15.17,2.17,25.32,25.32,0,0,0,2.58.29c.45.05.57-.16.55-.58-.06-1.19-.09-2.38-.12-3.41a1.22,1.22,0,0,1-.51.12q-8.1-1.06-16.19-2.17a1.17,1.17,0,0,1-.73-.44,1,1,0,0,1-.11-.82c.06-.15.48-.23.72-.21,1.92.21,3.84.46,5.76.7l9.38,1.21c.67.09,1.33.21,2.1.34.57-1.63,2.11-1.83,3.71-1.9l2.21-.09a3,3,0,0,1,3.11,1.88,9.37,9.37,0,0,0,.53.92c.41-.1.73-.3.92-.21a1.58,1.58,0,0,1,.91,2c-.21.41-.5.73-1,.31.11,2.46.33,4.9-1.33,7.19l.1-1.24-.32.6c0-3.38-.47-6.56-2.67-9.25l-.2.08c.13.19.24.39.38.57a8.7,8.7,0,0,1,1.72,4c.17,1,.3,2,.42,3,.18,1.58-1,2.33-2,3.11a2.48,2.48,0,0,1-3,.09,3.49,3.49,0,0,1-1.05-1c-1.73-2.69-2.34-5.49-.73-8.48a6.08,6.08,0,0,1,2.56-2.55c-2.14-1.06-4-.17-4.34,2.12a11.12,11.12,0,0,0,.43,5.13l.27-.53.25,2.83c-.12-.16-.22-.23-.23-.31-.12-1.06-.86-1.23-1.76-1.36-6-.89-12.07-1.83-18.11-2.75-.22,0-.44-.11-.67-.16ZM738,508.32a6.63,6.63,0,0,0-.58,4.45c.32-.22.7-.46.76-.76a21.26,21.26,0,0,0,.21-2.35l-.39,0,0-.13.75-.35Zm3,7.64c0-.86-.54-.93-1-.82-.27.07-.47.42-.7.65l.15.26Zm-1.22-6.29c-.66.64-.77,2.12-.19,2.52Zm-1.21,5.89.32,0-.05-1.57-.39,0Z" transform="translate(0.64)"/><path class="cls-2" d="M729.33,538c-.17,1.29-1.81,2.32-2.85,1.67a20.85,20.85,0,0,1-3.7-2.76,3.67,3.67,0,0,1-.32-5.3,31.85,31.85,0,0,1,3.63-3.54c.63-.58,1.37-1,2.05-1.56l0,0a.93.93,0,0,0,.44-1.39,7.26,7.26,0,0,1-.33-1.29l1.66,1c1.4-1.13,1.57-2.69,1.53-4.34a3,3,0,0,1,0-.83,1,1,0,0,1,1.29-.78,1,1,0,0,1,.75,1.28,13.22,13.22,0,0,0-.41,2.39,20.13,20.13,0,0,0,.62-2.75c0-.39-.39-.83-.58-1.2a1.5,1.5,0,0,1,1.68,1.47c.15,1.43.07,2.88.08,4.32a6.62,6.62,0,0,1-.1.75,3.11,3.11,0,0,1-1.11,2.53,2.34,2.34,0,0,0-.66.92,5,5,0,0,1-2.64,2.52,5.28,5.28,0,0,0-2.32,2,9.26,9.26,0,0,0-.56,1.22c-.57,1.14.21,1.86.8,2.63.31.4.69.73,1,1.1a4.87,4.87,0,0,1-2.86-3.64l-.76-.06c-.23,0-.46,0-.68-.07-.84-.15-1.09-.18-1,1,.14,1.79,1.32,3,2.58,4.07a.86.86,0,0,0,1.23.05C728.38,539,728.84,538.46,729.33,538Z" transform="translate(0.64)"/><path class="cls-2" d="M703.57,523.13c-.39.27-.77.54-1.17.79a13.29,13.29,0,0,0-1.75,1.05,2.08,2.08,0,0,0-.22,3.16c.21.25.43.49.65.74a3.39,3.39,0,0,1-1.8-2.32c-.05-.21-.44-.4-.7-.46-.1,0-.41.35-.42.55-.07,1.45,2,3.63,3.47,3.65.42,0,.72-.1.6-.62l.52.27c-.37.79-.84,1.08-1.43.7a25.57,25.57,0,0,1-3.72-2.73,2.5,2.5,0,0,1-.16-3.59,13,13,0,0,1,4.27-3.38c.57-.33,1.17-.61,1.75-.93a5.56,5.56,0,0,0,2.62-2.85,1.76,1.76,0,0,0-.27-1.71l-.24.18c-.26-.54-.34-1,.53-1.33-1.28-.61-2.71-.11-3.71-1a8.87,8.87,0,0,1,5.19,0c.46.12.83.57,1.25.87l-.1.17-.58-.19a1.39,1.39,0,0,0,.09.2c.47.65.45.94-.21,1.32a1.72,1.72,0,0,0-1,2.14,14.33,14.33,0,0,1,.19,1.82,4.4,4.4,0,0,0,.26.75c-.35.9-1.44,1-2.3,1.48Z" transform="translate(0.64)"/><path class="cls-2" d="M808,493.14c.43.15.81.26,1.17.42a19.41,19.41,0,0,1,6.17,4.51,3.15,3.15,0,0,1,1,2.16c.06,2.08.18,4.15.26,6.23a6.75,6.75,0,0,1-.05.73c-1.82-.56-3.56-1.1-5.3-1.62-.95-.28-1.9-.54-2.86-.8-.35-.09-.56-.21-.55-.66.07-3.48.1-7,.15-10.43C808,493.54,808,493.39,808,493.14Zm5.8,10.12.27-3.59.17-2.17c-1.91-1.22-3.48-3.27-6-3.85l.06,7.3C810.38,501,812.57,500.77,813.8,503.27Zm-.22,1.57-3.58-.27v.07l6,2.09-.28-7.44-1-.89c-.13,1.64-.26,3.27-.36,4.91,0,.17.2.37.33.54s.51.62.77.92l-.14.18-1.08,0-.19.9-.24,0Z" transform="translate(0.64)"/><path class="cls-2" d="M762.76,492.43l-.43,0a1.55,1.55,0,0,1,.12.41c0,.3,0,.61-.06.91-.13,1.61-.13,1.61-1.76,1.18l.2-.7-1.28.45c.74-1.09,1.35-2,2-2.89a1.07,1.07,0,0,1,.61-.27c1.17-.25,2.34-.46,3.51-.72.57-.12.73.09.72.63a2.74,2.74,0,0,0,.29.83l-1.38.32,4.38,1a.74.74,0,0,1,.65.92c-.11,1.23-.16,1.31-1.41,1.25a1.11,1.11,0,0,0-.3,0c-1.84.49-3.62-.1-5.43-.31a.58.58,0,0,1-.59-.71Z" transform="translate(0.64)"/><path class="cls-2" d="M718.74,502.33c-.42.61-.81.5-1.25,0l.41-.39-.62-.19.63-.5-.31-.22,1.26-2.78-.33-.18-1.34,2.16a1.4,1.4,0,0,1,.31-1.58,10.18,10.18,0,0,1,.88-1.05,1,1,0,0,1,.65-.27c1.6,0,3.2.09,4.79.22a2.9,2.9,0,0,1,1.14.56c.77.48,1.52,1,2.27,1.48a6,6,0,0,1,.87.61c.15.14.31.45.25.59a.77.77,0,0,1-.59.28,14.85,14.85,0,0,0-2.73,0,27.63,27.63,0,0,0-4.32,1.36A1.71,1.71,0,0,1,718.74,502.33Zm3.31-1.56,5.9,0c-1.35-1.25-4.71-3.08-5.48-3,.38.2,1,.29.45.84l3.27,1.31c-1.61.92-2.87.24-4.05-.38Z" transform="translate(0.64)"/><path class="cls-2" d="M798.81,502c.07,0,.19,0,.21-.06.56-1.12,1.52-1.18,2.62-1.09s2.48.07,3.79.1l.6-7.83a12.8,12.8,0,0,0-6.6-1.75c-.22,0-.56.29-.67.52-1.25,2.64-2.46,5.3-3.69,8a1.37,1.37,0,0,1-.52.65,5,5,0,0,1,.17-.51c1.3-2.82,2.6-5.63,3.93-8.43.12-.26.5-.58.74-.56a19.54,19.54,0,0,1,6.31,1.35,1.14,1.14,0,0,1,.78,1.28c-.19,3.35-.33,6.7-.49,10.05,0,.15,0,.3-.09.63l-12.14-1.91,0-.36a4.07,4.07,0,0,1,1-.18c1,.09,2.06.24,3.09.37l7.43,1.55-.06-.86c-1.74-.13-3.41-.23-5.07-.41A5.5,5.5,0,0,1,798.81,502Z" transform="translate(0.64)"/><path class="cls-2" d="M714.4,520.57c.32-.1.66-.31,1-.27q5.72.84,11.43,1.77c.37.06.69.45,1.12.75l.41-.6,0,0,2.56.2a14.34,14.34,0,0,1-.6,1.61c-.08.16-.5.34-.6.27a3.86,3.86,0,0,0-2.38-.43,13,13,0,0,1-2.63-.43l-9.52-1.78c-.81-.15-.91-.32-.68-1.15Z" transform="translate(0.64)"/><path class="cls-2" d="M714.4,520.57l0,0c-.13-.18-.33-.34-.38-.54a22,22,0,0,1,1-12.65c.62-1.65,1.29-3.29,1.93-4.93h.24c0,.22.17.53.07.65-.53.66-.25,1.3,0,2a2.33,2.33,0,0,1-.95,2.46c-1.15.66-1.35,1.13-1,2.2l0,0a5.78,5.78,0,0,1-.42,4.06,2.91,2.91,0,0,0-.08,2.28,20.23,20.23,0,0,1,.57,3.14c0,.19-.22.43-.36.62S714.62,520.29,714.4,520.57Z" transform="translate(0.64)"/><path class="cls-2" d="M777.51,507.36c-2.25-.59-4.29-1.21-6.37-1.64a32.37,32.37,0,0,0-9.72-.24,4.18,4.18,0,0,1-.93-.12c.08-.3.16-.61.26-.91s.15-.46.27-.82A28.38,28.38,0,0,1,777.51,507.36Z" transform="translate(0.64)"/><path class="cls-2" d="M775.53,489.13c1.11-1.18,16.7.08,20.24.85-.08.21-.15.42-.25.61-1.27,2.52-2.57,5-3.82,7.55a.92.92,0,0,1-1.12.63c-2.22-.4-4.45-.77-6.67-1.16-1-.17-1.93-.36-2.89-.54l0-.28,3.37.54c2,.33,3.9.68,5.86,1a1,1,0,0,0,.84-.39c1.3-2.42,2.55-4.86,3.81-7.3a3.29,3.29,0,0,0,.13-.4A105.28,105.28,0,0,0,775.53,489.13Z" transform="translate(0.64)"/><path class="cls-2" d="M741.54,521.72c.44.33.91.64,1.32,1a1.6,1.6,0,0,1,.4,2.16l.64-.14c-.07.13-.1.24-.13.24a15,15,0,0,1-2.11-.12c-1-.18-1.91-.49-2.87-.71-.57-.14-1-.39-.95-1a19,19,0,0,1,.29-2c.08-.38.34-.42.7-.28.9.33,1.82.6,2.74.9Z" transform="translate(0.64)"/><path class="cls-2" d="M736.78,516.16l.7,1c-.57.59-.57.59-.9,2.32-.88-.3-1.74-.63-2.63-.89a7.41,7.41,0,0,0-1.56-.23c-1.28-.09-2.57-.1-3.86-.22-.65-.06-.66-.6-.62-1.11s.3-.8.84-.73c1.56.21,3.12.41,4.68.64.68.1,1.34.28,2,.39C736.64,517.5,736.64,517.49,736.78,516.16Z" transform="translate(0.64)"/><path class="cls-2" d="M736.66,503.08a17.73,17.73,0,0,1-12.21-.43l.68.08c.17,0,.44.11.51,0,.75-.79,1.67-.41,2.52-.39q3.2.09,6.39.3A16.73,16.73,0,0,1,736.66,503.08Z" transform="translate(0.64)"/><path class="cls-2" d="M726.86,518l-4.31-.7c-.65-.11-1.3-.23-1.95-.33s-.69-.48-.56-.95.12-1.13.86-1c1.85.3,3.7.63,5.54,1a.72.72,0,0,1,.42.51A11.07,11.07,0,0,1,726.86,518Z" transform="translate(0.64)"/><path class="cls-2" d="M820.44,530.17a6.27,6.27,0,0,0,.51,1.34,2,2,0,0,0,1,.81,1,1,0,0,0,1.22-.68c.67-1.64,1.32-3.29,2-4.94a4.6,4.6,0,0,1,.18-.58c.07-.12.24-.19.36-.29.06.12.19.25.18.37a4.73,4.73,0,0,1-.13,1.29c-.58,1.78-1.2,3.55-1.82,5.32a2.38,2.38,0,0,1-.42.63c-1,1.21-2,1.11-2.58-.32a22.81,22.81,0,0,1-.69-2.92Z" transform="translate(0.64)"/><path class="cls-2" d="M713.81,500.1c-.65.4-1.2.8-1.8,1.09a8.72,8.72,0,0,1-1.33.36c-1,.31-1.23.61-1.13,1.75a10.27,10.27,0,0,1-4.29-1.86A40,40,0,0,1,713.81,500.1Z" transform="translate(0.64)"/><path class="cls-2" d="M737.82,493l-1.18.11-4.12.41c-.33,0-.66,0-1,0a8.55,8.55,0,0,0-2.25.18,4.92,4.92,0,0,1-2.46,0c-.16,0-.39-.21-.41-.34a.58.58,0,0,1,.27-.48,4.66,4.66,0,0,1,2.31-.6c2.56.19,5.12.25,7.69.37.38,0,.75.06,1.13.08Z" transform="translate(0.64)"/><path class="cls-2" d="M737.08,518.91c.73.1,1.47.16,2.2.31,2.28.47,4.56,1,6.84,1.47.29.07.52.37.77.56-.37.18-.78.58-1.1.51-2.41-.5-4.8-1.08-7.19-1.66a5.75,5.75,0,0,1-1.25-.52c-.16-.08-.26-.3-.38-.45Z" transform="translate(0.64)"/><path class="cls-2" d="M728.32,522.22c-.14-.14-.37-.26-.4-.42a32.09,32.09,0,0,1-.28-9.22c0-.18.22-.34.34-.5.29.21.8.4.83.64a3.88,3.88,0,0,1-.48,3c-1.13,1.47-1,2.27.54,3.29a2.14,2.14,0,0,1,.13,2.47,8.09,8.09,0,0,0-.7.77Z" transform="translate(0.64)"/><path class="cls-2" d="M743.21,526.83c-.84-.06-1.67-.11-2.51-.2a2.72,2.72,0,0,1-1-.24c-.25-.14-.4-.46-.6-.7.24-.15.47-.41.72-.43a8.6,8.6,0,0,1,2,0q2.18.36,4.33.87c.26.06.45.45.68.68a2.45,2.45,0,0,1-.84.33c-.91,0-1.82-.12-2.74-.19Z" transform="translate(0.64)"/><path class="cls-2" d="M778.87,491.92c-.68.16-1.35.34-2,.48a1,1,0,0,1-.53,0c-.52-.2-1.46-.41-1.47-.64a5.86,5.86,0,0,1,.63-1.92l.64.7.55-.6v-.23l2.2.67C779.51,490.87,779.33,491.39,778.87,491.92Z" transform="translate(0.64)"/><path class="cls-2" d="M830,524.82l-7.66.28H822a1.6,1.6,0,0,0-1.93,1.28,3.75,3.75,0,0,1-2.91,2.55c-1.86.39-3.74.74-5.61,1.1a6,6,0,0,1-.77.05l0-.24c.24-.07.48-.16.73-.21,1.92-.35,3.86-.61,5.76-1.07a3.94,3.94,0,0,0,1.77-1.2,6.55,6.55,0,0,0,1.08-1.82,1,1,0,0,1,.94-.71,35.29,35.29,0,0,1,8.43-.21l.59.09Z" transform="translate(0.64)"/><path class="cls-2" d="M796.92,499.48c.42.59.35,1-.21,1.29-.25-.48-.48-.9-.69-1.34a.57.57,0,0,1,0-.4,2,2,0,0,1,3.21-.81,1.39,1.39,0,0,1,.33,1.68,3.78,3.78,0,0,1-1.33,1.13c-.05,0-.49-.45-.68-.73a5.83,5.83,0,0,1-.41-.91Z" transform="translate(0.64)"/><path class="cls-2" d="M778.17,494.73c.82-.63,1.62-1.27,2.45-1.87a1.2,1.2,0,0,1,.76-.25c1,.12,1.9.32,2.86.47.65.1.82.43.57,1a5.92,5.92,0,0,1-3.52.11,1.28,1.28,0,0,0-1.29.28C779.57,494.79,778.79,494.66,778.17,494.73Z" transform="translate(0.64)"/><path class="cls-2" d="M719.24,516.42c-1.36-.24-2.68-.43-4-.74-.6-.14-.42-.72-.34-1.16s.38-.53.79-.46c.85.15,1.7.26,2.55.4,1.08.18,1.08.19,1,1.31C719.31,515.94,719.28,516.11,719.24,516.42Z" transform="translate(0.64)"/><path class="cls-2" d="M743.58,498.14l-4.62-.35a57.87,57.87,0,0,0-11.55,0c-.66.08-.88-.1-1.12-.9A130.63,130.63,0,0,1,743.58,498.14Z" transform="translate(0.64)"/><path class="cls-2" d="M789.9,514.08c-.13-2.12.89-4.29-.45-6.43l.26,0a2.93,2.93,0,0,1,.22.33c.06.13.1.27.19.53.11-1.18.11-1.17-.85-1.29-1.71-.21-3.42-.42-5.16-.57a10,10,0,0,1,4.47,6.95c-.1-.25-.19-.51-.3-.76s-.3-.52-.4-.8a10.42,10.42,0,0,0-3.59-4.67c-1.13-.9-1.13-.9-3.25-1.26.86.07,1.72.11,2.57.2q3,.31,6.07.64c.38,0,.85,0,.8.65-.15,2-.28,4.06-.42,6.09A1.65,1.65,0,0,1,789.9,514.08Z" transform="translate(0.64)"/><path class="cls-2" d="M821,529.57l.83.86.15-.13-.37-.59.69.28c-.37-1.11-1.45-1.88-1.08-3.14a1.18,1.18,0,0,0,1.5.4c.37-.14.89.14,1.53.26l-1.61,2.05.08.15.83-.21a5.07,5.07,0,0,1-.32.6c-.38.52-.85,1.18-1.49.94-.42-.16-.62-.91-.92-1.39Z" transform="translate(0.64)"/><path class="cls-2" d="M741.56,521.75l-1-.63,0-.12,5.86,1.38c-.67.71.17,1.88-.91,2.58.08-.55.18-1,.21-1.44.07-.88,0-.92-1-.8a1.94,1.94,0,0,1,.41.35c.11.18.25.41.21.57s-.3.29-.48.34a7.44,7.44,0,0,1-1,.12,3.12,3.12,0,0,0-2.32-2.37Z" transform="translate(0.64)"/><path d="M702.23,529.68c.12.51-.18.62-.6.62-1.44,0-3.54-2.21-3.47-3.65,0-.2.32-.58.42-.55.26.06.65.25.7.46a3.39,3.39,0,0,0,1.8,2.32Z" transform="translate(0.64)"/><path class="cls-2" d="M822.23,510a9.86,9.86,0,0,0-1.86.31,6.29,6.29,0,0,0-1.33.89c-.2.14-.4.29-.6.43s-.53.24-.68.44-.53.62-.91.25-.63-.81-.22-1.27a3,3,0,0,1,2.25-1.26c1.12,0,2.24,0,3.35-.08Z" transform="translate(0.64)"/><path class="cls-2" d="M770.75,497.46c-.71-.05-1.41-.15-2.12-.15s-1.19.13-1.78.18c-.3,0-.68.11-.88,0a4.76,4.76,0,0,0-2.9-.63,18,18,0,0,1-1.82-.14c-.6-.07-1.2-.17-1.79-.26l0-.21a7.83,7.83,0,0,1,1.91-.25c2.22.25,4.43.6,6.64.92.93.14,1.85.31,2.77.46Z" transform="translate(0.64)"/><path class="cls-2" d="M712.69,505a5.17,5.17,0,0,1-1.26-.59.52.52,0,0,1,.25-1,35,35,0,0,1,3.61-.14c.1,0,.31.32.28.43-.15.46-.25,1-.9,1.07s-1.26,0-1.89.05Z" transform="translate(0.64)"/><path class="cls-2" d="M713,521.42c-1-.27-1.92-.52-2.84-.79-.56-.16-1.1-.42-1-1.1,0-.47.9-.72,1.55-.53a14.73,14.73,0,0,1,1.53.46,1.11,1.11,0,0,1,.56.59A8.62,8.62,0,0,1,713,521.42Z" transform="translate(0.64)"/><path class="cls-2" d="M713.44,508.13s0,0,0,.07c-.28,1.78-.36,1.83-2.07,1.33a4.71,4.71,0,0,1-.95-.26c-.28-.15-.7-.46-.67-.65s.39-.72.64-.74c1-.08,2,0,3,0Z" transform="translate(0.64)"/><path class="cls-2" d="M797.93,485.81c1.57.17,2.17.68,2.09,1.53,0,.46-1.19,1.22-1.72,1.12s-1.47-1.53-1.23-2S797.75,485.94,797.93,485.81Z" transform="translate(0.64)"/><path class="cls-2" d="M741.24,500.61l-7.84,0c-.56,0-1.12.06-1.67.09a1.35,1.35,0,0,1-.67,0,2.83,2.83,0,0,1-.57-.61c.24-.12.48-.35.72-.34,1.17.05,2.33.17,3.5.27l6.53.5Z" transform="translate(0.64)"/><path class="cls-2" d="M789.24,497.78a2.16,2.16,0,0,1-.56-.39,4.78,4.78,0,0,0-6-1.86,2.41,2.41,0,0,1-.4,0,4,4,0,0,1,.76-.69,3.61,3.61,0,0,1,2.74-.26,6.11,6.11,0,0,1,3.64,3Z" transform="translate(0.64)"/><path class="cls-2" d="M793.81,503c3.07-.23,6,.77,8.92,1.3l0,.23-8.94-1.14Z" transform="translate(0.64)"/><path class="cls-2" d="M773.17,511.4c-1.1,0-2.28-.12-3.46-.07a8.19,8.19,0,0,0-3.78,1.29,2.18,2.18,0,0,1-.73.13c.14-.23.22-.54.42-.67a8.12,8.12,0,0,1,7.43-.76C773.13,511.35,773.2,511.41,773.17,511.4Z" transform="translate(0.64)"/><path class="cls-2" d="M737.05,520l.07,1.12h.08l.05-.71c.6.19.67.25.39.67a2.46,2.46,0,0,0-.09,2.27c.32,1,.7,1.93,1,2.91a1.79,1.79,0,0,1,0,.89.58.58,0,0,1-.42.32c-.11,0-.28-.17-.36-.3a1.13,1.13,0,0,1-.1-.44c-.26-1.94-.53-3.88-.77-5.81a7.18,7.18,0,0,1,0-.95Z" transform="translate(0.64)"/><path class="cls-2" d="M720.25,514.72l.26-3.37h-.24l-.3,3.88c-.11-.14-.32-.28-.31-.42,0-1.19.09-2.39.18-3.58a.56.56,0,0,1,.46-.31,1.67,1.67,0,0,1,1.1,2.12C721,514.32,721,514.32,720.25,514.72Z" transform="translate(0.64)"/><path class="cls-2" d="M778.92,505.77a4.19,4.19,0,0,1,1.43.23c3,1.47,5.81,3.19,7.35,6.34l-.25.23a5.7,5.7,0,0,0-.32-.65,14.58,14.58,0,0,0-6.5-5.23C780,506.39,779.35,506,778.92,505.77Z" transform="translate(0.64)"/><path d="M798.81,502a5.5,5.5,0,0,0,1.34.51c1.66.18,3.33.27,5.07.41l.06.86-7.43-1.55Z" transform="translate(0.64)"/><path class="cls-2" d="M761.22,491a58.45,58.45,0,0,1,13.31-2.15Z" transform="translate(0.64)"/><path class="cls-2" d="M711.47,509.87c.3.34.85.67.85,1,0,1.68-.16,1.92-1.47,2.26l.42-3.06Z" transform="translate(0.64)"/><path class="cls-2" d="M799.89,491.59l-.47,6.11c-.45-.41-.33-1-.32-1.48C799.14,493,799.31,491.93,799.89,491.59Z" transform="translate(0.64)"/><path class="cls-2" d="M712.37,515.64a12.42,12.42,0,0,1-1.47-.38.73.73,0,0,1-.15-1.29,3.36,3.36,0,0,1,1.29-.32c.1,0,.23.25.34.39s0,.1,0,.15Z" transform="translate(0.64)"/><path class="cls-2" d="M720.76,520.51l-.52-3.12a1.85,1.85,0,0,1,1.48,1.77C721.86,520.19,721.88,520.19,720.76,520.51Z" transform="translate(0.64)"/><path class="cls-2" d="M756.79,544.68a30.87,30.87,0,0,0,1.69,3.36c.65,1,1.54,1.83,2.23,2.81a10.57,10.57,0,0,1-4.13-6.07Z" transform="translate(0.64)"/><path class="cls-2" d="M743.68,515.21a3.48,3.48,0,0,1-3.14,2.88A3.25,3.25,0,0,1,737,515.8c.86,1.1,1.84,2.05,3.36,1.94S742.75,516.51,743.68,515.21Z" transform="translate(0.64)"/><path class="cls-2" d="M710.74,515.73c1.43.24,1.09.51,1.15,2.21,0,.63-.45.55-1,.54Z" transform="translate(0.64)"/><path class="cls-2" d="M721.37,506.2l-.54,1.77.19.06.86-2.36a1.92,1.92,0,0,1,.08,2.11c-.11.3-.67.43-1,.64-.11-.2-.36-.44-.32-.6a17.12,17.12,0,0,1,.62-1.69Z" transform="translate(0.64)"/><path class="cls-2" d="M778.35,489.47c.93.07,1.74.1,2.54.22a.73.73,0,0,1,.49.49,14,14,0,0,1,0,1.74C780.93,490.3,779.55,490.13,778.35,489.47Z" transform="translate(0.64)"/><path class="cls-2" d="M736.82,524.72a7.2,7.2,0,0,1-1.3-.28c-.21-.09-.49-.44-.45-.59a.94.94,0,0,1,.59-.59C736.66,523.14,736.89,523.44,736.82,524.72Z" transform="translate(0.64)"/><path class="cls-2" d="M713,513a22.49,22.49,0,0,1,2.24-8Z" transform="translate(0.64)"/><path class="cls-2" d="M786.15,507a10.57,10.57,0,0,1,3.06,7,38.14,38.14,0,0,0-1.2-3.64A37.62,37.62,0,0,0,786.15,507Z" transform="translate(0.64)"/><path class="cls-2" d="M796.37,500.41l-3.64,1.79c-.31-.51-.2-.8.31-1l3.23-1Z" transform="translate(0.64)"/><path class="cls-2" d="M821.48,525.6l2.54.19.11.26a4.23,4.23,0,0,1-1.22.62C822.27,526.76,821.86,526.3,821.48,525.6Z" transform="translate(0.64)"/><path class="cls-2" d="M786.07,500.31c-.26-.5-.6-.86-.53-1.1s.51-.49.79-.74a3.85,3.85,0,0,1,.69,1C787.05,499.64,786.54,499.93,786.07,500.31Z" transform="translate(0.64)"/><path class="cls-2" d="M796.7,496.91a13.1,13.1,0,0,1,.61-1.27c.11-.18.42-.43.52-.38a1.21,1.21,0,0,1,.65.61c0,.18-.21.57-.43.68A6.75,6.75,0,0,1,796.7,496.91Z" transform="translate(0.64)"/><path class="cls-2" d="M729.34,507a3.3,3.3,0,0,1,.33,1.16,1.35,1.35,0,0,1-1.31,1.26L729,507Z" transform="translate(0.64)"/><path class="cls-2" d="M808.09,505.26l4.93,1.34-.06.26-5-1.18Z" transform="translate(0.64)"/><path class="cls-2" d="M796,493.28c.28-.63.54-1.26.85-1.88.06-.12.32-.14.49-.21,0,.16.08.35,0,.47-.32.61-.68,1.19-1,1.79Z" transform="translate(0.64)"/><path class="cls-2" d="M762.21,520.63,760.45,523l-.18-.14c.13-1.13,1.18-1.56,1.74-2.37Z" transform="translate(0.64)"/><path class="cls-2" d="M712.13,507.38l1-2.47A1.89,1.89,0,0,1,712.13,507.38Z" transform="translate(0.64)"/><path class="cls-2" d="M709.74,515.29c-.19-.31-.52-.63-.52-.94s.31-.66.49-1l.31.07,0,1.76Z" transform="translate(0.64)"/><path class="cls-2" d="M771.49,496.19a17.94,17.94,0,0,1,.18-1.91c0-.13.43-.2.66-.29l.15.22-.85,2Z" transform="translate(0.64)"/><path class="cls-2" d="M715.48,501c0,.4,0,.8-.1,1.19a.36.36,0,0,1-.21.26c-.1,0-.31-.06-.32-.11a3.13,3.13,0,0,1,0-1c0-.19.31-.32.48-.48Z" transform="translate(0.64)"/><path class="cls-2" d="M735.77,506.83a1.28,1.28,0,0,1,1.16-1.77Z" transform="translate(0.64)"/><path class="cls-2" d="M704.31,514.65c.65.07,1,.47.85.94a.57.57,0,0,1-.49.25C703.87,515.66,704.27,515.11,704.31,514.65Z" transform="translate(0.64)"/><path class="cls-2" d="M710.44,510.16l-.41,2.61-.36,0,.33-2.61Z" transform="translate(0.64)"/><path class="cls-2" d="M775.58,498.15l-2.51-.19,0-.3,2.53.33Z" transform="translate(0.64)"/><path class="cls-2" d="M778.87,491.92c.47-.53.64-1.06,0-1.57l-.29-.37c.77.16,1.2.54,1.2,1.17A.71.71,0,0,1,778.87,491.92Z" transform="translate(0.64)"/><path class="cls-2" d="M719.84,517.53l.46,2.9-.34,0-.34-2.91Z" transform="translate(0.64)"/><path class="cls-2" d="M803.92,505.4l1.67-.42-.08,1-1.6-.44Z" transform="translate(0.64)"/><path class="cls-2" d="M712.18,505.61c-.21.5-.41,1-.64,1.49,0,.09-.24.1-.36.14,0-.12-.16-.28-.12-.36.25-.49.54-1,.81-1.44Z" transform="translate(0.64)"/><path class="cls-2" d="M709.7,517.65l-.18-2.06.25,0a7.61,7.61,0,0,1,.29,2.29l-.27.17-.11-.4Z" transform="translate(0.64)"/><path class="cls-2" d="M789.22,508l.82,3.85-.23,0-.85-3.8Z" transform="translate(0.64)"/><path class="cls-2" d="M789.78,505l-1.35-.32,1.35-.65Z" transform="translate(0.64)"/><path class="cls-2" d="M703.57,523.13l1.65-1.29-1.64,1.83-.15-.09Z" transform="translate(0.64)"/><path class="cls-2" d="M710.24,513.32l.41-2.71.19,0-.41,2.67Z" transform="translate(0.64)"/><path class="cls-2" d="M709.69,517.63a3.67,3.67,0,0,1-.48.47.66.66,0,0,1-.32-.32c0-.14.08-.31.13-.47l.68.35Z" transform="translate(0.64)"/><path class="cls-2" d="M710.43,515.61l.17,2.55h-.16l-.21-2.55Z" transform="translate(0.64)"/><path class="cls-2" d="M721.82,511.34l2.39.36-2.43-.19Z" transform="translate(0.64)"/><path class="cls-2" d="M698.38,504.26l.29-1.3.33.07-.26,1.31Z" transform="translate(0.64)"/><path d="M729.86,532.13c1.51-.74,3.08-.35,4.62-.23,3.35.25,6.69.51,10,.82,3,.28,6.07.62,9.1,1a2.81,2.81,0,0,1,2.08,1.23l-.09.24-1.18-.09-12-1c-1.55-.14-3.15-.06-4.52-1-2.5-.22-5-.43-7.51-.66a1.59,1.59,0,0,1-.52-.27Z" transform="translate(0.64)"/><path d="M749.78,532.58l-9.69-1.24V531a9.92,9.92,0,0,1,1.51-.12c2.28.16,4.56.37,6.84.54C749.07,531.49,749.46,531.77,749.78,532.58Z" transform="translate(0.64)"/><path d="M742.25,532.22l-10.09-1.12v-.38a5.14,5.14,0,0,1,.84,0l8.6,1.23c.22,0,.45,0,.67.05Z" transform="translate(0.64)"/><path d="M737.8,528.57c.88-.94,1.72-.13,2.53-.11Z" transform="translate(0.64)"/><path d="M776,532.28a20,20,0,0,1-3.73,10.19,9.59,9.59,0,0,1-4.06,3.25,5.14,5.14,0,0,1-6.35-2,12.88,12.88,0,0,1-1.94-6.72,19,19,0,0,1,4.22-13,10.77,10.77,0,0,1,2.53-2.28,5.17,5.17,0,0,1,7,1.11,10.48,10.48,0,0,1,2.26,6.43C776,530.3,776,531.29,776,532.28Zm-13.88,1.57c1.33-.08,2.38-.17,3.44-.19,1.24,0,2.49,0,3.74,0a1.1,1.1,0,0,0,.84-.55,8.65,8.65,0,0,0,.32-2.1,2.79,2.79,0,0,1,2-2.82,13.23,13.23,0,0,0-1.68-2.82,1.91,1.91,0,0,0-2.56-.74,6.85,6.85,0,0,0-2.15,1.25,9.6,9.6,0,0,0-2.65,4C762.95,531.15,762.57,532.51,762.14,533.85Zm.3.61a8.91,8.91,0,0,0,.64,5.59,3.48,3.48,0,0,0,1.95,1.83,3.92,3.92,0,0,0,1.08.1l0-.08-.57-.27.24-.25a1.81,1.81,0,0,0,.37,0l1.44-.22a6,6,0,0,0-.44-1.32c-.28-.46-.27-.78.15-1.1a3.89,3.89,0,0,0,.5-.47c.52-.57.55-1.14-.09-1.56a11.11,11.11,0,0,0-2-.81c-.29-.12-.73-.15-.85-.36-.39-.66-1-.69-1.64-.77l-.13.65H763l-.06-.56-.16.26Zm12.72,1c-.79.2-1.42.23-1.57,1.05a4.35,4.35,0,0,1-.39,1.07c-1.07,2.27-2.32,4.4-4.66,5.61a18.45,18.45,0,0,1-2,.79,1.16,1.16,0,0,0-.64,1.41c.1.21.65.22,1,.28a.76.76,0,0,0,.44-.11,17.58,17.58,0,0,0,3-1.67C773,541.71,774.27,538.78,775.15,535.41Z" transform="translate(0.64)"/><path d="M722.68,529.68a1,1,0,0,1-1.39.63c-2.39-.87-4.79-1.69-7.19-2.53a1.09,1.09,0,0,1-.2-.14Z" transform="translate(0.64)"/><path d="M715.18,526.55l.14-.71A8.13,8.13,0,0,1,717,526a11.25,11.25,0,0,1,1.79.83c.06,0,.09.25.08.26-.17.08-.36.23-.52.19C717.29,527.06,716.26,526.8,715.18,526.55Z" transform="translate(0.64)"/><path d="M715.92,524.66l4.17.32v.15l-4.18-.32Z" transform="translate(0.64)"/><path d="M720,526.34a3.86,3.86,0,0,1-.15,1c-.06.15-.35.2-.53.29,0-.2-.07-.44,0-.59A4.09,4.09,0,0,1,720,526.34Z" transform="translate(0.64)"/><path d="M738,508.32l.73.91-.75.35,0,.13.39,0a21.26,21.26,0,0,1-.21,2.35c-.06.3-.43.53-.76.76A6.63,6.63,0,0,1,738,508.32Z" transform="translate(0.64)"/><path d="M741,516l-1.54.08-.15-.26c.23-.23.43-.58.7-.65C740.48,515,741,515.1,741,516Z" transform="translate(0.64)"/><path d="M739.8,509.68l-.19,2.52C739,511.8,739.14,510.32,739.8,509.68Z" transform="translate(0.64)"/><path d="M738.59,515.56l-.12-1.57.39,0,.05,1.57Z" transform="translate(0.64)"/><path d="M729.33,538c-.49.47-1,1-1.46,1.39a.86.86,0,0,1-1.23-.05c-1.27-1.1-2.44-2.28-2.58-4.07-.1-1.21.15-1.18,1-1,.22,0,.45.05.68.07l.76.06a4.87,4.87,0,0,0,2.86,3.64Z" transform="translate(0.64)"/><path d="M813.8,503.27c-1.23-2.5-3.42-2.26-5.47-2.3l-.06-7.3c2.49.58,4.06,2.63,6,3.85l-.17,2.17Z" transform="translate(0.64)"/><path d="M813.59,504.84l.21,1,.24,0,.19-.9,1.08,0,.14-.18c-.26-.31-.52-.61-.77-.92s-.34-.36-.33-.54c.1-1.64.23-3.28.36-4.91l1,.89.28,7.44-6-2.09v-.07Z" transform="translate(0.64)"/><path d="M722,500.77l.1-1.24c1.18.63,2.44,1.3,4.05.38l-3.27-1.31c.53-.55-.08-.64-.45-.84.77-.11,4.13,1.72,5.48,3Z" transform="translate(0.64)"/><path class="cls-2" d="M762.14,533.85c.44-1.34.81-2.7,1.33-4a9.6,9.6,0,0,1,2.65-4,6.85,6.85,0,0,1,2.15-1.25,1.91,1.91,0,0,1,2.56.74,13.23,13.23,0,0,1,1.68,2.82,2.79,2.79,0,0,0-2,2.82,8.65,8.65,0,0,1-.32,2.1,1.1,1.1,0,0,1-.84.55c-1.24.06-2.49,0-3.74,0C764.52,533.68,763.46,533.77,762.14,533.85Z" transform="translate(0.64)"/><path class="cls-2" d="M762.43,534.46l.38.66.16-.26.06.56h.08l.13-.65c.66.08,1.26.11,1.64.77.13.21.56.25.85.36a11.11,11.11,0,0,1,2,.81c.64.41.61,1,.09,1.56a3.89,3.89,0,0,1-.5.47c-.42.32-.44.64-.15,1.1a6,6,0,0,1,.44,1.32l-1.44.22a1.81,1.81,0,0,1-.37,0l-.24.25.57.27,0,.08a3.92,3.92,0,0,1-1.08-.1,3.48,3.48,0,0,1-1.95-1.83A8.91,8.91,0,0,1,762.43,534.46Z" transform="translate(0.64)"/><path class="cls-2" d="M775.15,535.41c-.88,3.37-2.16,6.3-4.75,8.43a17.58,17.58,0,0,1-3,1.67.76.76,0,0,1-.44.11c-.35-.06-.9-.07-1-.28a1.16,1.16,0,0,1,.64-1.41,18.45,18.45,0,0,0,2-.79c2.34-1.21,3.59-3.34,4.66-5.61a4.35,4.35,0,0,0,.39-1.07C773.73,535.64,774.36,535.61,775.15,535.41Z" transform="translate(0.64)"/><text class="cls-15" transform="translate(622.53 287.6)">1958</text><text class="cls-16" transform="translate(629.81 310.86)">First Car was brought <tspan x="0" y="16.71">to Kathmandu</tspan></text></g><g id="license"><path d="M589.33,501.6H575.56a2.79,2.79,0,0,1-4.09,2.1,1.65,1.65,0,0,1-.7-1.23,81.92,81.92,0,0,1,.07-10.38,25.41,25.41,0,0,1,2.27-7,4.06,4.06,0,0,1,3.9-2.31c3.6,0,7.21,0,10.81,0a4.73,4.73,0,0,1,4.49,3.4,25.18,25.18,0,0,1,1.85,11.34c-.13,1.58,0,3.18,0,4.77,0,1-.46,1.57-1.52,1.55h-.84C589.67,503.84,589.62,503.79,589.33,501.6Zm0-9.56c-.43-1.28-.76-2.5-1.27-3.63a1.75,1.75,0,0,0-1.24-.9c-2.94-.08-5.89-.06-8.84,0-.35,0-.9.19-1,.44-.54,1.31-1,2.67-1.46,4.11Zm-13.87,7.07a2.3,2.3,0,1,0-.05-4.6,2.3,2.3,0,1,0,.05,4.6Zm16.34-2.26a2.34,2.34,0,1,0-2.35,2.25A2.3,2.3,0,0,0,591.79,496.86Z" transform="translate(0.64)"/><path d="M594.06,478H570.81a4.56,4.56,0,0,1,2.17-4c1.3-.82,2.73-1.41,4.1-2.12a3.49,3.49,0,0,0,1.51-5.27c-.64-1.11-1.2-2.27-1.79-3.41a1,1,0,0,1-.1-.41,35.52,35.52,0,0,1-.12-5.46,6,6,0,0,1,6.28-4.91c.14,0,.32,0,.41,0a20.92,20.92,0,0,1,3.8,3.14,5.29,5.29,0,0,1,.47,4.86c-.08.27.1.6.09.9a5.63,5.63,0,0,1-.14,1.9,26.15,26.15,0,0,1-1.63,3.17c-1.49,2.62-.5,4.77,1.89,5.63a23.5,23.5,0,0,1,3.91,1.87A4.66,4.66,0,0,1,594.06,478Z" transform="translate(0.64)"/><path d="M632.72,461.67h14.73c1.85,0,2.89.83,2.92,2.29s-1,2.41-3,2.41q-14.73,0-29.47,0c-1.83,0-3-1-2.94-2.46s1.15-2.24,3-2.24Z" transform="translate(0.64)"/><path d="M632.8,480.44h14.34a6.32,6.32,0,0,1,1.4.08,2.28,2.28,0,0,1,0,4.47,5.77,5.77,0,0,1-1.26.08H618c-.23,0-.47,0-.7,0a2.33,2.33,0,0,1-2.34-2.31,2.28,2.28,0,0,1,2.34-2.29c2.62,0,5.25,0,7.87,0Z" transform="translate(0.64)"/><path d="M629.07,475.72H617.85c-1.75,0-2.88-1-2.85-2.38s1.14-2.32,2.79-2.32q11.36,0,22.72,0c1.8,0,2.86.95,2.83,2.4s-1.06,2.29-2.91,2.3Z" transform="translate(0.64)"/><path d="M629.26,489.78h11.22c1.83,0,2.86.87,2.86,2.34s-1.06,2.35-2.88,2.35q-11.29,0-22.58,0c-1.75,0-2.88-1-2.88-2.38s1.11-2.32,2.9-2.33Z" transform="translate(0.64)"/><path d="M608.19,449.9a2.34,2.34,0,1,1-2.39-2.28A2.38,2.38,0,0,1,608.19,449.9Z" transform="translate(0.64)"/><path d="M605.89,459.33a2.34,2.34,0,1,1-.07-4.68,2.38,2.38,0,0,1,2.37,2.3A2.43,2.43,0,0,1,605.89,459.33Z" transform="translate(0.64)"/><path d="M608.19,464a2.34,2.34,0,1,1-2.39-2.28A2.38,2.38,0,0,1,608.19,464Z" transform="translate(0.64)"/><path d="M605.89,473.38a2.34,2.34,0,1,1-.06-4.68,2.38,2.38,0,0,1,2.37,2.3A2.43,2.43,0,0,1,605.89,473.38Z" transform="translate(0.64)"/><path d="M605.82,475.73a2.38,2.38,0,0,1,2.37,2.29,2.34,2.34,0,1,1-2.37-2.29Z" transform="translate(0.64)"/><path d="M608.19,485.08a2.34,2.34,0,1,1-2.35-2.32A2.38,2.38,0,0,1,608.19,485.08Z" transform="translate(0.64)"/><path d="M605.9,494.47a2.34,2.34,0,1,1-.08-4.68,2.38,2.38,0,0,1,2.38,2.29A2.43,2.43,0,0,1,605.9,494.47Z" transform="translate(0.64)"/><path d="M605.8,501.5a2.42,2.42,0,0,1-2.28-2.41,2.34,2.34,0,0,1,4.67.11A2.45,2.45,0,0,1,605.8,501.5Z" transform="translate(0.64)"/><path d="M608.2,506.21a2.45,2.45,0,0,1-2.36,2.33,2.42,2.42,0,0,1-2.31-2.38,2.34,2.34,0,0,1,4.68.05Z" transform="translate(0.64)"/><path class="cls-2" d="M589.33,492H575.51c.5-1.44.92-2.8,1.46-4.11.1-.25.66-.44,1-.44,2.95,0,5.89-.06,8.84,0a1.75,1.75,0,0,1,1.24.9C588.57,489.54,588.9,490.75,589.33,492Z" transform="translate(0.64)"/><path class="cls-2" d="M575.46,499.11a2.3,2.3,0,1,1,2.28-2.33A2.29,2.29,0,0,1,575.46,499.11Z" transform="translate(0.64)"/><path class="cls-2" d="M615,454.65S572,371.25,541,347l-12,7.76Z" transform="translate(0.64)"/><path class="cls-2" d="M591.79,496.86a2.31,2.31,0,0,1-2.35,2.25,2.3,2.3,0,1,1,2.35-2.25Z" transform="translate(0.64)"/><path class="cls-2" d="M610.56,445.29h41.59c3.83,0,6.52,1.92,7.33,5.26a11.24,11.24,0,0,1,.23,2.65q0,24.94,0,49.88c0,5.07-2.76,7.79-7.83,7.79H569c-4.75,0-7.65-2.84-7.66-7.57q0-25.22,0-50.45c0-4.73,2.86-7.56,7.64-7.56ZM589.33,501.6c.28,2.19.34,2.24,2.45,2.24h.84c1.06,0,1.53-.51,1.52-1.55,0-1.59-.11-3.19,0-4.77a25.18,25.18,0,0,0-1.85-11.34,4.73,4.73,0,0,0-4.49-3.4c-3.6,0-7.21,0-10.81,0a4.06,4.06,0,0,0-3.9,2.31,25.41,25.41,0,0,0-2.27,7,81.92,81.92,0,0,0-.07,10.38,1.65,1.65,0,0,0,.7,1.23,2.79,2.79,0,0,0,4.09-2.1ZM594.06,478a4.66,4.66,0,0,0-2.4-4.1,23.5,23.5,0,0,0-3.91-1.87c-2.4-.86-3.39-3-1.89-5.63a26.15,26.15,0,0,0,1.63-3.17,5.63,5.63,0,0,0,.14-1.9c0-.3-.17-.63-.09-.9a5.29,5.29,0,0,0-.47-4.86,20.92,20.92,0,0,0-3.8-3.14c-.09-.07-.27,0-.41,0a6,6,0,0,0-6.28,4.91,35.52,35.52,0,0,0,.12,5.46,1,1,0,0,0,.1.41c.59,1.14,1.15,2.3,1.79,3.41a3.49,3.49,0,0,1-1.51,5.27c-1.36.71-2.8,1.31-4.1,2.12a4.56,4.56,0,0,0-2.17,4Zm38.66-16.3H618c-1.83,0-2.93.83-3,2.24s1.11,2.46,2.94,2.46q14.73,0,29.47,0c1.91,0,3-.91,3-2.41s-1.07-2.28-2.92-2.29Zm.09,18.77h-7.59c-2.62,0-5.25,0-7.87,0a2.28,2.28,0,0,0-2.34,2.29,2.33,2.33,0,0,0,2.34,2.31c.23,0,.47,0,.7,0h29.23a5.77,5.77,0,0,0,1.26-.08,2.28,2.28,0,0,0,0-4.47,6.32,6.32,0,0,0-1.4-.08Zm-3.73-4.71h11.36c1.85,0,2.88-.83,2.91-2.3s-1-2.4-2.83-2.4q-11.36,0-22.72,0c-1.65,0-2.77,1-2.79,2.32s1.1,2.38,2.85,2.38Zm.19,14.06H617.9c-1.79,0-2.9.91-2.9,2.33s1.14,2.37,2.88,2.38q11.29,0,22.58,0c1.82,0,2.87-.91,2.88-2.35s-1-2.34-2.86-2.34ZM608.19,449.9a2.38,2.38,0,0,0-2.39-2.28,2.34,2.34,0,1,0,2.39,2.28Zm-2.3,9.43a2.43,2.43,0,0,0,2.3-2.38,2.38,2.38,0,0,0-2.37-2.3,2.34,2.34,0,1,0,.07,4.68Zm2.3,4.63a2.38,2.38,0,0,0-2.39-2.28,2.34,2.34,0,1,0,2.39,2.28Zm-2.3,9.43a2.43,2.43,0,0,0,2.3-2.38,2.38,2.38,0,0,0-2.37-2.3,2.34,2.34,0,1,0,.06,4.68Zm-.07,2.35a2.34,2.34,0,1,0,2.37,2.29A2.38,2.38,0,0,0,605.82,475.73Zm2.38,9.35a2.38,2.38,0,0,0-2.35-2.32,2.34,2.34,0,1,0,2.35,2.32Zm-2.29,9.39a2.43,2.43,0,0,0,2.29-2.39,2.38,2.38,0,0,0-2.38-2.29,2.34,2.34,0,1,0,.08,4.68Zm-.1,7a2.45,2.45,0,0,0,2.4-2.29,2.34,2.34,0,0,0-4.67-.11A2.42,2.42,0,0,0,605.8,501.5Zm2.4,4.7a2.34,2.34,0,0,0-4.68-.05,2.42,2.42,0,0,0,2.31,2.38A2.45,2.45,0,0,0,608.2,506.21Z" transform="translate(0.64)"/><path d="M610.56,445.29H569c-4.78,0-7.63,2.83-7.64,7.56q0,25.22,0,50.45c0,4.73,2.91,7.57,7.66,7.57h82.91c5.07,0,7.83-2.72,7.83-7.79q0-24.94,0-49.88a11.24,11.24,0,0,0-.23-2.65c-.82-3.34-3.51-5.25-7.33-5.26Zm0-4.71h41.19c7.73,0,12.67,4.91,12.67,12.6q0,25,0,49.9c0,7.5-5,12.49-12.51,12.49H569.12c-7.44,0-12.43-5-12.44-12.41q0-25,0-50c0-7.67,4.9-12.54,12.57-12.54Z" transform="translate(0.64)"/><circle class="cls-2" cx="535.83" cy="350.75" r="58.86"/><text class="cls-15" transform="translate(491.72 354.75)">1978</text><text class="cls-17" transform="translate(457.1 370.57)">First Driving license was issued</text></g><g id="tlight"><path class="cls-2" d="M395.39,349.65s39,42,56,66l3.5-2-49-68.25Z" transform="translate(0.64)"/><path d="M464.25,421.42l2.15-.24c.46,0,.92-.09,1.39-.1a.77.77,0,0,1,.83.44.81.81,0,0,1-.32.94c-.32.26-.65.5-1,.73a2.79,2.79,0,0,0-1.22,1.69q-.22.93-.37,1.87a1.38,1.38,0,0,1-.56,1,.37.37,0,0,0-.18.4c.19,1.59.37,3.17.54,4.76,0,.25.14.29.36.26.84-.09,1.67-.17,2.51-.23a3.78,3.78,0,0,1,1,.05.76.76,0,0,1,.45,1.3,1.92,1.92,0,0,1-.53.47,4.25,4.25,0,0,0-2.12,3.57c0,.19,0,.39-.06.58a1.26,1.26,0,0,1-.5,1,.52.52,0,0,0-.22.58q.26,2.2.5,4.4a3.87,3.87,0,0,1-3.08,4.37c-.94.21-1.92.24-2.89.36-.63.08-.56,0-.49.6q.36,3.2.72,6.4l0,.38-.81.16c0-.16-.06-.29-.07-.42l-.75-6.53c0-.43,0-.43-.46-.38-.61.07-1.22.15-1.83.2-.29,0-.38.11-.34.41.26,2.2.5,4.39.75,6.59l0,.41a4,4,0,0,1-.7,0c-.08,0-.18-.18-.2-.28-.19-1.55-.36-3.11-.54-4.66l-.27-2.34-.37,0-3.12.35a3.93,3.93,0,0,1-4.35-3.46q-.26-2.25-.51-4.5a.4.4,0,0,0-.31-.41,1.46,1.46,0,0,1-.9-1c-.28-.7-.59-1.38-.92-2.06a2.44,2.44,0,0,0-1.24-1.09c-.29-.14-.59-.26-.88-.4a2.49,2.49,0,0,1-.54-.35A.75.75,0,0,1,443,436a3.94,3.94,0,0,1,1.16-.37c.79-.13,1.58-.2,2.38-.28.24,0,.3-.11.28-.35q-.28-2.35-.53-4.69A.33.33,0,0,0,446,430a1.41,1.41,0,0,1-.91-.93c-.25-.62-.53-1.23-.82-1.82a2.54,2.54,0,0,0-1.34-1.21c-.3-.13-.6-.24-.89-.39a2.34,2.34,0,0,1-.57-.37.66.66,0,0,1,.18-1.14,3,3,0,0,1,.84-.23q1.35-.18,2.7-.31c.26,0,.32-.12.29-.36-.2-1.7-.39-3.41-.58-5.11a.32.32,0,0,0-.27-.33,1.34,1.34,0,0,1-.91-.88c-.25-.62-.54-1.22-.85-1.81a2.73,2.73,0,0,0-1.55-1.2c-.32-.13-.64-.26-.95-.41a.78.78,0,0,1-.48-.78c0-.36.29-.51.58-.63a8.22,8.22,0,0,1,2.83-.6,1,1,0,0,0,1.12-.88,3.64,3.64,0,0,1,3.28-2.72c3.62-.43,7.24-.83,10.87-1.24a3.89,3.89,0,0,1,4,2.29.43.43,0,0,0,.54.29c.94-.1,1.89-.18,2.83-.23a2.16,2.16,0,0,1,.85.18.68.68,0,0,1,.28,1.15,1.92,1.92,0,0,1-.57.47,4,4,0,0,0-2.15,3.36c0,.13,0,.26-.05.38a1.33,1.33,0,0,1-.57,1,.45.45,0,0,0-.16.33c.19,1.76.39,3.52.59,5.27A2.21,2.21,0,0,0,464.25,421.42Zm-7.87,11.75a4.33,4.33,0,0,0,2.53-1.38,3.84,3.84,0,0,0,1.07-3.84,4.5,4.5,0,0,0-7.42-2.08,4.07,4.07,0,0,0-1.32,4.28A4.57,4.57,0,0,0,456.38,433.16Zm6.12-11.35q-.6-5.29-1.2-10.58a3.05,3.05,0,0,0-3.5-2.78l-9.26,1a1.75,1.75,0,0,0-.32.05.41.41,0,0,0-.31.47.4.4,0,0,0,.41.39,2.48,2.48,0,0,0,.42,0l9-1a3.85,3.85,0,0,1,.71,0,2.21,2.21,0,0,1,2,2.08l2.41,21.26c.06.5.19.67.5.64s.43-.24.37-.75Zm2,17.89q-.2-1.75-.4-3.5c0-.12,0-.27-.07-.34s-.31-.26-.43-.24-.28.22-.38.36,0,.19,0,.28l.8,7c0,.06,0,.13,0,.19a.43.43,0,0,0,.86-.1c0-.1,0-.19,0-.29Zm-9.72-19.35a3.92,3.92,0,0,0,3-2.22,3.7,3.7,0,0,0,.34-2,.47.47,0,0,0-.5-.45.48.48,0,0,0-.46.49,2,2,0,0,0,0,.23,2.77,2.77,0,0,1-1.48,2.67,11.65,11.65,0,0,1-1.12.39.67.67,0,0,0-.36.39.58.58,0,0,0,.2.46C454.51,420.36,454.72,420.34,454.82,420.36Zm2.78,24.44a3.81,3.81,0,0,0,3.15-4c0-.38-.24-.58-.54-.55s-.45.25-.42.61a2.74,2.74,0,0,1-2.32,2.89c-.48.08-.72.49-.43.78A1.6,1.6,0,0,0,457.6,444.79Z" transform="translate(0.64)"/><path class="cls-2" d="M456.38,433.16a4.57,4.57,0,0,1-5.14-3,4.07,4.07,0,0,1,1.32-4.28,4.5,4.5,0,0,1,7.42,2.08,3.84,3.84,0,0,1-1.07,3.84A4.33,4.33,0,0,1,456.38,433.16Z" transform="translate(0.64)"/><path class="cls-2" d="M454.5,420.32a4.57,4.57,0,0,1-5.14-3,4.07,4.07,0,0,1,1.32-4.28,4.5,4.5,0,0,1,7.42,2.08,3.84,3.84,0,0,1-1.07,3.84A4.33,4.33,0,0,1,454.5,420.32Z" transform="translate(0.64)"/><path class="cls-2" d="M457.29,444.93a4.57,4.57,0,0,1-5.14-3,4.07,4.07,0,0,1,1.32-4.28,4.5,4.5,0,0,1,7.42,2.08,3.84,3.84,0,0,1-1.07,3.84A4.33,4.33,0,0,1,457.29,444.93Z" transform="translate(0.64)"/><path class="cls-2" d="M462.5,421.82l1.22,10.74c.06.51,0,.72-.37.75s-.44-.14-.5-.64l-2.41-21.26a2.21,2.21,0,0,0-2-2.08,3.85,3.85,0,0,0-.71,0l-9,1a2.48,2.48,0,0,1-.42,0,.4.4,0,0,1-.41-.39.41.41,0,0,1,.31-.47,1.75,1.75,0,0,1,.32-.05l9.26-1a3.05,3.05,0,0,1,3.5,2.78Q461.91,416.53,462.5,421.82Z" transform="translate(0.64)"/><path class="cls-2" d="M464.53,439.71l.39,3.41c0,.1,0,.19,0,.29a.43.43,0,0,1-.86.1c0-.06,0-.13,0-.19l-.8-7c0-.1-.05-.22,0-.28s.23-.33.38-.36.32.12.43.24.06.22.07.34Q464.34,438,464.53,439.71Z" transform="translate(0.64)"/><path class="cls-2" d="M454.82,420.36c-.1,0-.3,0-.41-.09a.58.58,0,0,1-.2-.46.67.67,0,0,1,.36-.39,11.65,11.65,0,0,0,1.12-.39,2.77,2.77,0,0,0,1.48-2.67,2,2,0,0,1,0-.23.48.48,0,0,1,.46-.49.47.47,0,0,1,.5.45,3.7,3.7,0,0,1-.34,2A3.92,3.92,0,0,1,454.82,420.36Z" transform="translate(0.64)"/><path class="cls-2" d="M457.6,444.79a1.6,1.6,0,0,1-.56-.23c-.29-.29-.06-.71.43-.78a2.74,2.74,0,0,0,2.32-2.89c0-.36.13-.58.42-.61s.5.17.54.55A3.81,3.81,0,0,1,457.6,444.79Z" transform="translate(0.64)"/><polygon points="452.1 450.04 465.45 449.2 475.49 510.16 456.25 512.05 452.1 450.04"/><circle class="cls-2" cx="402.59" cy="346.99" r="30.01"/><text class="cls-18" transform="translate(378.39 353.12)">2023</text><text class="cls-19" transform="translate(319.93 367.53)"><tspan class="cls-20">T</tspan><tspan x="4.51" y="0">ra</tspan><tspan class="cls-21" x="15.4" y="0">f</tspan><tspan x="18.94" y="0">fic Light was </tspan><tspan x="0" y="14.4">introduced in Kathmandu</tspan></text></g><g id="traffic"><path class="cls-2" d="M407.93,517s5.24,13-74.1-88.49c-10,11.47-7.54,9.47-7.54,9.47s71.45,84.07,67.25,92.06Z" transform="translate(0.64)"/><path class="cls-2" d="M327.52,494.42c-.06.38-.09.76-.18,1.13-.13.56-.31.68-.88.67a2.8,2.8,0,0,1-.68-.12,4,4,0,0,1-2.29-1.71c-.37-.56-.42-.55-.85,0a1.21,1.21,0,0,0-.2.26c-.17.38-.51.48-.86.63a8.57,8.57,0,0,0-1.69.94c-.66.49-1.1,1.22-1.79,1.72a2.7,2.7,0,0,0-.82,1.87c-.45,2.72-.92,5.44-1.34,8.16a20.53,20.53,0,0,0-.39,4c.09,2.05.41,4.1.68,6.14.11.87.33,1.72.5,2.58s.33,1,1.12,1a11.93,11.93,0,0,0,1.86-.29,4.5,4.5,0,0,1,.81,3.16c-.05.39-.26.23-.37.18l-.78.5c0,.36,0,.78,0,1.19A28.52,28.52,0,0,1,319,533a27.42,27.42,0,0,0-.44,4.75c-.06,2.44,0,4.89,0,7.34,0,.54-.27,1.14.26,1.6,0,0,0,.12,0,.18a9,9,0,0,1,.36,2.7,2.86,2.86,0,0,0,1.45,2.63,9,9,0,0,0,1.32.56c.94.32,1.24.14,1.49-.83a5.7,5.7,0,0,0-.34-3.18,8,8,0,0,1-.39-2.46c.06-2.62.22-5.23.35-7.85a58.22,58.22,0,0,1,1.2-11.25c.26-1,.44-2.08.66-3.11a24.49,24.49,0,0,1,.06,4.72,34.13,34.13,0,0,0-.46,7.58c.18,2.08.08,4.18.1,6.27,0,.14,0,.35,0,.4.34.26.12.56.12.85a5,5,0,0,0,.06,1.42c.12.4,1.6.81,2,.58a.51.51,0,0,1,.7.1,4.27,4.27,0,0,0,1.05.9,6.68,6.68,0,0,0,3.76.56c.36-.06.84,0,.95-.51s-.32-.66-.62-.84a14.66,14.66,0,0,1-3.51-3.07,1.19,1.19,0,0,1-.27-.73c.06-2.87.13-5.73.24-8.6.07-1.9.11-3.82.35-5.7.41-3.24,1-6.46,1.44-9.69a7.11,7.11,0,0,0,0-3.41,2,2,0,0,1,0-.62c.32.55.5,1.15.77,1.69a6.09,6.09,0,0,0,.81,1.07c.05.06.2.07.31.06a2.48,2.48,0,0,0,1.79-1c.09-.12.19-.38.13-.44-.45-.54-.36-1.23-.55-1.84-.3-1-.57-2-.79-3a72.1,72.1,0,0,1-1.49-8.45c-.24-2.32-.79-4.6-1.22-6.9-.16-.84-.49-1.58-1.49-1.73C329,494.09,329,494.09,327.52,494.42Z" transform="translate(0.64)"/><path class="cls-2" d="M358.27,543.18a16.81,16.81,0,0,1,1.19,1.26,2.09,2.09,0,0,0,1.59.84,13.41,13.41,0,0,0,1.95,0,.7.7,0,0,0,.5-.42.73.73,0,0,0-.21-.62,5.15,5.15,0,0,0-1.14-.7,2.53,2.53,0,0,1-1.42-2.5c0-2.82.1-5.64.21-8.46.07-1.79.15-3.59.36-5.37s.62-3.7.93-5.54a12.35,12.35,0,0,0,0-5.3,2.64,2.64,0,0,1,.18-1.85c.28.71.5,1.39.8,2a6.05,6.05,0,0,0,.76,1.06.34.34,0,0,0,.26.07,2.19,2.19,0,0,0,1.69-.93.52.52,0,0,0,.09-.37c-.14-.51-.33-1-.46-1.53-.31-1.13-.63-2.27-.88-3.41-.36-1.65-.76-3.3-1-5a79,79,0,0,0-1.29-8.16,2.41,2.41,0,0,0-1.57-2l-1.42.46c0,.36-.05.78-.12,1.18-.11.62-.4.82-1,.72a2.54,2.54,0,0,1-2.23-1.77c0-.14-.11-.28-.2-.5a5.53,5.53,0,0,0-.54.48,3,3,0,0,1-1.45,1,4.05,4.05,0,0,0-2,1.48c-.13.17-.24.41-.42.49a2.46,2.46,0,0,0-1.29,2.12c-.46,2.72-.93,5.43-1.34,8.16a11.75,11.75,0,0,0-.23,3,61.62,61.62,0,0,0,1,7.91.9.9,0,0,0,.69.77,2.38,2.38,0,0,0,1.83-.24,4,4,0,0,1,.63,2.83.69.69,0,0,0-.74.75c0,.68,0,1.36,0,2a19.12,19.12,0,0,1-.37,4.9,19.09,19.09,0,0,0-.4,5c.07,1.34,0,2.69.11,4s-.4,2.57.22,3.84a3.88,3.88,0,0,1,.23,1.59c0,2.18.94,2.7,2.65,3.21a.58.58,0,0,0,.79-.42,3.53,3.53,0,0,0,.11-2.14c-.2-.75-.38-1.5-.55-2.25a.71.71,0,0,1,0-.35,3.27,3.27,0,0,0,.24-.71c.18-3.36.39-6.71.49-10.07a57.22,57.22,0,0,1,1.53-9.73s.08.07.08.09a32.52,32.52,0,0,1,0,4.12,29.2,29.2,0,0,0-.47,6.19c.11,1.17.1,2.35.2,3.52s-.32,2.45.15,3.64c0,0,0,.06,0,.09,0,.71,0,1.42-.08,2.13,0,.53.38.43.68.46s.57,0,.55-.44A4.53,4.53,0,0,1,358.27,543.18Z" transform="translate(0.64)"/><path class="cls-2" d="M355.92,495.65a1.18,1.18,0,0,0-.21-1.14,2.62,2.62,0,0,1-.42-1.17c0-.13.22-.38.38-.44s.35.14.45.28a5,5,0,0,1,.38.75l.14,0,.16-2.25a2,2,0,0,1,.61.1,5.09,5.09,0,0,0,3.26.37,13.13,13.13,0,0,0,1.61-.51l-1.18-1.07-.26.33c-.58-.08-.82-.42-.85-1l1.19-.18c.35-.49.83-1.13,1.27-1.81.27-.41.18-.55-.3-.59a22.85,22.85,0,0,0-6.25.24,5.71,5.71,0,0,0-3.71,2.46,1.89,1.89,0,0,1,1.39,2h-.31a2,2,0,0,0-2,2.44,9.11,9.11,0,0,0,.5,1.45c.31.74.24,1.16-.86,1.42a2.35,2.35,0,0,1-.3,0l0,.12a8.62,8.62,0,0,0,1.15.5,1.8,1.8,0,0,0,2.37-1.75,4.75,4.75,0,0,0-.11-1.06c-.1-.49-.26-1-.35-1.44a1.76,1.76,0,0,1,.08-.57h.17A6.07,6.07,0,0,0,355.92,495.65Z" transform="translate(0.64)"/><path class="cls-2" d="M323.08,493.39l.17,0a1.61,1.61,0,0,0,0-1.52,3.49,3.49,0,0,1-.37-1.23c0-.16.16-.36.25-.55.15.11.35.19.44.34s.22.58.38.84a2.59,2.59,0,0,0,.43.46l.16-.09v-3a3.29,3.29,0,0,1,2,.16,3.85,3.85,0,0,0,2.31.34,3.63,3.63,0,0,0,1.75-.65l-1.13-1c-.21.08-.44.26-.62.23-.48-.09-.66-.44-.64-1l1-.26.14.29c.09-.14.18-.29.28-.44.43-.6.89-1.19,1.29-1.81.28-.44.2-.57-.31-.62a24,24,0,0,0-7.16.32,6.18,6.18,0,0,0-3.81,2.64,10.47,10.47,0,0,0,.89.58,1,1,0,0,1,.53.85,3.9,3.9,0,0,0,.19,1.18C321.79,490.69,322.45,492,323.08,493.39Z" transform="translate(0.64)"/><path class="cls-2" d="M319.79,523.44h-.1a6.51,6.51,0,0,0-.08.75c0,.07.14.13.22.2s.16-.16.15-.23C319.93,523.93,319.85,523.69,319.79,523.44Z" transform="translate(0.64)"/><path class="cls-2" d="M352.21,523.29l-.12,0a6,6,0,0,0,0,.62c0,.05.12.09.18.14s.11-.12.1-.17C352.32,523.69,352.26,523.49,352.21,523.29Z" transform="translate(0.64)"/><path d="M327.52,494.42c1.46-.33,1.46-.33,1.68-.6,1,.15,1.33.89,1.49,1.73.43,2.3,1,4.58,1.22,6.9a72.1,72.1,0,0,0,1.49,8.45c.22,1,.49,2,.79,3,.19.61.1,1.3.55,1.84.06.07,0,.33-.13.44a2.48,2.48,0,0,1-1.79,1c-.1,0-.25,0-.31-.06a6.09,6.09,0,0,1-.81-1.07c-.28-.54-.46-1.13-.77-1.69a2,2,0,0,0,0,.62,7.11,7.11,0,0,1,0,3.41c-.44,3.24-1,6.45-1.44,9.69-.24,1.88-.28,3.8-.35,5.7-.11,2.86-.18,5.73-.24,8.6a1.19,1.19,0,0,0,.27.73,14.66,14.66,0,0,0,3.51,3.07c.3.18.72.37.62.84s-.59.45-.95.51a6.68,6.68,0,0,1-3.76-.56,4.27,4.27,0,0,1-1.05-.9.51.51,0,0,0-.7-.1c-.38.23-1.87-.18-2-.58a5,5,0,0,1-.06-1.42c0-.29.22-.59-.12-.85-.07-.05,0-.27,0-.4,0-2.09.08-4.19-.1-6.27a34.13,34.13,0,0,1,.46-7.58A24.49,24.49,0,0,0,325,524c-.22,1-.41,2.09-.66,3.11a58.22,58.22,0,0,0-1.2,11.25c-.13,2.62-.29,5.23-.35,7.85a8,8,0,0,0,.39,2.46,5.7,5.7,0,0,1,.34,3.18c-.25,1-.55,1.16-1.49.83a9,9,0,0,1-1.32-.56,2.86,2.86,0,0,1-1.45-2.63,9,9,0,0,0-.36-2.7c0-.06,0-.15,0-.18-.53-.46-.26-1.06-.26-1.6,0-2.45-.1-4.89,0-7.34A27.42,27.42,0,0,1,319,533a28.52,28.52,0,0,0,.38-6.61c0-.42,0-.83,0-1.19l.78-.5c.11,0,.32.21.37-.18a4.5,4.5,0,0,0-.81-3.16,11.93,11.93,0,0,1-1.86.29c-.8,0-1-.22-1.12-1s-.39-1.72-.5-2.58c-.26-2-.58-4.09-.68-6.14a20.53,20.53,0,0,1,.39-4c.41-2.72.88-5.44,1.34-8.16a2.7,2.7,0,0,1,.82-1.87c.69-.5,1.13-1.23,1.79-1.72a8.57,8.57,0,0,1,1.69-.94c.35-.15.69-.26.86-.63a1.21,1.21,0,0,1,.2-.26c.43-.51.47-.51.85,0a4,4,0,0,0,2.29,1.71,2.8,2.8,0,0,0,.68.12c.58,0,.75-.11.88-.67C327.43,495.18,327.46,494.8,327.52,494.42Zm-7.65,14-.19,0a9.15,9.15,0,0,0-.57,2.16c0,1.33.15,2.66.24,4,0,.51.09,1,.14,1.63.17-.31.28-.51.37-.72a.82.82,0,0,0,0-.33,3.89,3.89,0,0,1,0-1.08C320.43,512.19,319.94,510.33,319.87,508.46Zm2.82-7.34a1.82,1.82,0,0,0,1.57,2c1-.81.4-1.71.2-2.57-.22,0-.4.1-.57.12s-.25,0-.34,0C323.28,500.8,323,500.95,322.69,501.12Zm5.91,14c-.58.16-1.12.33-1.67.47s-.73.24-.54,1c.52-.12,1.05-.22,1.57-.36C328.7,516,328.7,516,328.6,515.15Z" transform="translate(0.64)"/><path d="M358.27,543.18a4.53,4.53,0,0,0-.09.69c0,.42-.25.46-.55.44s-.7.07-.68-.46c0-.71.05-1.42.08-2.13,0,0,0-.07,0-.09-.46-1.2,0-2.43-.15-3.64s-.09-2.35-.2-3.52a29.2,29.2,0,0,1,.47-6.19,32.52,32.52,0,0,0,0-4.12s0,0-.08-.09a57.22,57.22,0,0,0-1.53,9.73c-.1,3.36-.31,6.72-.49,10.07a3.27,3.27,0,0,1-.24.71.71.71,0,0,0,0,.35c.17.75.35,1.5.55,2.25a3.53,3.53,0,0,1-.11,2.14.58.58,0,0,1-.79.42c-1.7-.51-2.6-1-2.65-3.21a3.88,3.88,0,0,0-.23-1.59c-.63-1.27-.16-2.57-.22-3.84s0-2.69-.11-4a19.09,19.09,0,0,1,.4-5,19.12,19.12,0,0,0,.37-4.9c0-.68,0-1.36,0-2a.69.69,0,0,1,.74-.75,4,4,0,0,0-.63-2.83,2.38,2.38,0,0,1-1.83.24.9.9,0,0,1-.69-.77,61.62,61.62,0,0,1-1-7.91,11.75,11.75,0,0,1,.23-3c.42-2.72.88-5.44,1.34-8.16a2.46,2.46,0,0,1,1.29-2.12c.18-.08.28-.32.42-.49a4.05,4.05,0,0,1,2-1.48,3,3,0,0,0,1.45-1,5.53,5.53,0,0,1,.54-.48c.09.22.15.35.2.5a2.54,2.54,0,0,0,2.23,1.77c.62.1.91-.1,1-.72.07-.41.09-.82.12-1.18l1.42-.46a2.41,2.41,0,0,1,1.57,2,79,79,0,0,1,1.29,8.16c.2,1.67.6,3.32,1,5,.25,1.15.58,2.28.88,3.41.14.51.33,1,.46,1.53a.52.52,0,0,1-.09.37,2.19,2.19,0,0,1-1.69.93.34.34,0,0,1-.26-.07,6.05,6.05,0,0,1-.76-1.06c-.31-.64-.53-1.32-.8-2a2.64,2.64,0,0,0-.18,1.85,12.35,12.35,0,0,1,0,5.3c-.31,1.85-.71,3.68-.93,5.54s-.29,3.58-.36,5.37c-.11,2.82-.23,5.64-.21,8.46a2.53,2.53,0,0,0,1.42,2.5,5.15,5.15,0,0,1,1.14.7.73.73,0,0,1,.21.62.7.7,0,0,1-.5.42,13.41,13.41,0,0,1-1.95,0,2.09,2.09,0,0,1-1.59-.84A16.81,16.81,0,0,0,358.27,543.18Zm-5.69-34c-.26.67-.51,1.25-.71,1.85a2.16,2.16,0,0,0-.13.81c.09,1.59.21,3.18.33,4.77a.61.61,0,0,0,0,.15l.62-.84A13.57,13.57,0,0,0,352.58,509.15Zm4-6.58-1.65.49c.05.23.11.43.15.65a1.39,1.39,0,0,0,1.1,1.18c.09,0,.27,0,.29,0a3.14,3.14,0,0,0,.42-1.08A4.64,4.64,0,0,0,356.62,502.56Zm3.76,13.33c-.5.14-1,.29-1.5.42s-.64.15-.52.88c.48-.11,1-.2,1.43-.32C360.49,516.69,360.49,516.68,360.38,515.89Z" transform="translate(0.64)"/><path d="M355.92,495.65a6.07,6.07,0,0,1-2-2.49h-.17a1.76,1.76,0,0,0-.08.57c.09.49.25,1,.35,1.44a4.75,4.75,0,0,1,.11,1.06,1.8,1.8,0,0,1-2.37,1.75,8.62,8.62,0,0,1-1.15-.5l0-.12a2.35,2.35,0,0,0,.3,0c1.1-.26,1.17-.68.86-1.42a9.11,9.11,0,0,1-.5-1.45,2,2,0,0,1,2-2.44h.31a1.89,1.89,0,0,0-1.39-2,5.71,5.71,0,0,1,3.71-2.46,22.85,22.85,0,0,1,6.25-.24c.48,0,.56.18.3.59-.43.67-.92,1.32-1.27,1.81l-1.19.18c0,.59.27.93.85,1l.26-.33,1.18,1.07a13.13,13.13,0,0,1-1.61.51,5.09,5.09,0,0,1-3.26-.37,2,2,0,0,0-.61-.1l-.16,2.25-.14,0a5,5,0,0,0-.38-.75c-.1-.14-.35-.32-.45-.28s-.41.32-.38.44a2.62,2.62,0,0,0,.42,1.17A1.18,1.18,0,0,1,355.92,495.65Z" transform="translate(0.64)"/><path d="M323.08,493.39c-.63-1.36-1.29-2.7-1.89-4.07a3.9,3.9,0,0,1-.19-1.18,1,1,0,0,0-.53-.85,10.47,10.47,0,0,1-.89-.58,6.18,6.18,0,0,1,3.81-2.64,24,24,0,0,1,7.16-.32c.51,0,.59.17.31.62-.4.63-.86,1.21-1.29,1.81-.1.15-.19.3-.28.44l-.14-.29-1,.26c0,.58.15.92.64,1,.18,0,.41-.15.62-.23l1.13,1a3.63,3.63,0,0,1-1.75.65,3.85,3.85,0,0,1-2.31-.34,3.29,3.29,0,0,0-2-.16v3l-.16.09a2.59,2.59,0,0,1-.43-.46c-.15-.27-.22-.58-.38-.84s-.29-.23-.44-.34c-.09.18-.28.38-.25.55a3.49,3.49,0,0,0,.37,1.23,1.61,1.61,0,0,1,0,1.52Z" transform="translate(0.64)"/><path d="M319.79,523.44c.07.24.15.48.19.73,0,.07-.1.15-.15.23s-.22-.13-.22-.2a6.51,6.51,0,0,1,.08-.75Z" transform="translate(0.64)"/><path d="M352.21,523.29c0,.2.11.41.14.61,0,.05-.07.12-.1.17s-.18-.09-.18-.14a6,6,0,0,1,0-.62Z" transform="translate(0.64)"/><path class="cls-2" d="M319.87,508.46c.07,1.87.56,3.72,0,5.61a3.89,3.89,0,0,0,0,1.08.82.82,0,0,1,0,.33c-.09.21-.21.41-.37.72-.05-.61-.11-1.12-.14-1.63-.1-1.33-.27-2.66-.24-4a9.15,9.15,0,0,1,.57-2.16Z" transform="translate(0.64)"/><path class="cls-2" d="M322.69,501.12c.34-.17.59-.32.85-.43.1,0,.23,0,.34,0s.35-.07.57-.12c.2.86.76,1.76-.2,2.57A1.82,1.82,0,0,1,322.69,501.12Z" transform="translate(0.64)"/><path class="cls-2" d="M328.6,515.15c.1.87.1.88-.64,1.08-.52.14-1,.24-1.57.36-.19-.73-.14-.8.54-1S328,515.31,328.6,515.15Z" transform="translate(0.64)"/><path class="cls-2" d="M352.58,509.15a13.57,13.57,0,0,1,.14,6.74l-.62.84a.61.61,0,0,1,0-.15c-.11-1.59-.23-3.18-.33-4.77a2.16,2.16,0,0,1,.13-.81C352.07,510.4,352.32,509.82,352.58,509.15Z" transform="translate(0.64)"/><path class="cls-2" d="M356.62,502.56a4.64,4.64,0,0,1,.3,1.24,3.14,3.14,0,0,1-.42,1.08s-.19,0-.29,0a1.39,1.39,0,0,1-1.1-1.18c0-.21-.09-.42-.15-.65Z" transform="translate(0.64)"/><path class="cls-2" d="M360.38,515.89c.11.78.11.79-.59,1-.47.13-.95.22-1.43.32-.12-.74-.12-.73.52-.88S359.88,516,360.38,515.89Z" transform="translate(0.64)"/><path d="M433.37,507h7.14c2,1,3.6,2.44,3.58,4.94,0,1.79-1.18,2.6-2.85,3,2.58.54,5.1.92,7.61,1.32,3.75.6,6.89,2,8.41,5.89.71,1.81,1.91,3.44,2.53,5.27,1.35,4,2.58,8,3.64,12.13a37.26,37.26,0,0,1,.61,5.69v3.36c-.79,1.59-1.58,3.17-2.35,4.77a7,7,0,0,0-1,2.27c-.23,3.2-.17,6.42-.49,9.6-.18,1.84-.57,4-3,4.24-4,.47-7,.29-8.05-2.27-.71-1.7-1.34-3.44-2.09-5.36a14.88,14.88,0,0,0-3.92.06c-3.49.94-6.89,2.21-10.36,3.23-1.29.38-1.46,1-1.41,2.25a48.8,48.8,0,0,1-.19,7.3c-.53,4.82-3.28,8.09-7.41,9.12-.74.18-1.48.34-2.22.51H417c-5.63-.79-9-4-10.36-9.49-.16-.68-.24-1.38-.47-2s-.5-1.61-.84-1.64a2.87,2.87,0,0,0-1.91.77c-2.41,2.12-4.54,2.58-6.6,1-2.54-1.92-5.16-3.82-6.52-6.88-.22-.5-.64-1-.6-1.52.21-3.13.46-6.25.82-9.36.39-3.28.92-6.55,1.32-9.39-1.16-.61-2.18-.8-2.46-1.35-1.12-2.23-3-2.76-5.22-2.84-3.43-.13-6.86-.12-10.28-.33-3.64-.22-7.14.07-9.37,3.34-1.2,1.76-1.78,3.94-2.67,6l1.69.38-1,4.29.45.17,3-3.26c-.16,2.2,1.33,2.38,3,2.45,1.94.08,3.92.6,5.8.32,2.65-.39,5.51,1.27,8-.83l0-.06,1.69,2.82.65,0,2.29-9.68a71.38,71.38,0,0,1-.08,10c-.29,4.58-.53,9.14,3,12.82,0,0-.05.22-.09.36-2.37-.21-4.73-.41-7.1-.64-2.81-.27-4.1.49-5.32,3-2.16,4.48-4.65,7.33-10.61,6.59-.55-.07-1.12,0-1.68-.06-6.13-.3-10.31-4.37-10.61-10.52a4.17,4.17,0,0,0-1.62-3.15c-2.25-2.07-3.95-4.52-3.84-7.68a62.31,62.31,0,0,1,7.19.07c1.73.21,1.88-.8,2.48-2l-6.36-.83v-.39h6.88l0-.52c-2-.17-4-.44-6-.46-1.75,0-2.2-.84-1.93-2.37.11-.61.23-1.21.36-1.9.85,0,1.6,0,2.35,0,1.68.06,3.35.23,5,.19,2,0,2-1.6,2.08-3s-.17-2.26-1.9-2.23c-2,0-3.92-.21-5.88-.34l-.3-.82a22.16,22.16,0,0,1,3.88-2.78c4.6-2,9.31-3.77,14-5.68.51-.21,1.29-.71,1.3-1.08,0-2.55,1.83-2.75,3.61-2.7a4.38,4.38,0,0,0,3.57-1.69c2-2.2,4.13-4.38,6.37-6.38,1.95-1.74,4.13-3.21,6.2-4.8,1.25,0,2.51.11,3.76.1l33.16-.34c1.41,0,2.82,0,3.88,0,.45,6.32-3,12.61-.72,19.29.64-4.94,1.23-9.79,1.91-14.63.53-3.81,1.87-4.71,5.77-4.08,1.48,4,1.5,4.1.41,5.66-2,2.88-4.13,5.7-6.08,8.63a8.31,8.31,0,0,0-1.15,3.11c-.21,1.19.26,2.13,1.75,1.87,2.2-.39,4.38-.86,6.58-1.23,2-.34,2.68-1.37,2.11-3.37a35.19,35.19,0,0,1-.67-4l.43-.08,1.51,6.33.83-1.21,1.59,1.68-14.46,3.54,0,.78a8.86,8.86,0,0,0,2.19.1c4.83-1,9.64-2,14.46-3-2.74,1.39-2.06,5.82-.26,10.39l3.89-.78-1.38-12.68,9.05-1.62-5.1-10.46a21.83,21.83,0,0,0-2.2,3,14.43,14.43,0,0,0-.68,3c-1.48-3.09-3-6-4.33-9.1-.83-1.91-1.92-2.77-4.13-2.57a45.42,45.42,0,0,1-7.09-.15c-3.29-.23-6.65-.87-9.82-.95a153.51,153.51,0,0,0-35.24,2.79l5.48-2.64c-1.64-.57-3.37-1-3-3.28.27-1.77,2.4-3.89,4.16-4,3.05-.19,6.11-.35,9.16-.52l0,0-.21,2.23c5.27,0,10.42-.08,15.56,0,2,0,3.54-.26,3.85-2.34Zm-1.68,18-22.47,1.13a8.69,8.69,0,0,1,0-1c.45-3.57,0-4-3.54-4.11a17.88,17.88,0,0,1-2.93-.57c.09,1.36.17,2.61.24,3.85.14,2.47.1,2.53-1.19,2.76l-1.43-6c-3,.19-5.76.19-8.43.58a9,9,0,0,0-4.3,1.73c-2.62,2.18-5,4.67-7.42,7.06-.56.55-1,1.2-1.69,2a9.55,9.55,0,0,0,1.51.41c6.34.42,12.68,1.09,19,1.15,9.71.09,19.43-.24,29.15-.45.71,0,1.92-.43,2-.87C430.85,530.3,431.2,527.77,431.69,525ZM443,539.64v-.51c-2.64.64-5.29,1.25-7.91,2-.5.14-1.3.7-1.28,1,.24,2.85.64,5.7,1,8.66l13-2.83-1.05-6.74Zm-46.37,15.8,1.23-10.29-4.27.23,0,.38,2.83.89-.86,10.74,1.06.24-2.65.43c1.07.82,1.71,1.73,2.37,1.75,4.6.13,9.21.07,13.36.07l-1.49-.38.08-.55,2.27-.41,0-.34H399.06a9.09,9.09,0,0,1,3.13-.43c3.35-.16,6.69-.31,10-.57.55,0,1.06-.64,1.59-1l-.32-.77Zm14.84-9.32a4,4,0,0,0-1-.3c-2.16,0-4.32,0-6.48,0-5.15-.08-5.15-.09-6.25,4.74,0,.11,0,.25.14.68h13.23Zm23.63,14.5,15.69-5.19c2.83-.93,2.83-.93,1.93-3.91l-2.89.62-.28,2.24-1.38-2L434.69,556ZM448,549l-14.65,2.62.63,3.67,14.62-3.55Zm-64.75,7.8c-.74,2.16-1.83,2.66-3.54,2.54a61.36,61.36,0,0,0-7.51,0c-.58,0-1.11.81-1.67,1.25.57.46,1.12,1.27,1.72,1.31a79.59,79.59,0,0,0,9.13.07c.66,0,1.46-1.2,1.81-2S383.22,558.28,383.22,556.79Zm-22.41-.28c-2.08,5.37-.74,9.74,3.32,13.29a4.6,4.6,0,0,0,1.6.54c.07-.66.45-1.6.15-1.92a14.88,14.88,0,0,0-3.06-2.4,2.54,2.54,0,0,1-.74-3.91,6.32,6.32,0,0,0,.63-2.17l-.32-.09-.94,1.4ZM398,561c-1.68,0-3-.16-2.67,1.5a7.64,7.64,0,0,0,1.16,2.12l2.73-2.55Zm55.14-10.41-.26-3-4.06,1.15.8,2.44ZM437.44,510v-.55h-4.81V510ZM422,573.58c1.75,1.19,3.32.1,4.82-.52.48-.2.53-1.45.78-2.22l-.49-.35C426.65,573.8,424.23,573.39,422,573.58Zm35.45-11.68c2-.85,2.06-1,1.7-4Z" transform="translate(0.64)"/><path class="cls-2" d="M431.69,525c-.49,2.76-.84,5.29-1.45,7.76-.11.44-1.32.86-2,.87-9.72.21-19.43.54-29.15.45-6.34-.06-12.68-.73-19-1.15a9.55,9.55,0,0,1-1.51-.41c.66-.78,1.13-1.43,1.69-2,2.44-2.39,4.8-4.89,7.42-7.06a9,9,0,0,1,4.3-1.73c2.67-.39,5.4-.4,8.43-.58l1.43,6c1.29-.22,1.33-.29,1.19-2.76-.07-1.25-.15-2.49-.24-3.85a17.88,17.88,0,0,0,2.93.57c3.56.07,4,.54,3.54,4.11a8.69,8.69,0,0,0,0,1Z" transform="translate(0.64)"/><path class="cls-2" d="M392.23,518.15a153.51,153.51,0,0,1,35.24-2.79c3.17.08,6.53.72,9.82.95a45.42,45.42,0,0,0,7.09.15c2.2-.2,3.3.66,4.13,2.57,1.32,3.05,2.85,6,4.33,9.1a14.43,14.43,0,0,1,.68-3,21.83,21.83,0,0,1,2.2-3l5.1,10.46-9.05,1.62,1.38,12.68-3.89.78c-1.81-4.57-2.49-9,.26-10.39-4.82,1-9.63,2.07-14.46,3a8.86,8.86,0,0,1-2.19-.1l0-.78,14.46-3.54-1.59-1.68-.83,1.21-1.51-6.33-.43.08a35.19,35.19,0,0,0,.67,4c.57,2-.11,3-2.11,3.37-2.2.38-4.38.85-6.58,1.23-1.48.26-2-.68-1.75-1.87a8.31,8.31,0,0,1,1.15-3.11c2-2.93,4.06-5.75,6.08-8.63,1.1-1.56,1.07-1.63-.41-5.66-3.9-.63-5.24.27-5.77,4.08-.68,4.84-1.27,9.68-1.91,14.63-2.23-6.68,1.17-13,.72-19.29-1.06,0-2.47,0-3.88,0l-33.16.34c-1.25,0-2.51-.06-3.76-.1Zm48.92.48,3.66,13.3c.06-2.17-.43-4.31-.19-6.37s1.21-4.07,2-6.59l3,4.87C448.62,518.65,446.81,517.55,441.15,518.62Z" transform="translate(0.64)"/><path d="M382.72,554.08c-1.62-1-1.66-2.48-1.28-4.18s.43-3.16.65-4.92h-3.94l-.12.34,2.22.81v6.54H375.9l.91-8.08-3.8.27c2.48.41,2.36,2,2.18,3.81-.12,1.16,0,2.35,0,3.66H371l.78-7.7-3.4.25v.46l1.87.49v6.4l-3.77-.27a51.39,51.39,0,0,1,1-7.48c.19-.67,2.06-1.27,3.14-1.25,4.26.09,8.51.41,12.77.71a20.66,20.66,0,0,1,2.86.6l-.06.55-3.51.35,2.83,1.15c0,1.4.05,2.86,0,4.32a6.2,6.2,0,0,1-.56,1.63l-1.69-.7.93,2.61-1.52-.44Z" transform="translate(0.64)"/><path class="cls-2" d="M443,539.64l3.7,1.54,1.05,6.74-13,2.83c-.36-3-.76-5.8-1-8.66,0-.31.77-.88,1.28-1,2.62-.71,5.27-1.31,7.91-2Z" transform="translate(0.64)"/><path class="cls-2" d="M396.65,555.44H413.5l.32.77c-.53.34-1,.94-1.59,1-3.34.26-6.69.41-10,.57a9.09,9.09,0,0,0-3.13.43h11.48l0,.34-2.27.41-.08.55,1.49.38c-4.15,0-8.76.06-13.36-.07-.66,0-1.3-.93-2.37-1.75l2.65-.43-1.06-.24.86-10.74-2.83-.89,0-.38,4.27-.23Z" transform="translate(0.64)"/><path class="cls-2" d="M411.5,546.13l-.31,5.12H398c-.1-.43-.17-.57-.14-.68,1.1-4.83,1.1-4.82,6.25-4.74,2.16,0,4.32,0,6.48,0A4,4,0,0,1,411.5,546.13Z" transform="translate(0.64)"/><path class="cls-2" d="M435.13,560.63l-.43-4.65,13.51-3.54,1.38,2,.28-2.24,2.89-.62c.9,3,.9,3-1.93,3.91Z" transform="translate(0.64)"/><path class="cls-2" d="M448,549l.6,2.74L434,555.29l-.63-3.67Z" transform="translate(0.64)"/><path class="cls-2" d="M383.22,556.79c0,1.49.24,2.43-.06,3.13s-1.15,2-1.81,2a79.59,79.59,0,0,1-9.13-.07c-.6,0-1.15-.85-1.72-1.31.56-.44,1.09-1.22,1.67-1.25a61.36,61.36,0,0,1,7.51,0C381.39,559.46,382.48,558.95,383.22,556.79Z" transform="translate(0.64)"/><path class="cls-2" d="M360.81,556.51l.65,4.74.94-1.4.32.09a6.32,6.32,0,0,1-.63,2.17,2.54,2.54,0,0,0,.74,3.91,14.88,14.88,0,0,1,3.06,2.4c.3.32-.08,1.26-.15,1.92a4.6,4.6,0,0,1-1.6-.54C360.07,566.24,358.74,561.87,360.81,556.51Z" transform="translate(0.64)"/><path class="cls-2" d="M398,561l1.22,1.07-2.73,2.55a7.64,7.64,0,0,1-1.16-2.12C395,560.8,396.27,561,398,561Z" transform="translate(0.64)"/><path class="cls-2" d="M453.09,550.54l-3.53.63-.8-2.44,4.06-1.15Z" transform="translate(0.64)"/><path class="cls-2" d="M437.44,510h-4.82v-.55h4.81Z" transform="translate(0.64)"/><path class="cls-2" d="M422,573.58c2.2-.19,4.62.22,5.11-3.09l.49.35c-.25.77-.3,2-.78,2.22C425.35,573.68,423.78,574.77,422,573.58Z" transform="translate(0.64)"/><path class="cls-2" d="M457.48,561.9l1.7-4C459.54,560.92,459.49,561,457.48,561.9Z" transform="translate(0.64)"/><path d="M408,507.71l8.8-.38L415,509.2l-.32-.27.54-1.47-2.38,2,.26-1.79-2.15,1.9.18-1.66-.53-.45-.83,2.05L408,507.69Z" transform="translate(0.64)"/><path d="M441.15,518.62c5.66-1.08,7.46,0,8.49,5.2l-3-4.87c-.8,2.52-1.77,4.52-2,6.59s.25,4.2.19,6.37Z" transform="translate(0.64)"/><circle class="cls-2" cx="326.67" cy="424.63" r="29.92"/><text class="cls-18" transform="translate(306.97 432.03)">2026</text><text class="cls-17" transform="translate(267.97 452.34)">First <tspan class="cls-22" x="27.89" y="0">V</tspan><tspan x="35.73" y="0">ehicle provided to </tspan><tspan class="cls-22" x="0" y="16.8">T</tspan><tspan x="5.26" y="16.8">ra</tspan><tspan class="cls-23" x="17.96" y="16.8">f</tspan><tspan x="22.09" y="16.8">fic Police</tspan></text></g></svg>